<svg xmlns="http://www.w3.org/2000/svg" viewBox="0 0 512 512">
  <rect width="512" height="512" rx="100" fill="#6366f1"/>
  <rect x="100" y="90" width="312" height="332" rx="20" fill="white" opacity=".15"/>
  <rect x="120" y="110" width="272" height="292" rx="16" fill="white" opacity=".08"/>
  <!-- Calendar icon -->
  <rect x="136" y="150" width="240" height="220" rx="14" fill="white"/>
  <rect x="136" y="150" width="240" height="56" rx="14" fill="#6366f1"/>
  <rect x="136" y="186" width="240" height="20" fill="#6366f1"/>
  <!-- Grid lines -->
  <line x1="196" y1="230" x2="196" y2="350" stroke="#e2e8f0" stroke-width="2"/>
  <line x1="256" y1="230" x2="256" y2="350" stroke="#e2e8f0" stroke-width="2"/>
  <line x1="316" y1="230" x2="316" y2="350" stroke="#e2e8f0" stroke-width="2"/>
  <line x1="136" y1="270" x2="376" y2="270" stroke="#e2e8f0" stroke-width="2"/>
  <line x1="136" y1="310" x2="376" y2="310" stroke="#e2e8f0" stroke-width="2"/>
  <!-- Check marks -->
  <circle cx="166" cy="250" r="12" fill="#22c55e"/>
  <circle cx="226" cy="250" r="12" fill="#22c55e"/>
  <circle cx="286" cy="250" r="12" fill="#f59e0b"/>
  <circle cx="346" cy="250" r="12" fill="#ef4444"/>
  <circle cx="166" cy="290" r="12" fill="#22c55e"/>
  <circle cx="226" cy="290" r="12" fill="#22c55e"/>
  <!-- Calendar header text dots -->
  <circle cx="176" cy="170" r="6" fill="white" opacity=".7"/>
  <circle cx="256" cy="170" r="6" fill="white" opacity=".7"/>
  <circle cx="336" cy="170" r="6" fill="white" opacity=".7"/>
</svg>
