<svg width="45" height="49" viewBox="0 0 45 49" fill="none" xmlns="http://www.w3.org/2000/svg">
<path d="M43.3787 38.2384L24.5566 46.6037C23.3678 47.1321 22.0109 47.1321 20.8221 46.6037L2 38.2384M43.3787 26.7443L24.5566 35.1097C23.3678 35.638 22.0109 35.638 20.8221 35.1097L2 26.7443M3.81343 15.0075L20.6332 23.4174C21.9276 24.0646 23.4511 24.0646 24.7455 23.4174L41.5653 15.0075C43.2596 14.1604 43.2596 11.7424 41.5653 10.8953L24.7455 2.48539C23.4511 1.83821 21.9276 1.8382 20.6332 2.48538L3.81344 10.8953C2.1191 11.7424 2.11909 14.1604 3.81343 15.0075Z" stroke="#FF002A" stroke-width="3" stroke-linecap="round" stroke-linejoin="round"/>
</svg>
