<svg width="49" height="48" viewBox="0 0 49 48" fill="none" xmlns="http://www.w3.org/2000/svg">
<path d="M6.5 21.75H42.5M6.5 21.75C4.01472 21.75 2 19.7353 2 17.25V15C2 12.5147 4.01472 10.5 6.5 10.5H42.5C44.9853 10.5 47 12.5147 47 15V17.25C47 19.7353 44.9853 21.75 42.5 21.75M6.5 21.75L6.5 42C6.5 44.4853 8.51472 46.5 11 46.5H38C40.4853 46.5 42.5 44.4853 42.5 42V21.75M24.5 10.5H33.5C35.9853 10.5 38 8.48528 38 6C38 3.51472 35.9853 1.5 33.5 1.5C28.5294 1.5 24.5 5.52944 24.5 10.5ZM24.5 10.5H15.5C13.0147 10.5 11 8.48528 11 6C11 3.51472 13.0147 1.5 15.5 1.5C20.4706 1.5 24.5 5.52944 24.5 10.5ZM24.5 10.5V46.5" stroke="#007AFF" stroke-width="3" stroke-linecap="round"/>
</svg>
