<svg width="49" height="49" viewBox="0 0 49 49" fill="none" xmlns="http://www.w3.org/2000/svg">
<path d="M34.9352 20.2887C33.2682 16.1619 29.2242 13.25 24.5 13.25C18.2868 13.25 13.25 18.2868 13.25 24.5C13.25 29.2241 16.1619 33.2682 20.2887 34.9352M24.31 46.9992C11.9711 46.8972 2 36.863 2 24.5C2 12.0736 12.0736 2 24.5 2C36.863 2 46.8972 11.9711 46.9992 24.31M24.6289 27.703L30.5073 45.3383C31.2459 47.5539 34.3799 47.5539 35.1184 45.3383L37.2891 38.8262C37.531 38.1005 38.1005 37.531 38.8262 37.2891L45.3383 35.1184C47.5539 34.3799 47.5539 31.2459 45.3383 30.5073L27.703 24.6289C25.8031 23.9956 23.9956 25.8031 24.6289 27.703Z" stroke="#794AFF" stroke-width="3" stroke-linecap="round" stroke-linejoin="round"/>
</svg>
