<svg width="49" height="48" viewBox="0 0 49 48" fill="none" xmlns="http://www.w3.org/2000/svg">
<path d="M2 27H0.5V30H2V28.5V27ZM47 30H48.5V27H47V28.5V30ZM17.75 45C16.9216 45 16.25 45.6716 16.25 46.5C16.25 47.3284 16.9216 48 17.75 48V46.5V45ZM31.25 48C32.0784 48 32.75 47.3284 32.75 46.5C32.75 45.6716 32.0784 45 31.25 45V46.5V48ZM26 37.5C26 36.6716 25.3284 36 24.5 36C23.6716 36 23 36.6716 23 37.5H24.5H26ZM8.75 1.5V3H40.25V1.5V0H8.75V1.5ZM47 8.25H45.5V30.75H47H48.5V8.25H47ZM40.25 37.5V36H8.75V37.5V39H40.25V37.5ZM2 30.75H3.5V8.25H2H0.5V30.75H2ZM8.75 37.5V36C5.8505 36 3.5 33.6495 3.5 30.75H2H0.5C0.5 35.3063 4.19365 39 8.75 39V37.5ZM47 30.75H45.5C45.5 33.6495 43.1495 36 40.25 36V37.5V39C44.8064 39 48.5 35.3064 48.5 30.75H47ZM40.25 1.5V3C43.1495 3 45.5 5.35051 45.5 8.25H47H48.5C48.5 3.69365 44.8064 0 40.25 0V1.5ZM8.75 1.5V0C4.19365 0 0.5 3.69365 0.5 8.25H2H3.5C3.5 5.35051 5.85051 3 8.75 3V1.5ZM2 28.5V30H47V28.5V27H2V28.5ZM17.75 46.5V48H24.5V46.5V45H17.75V46.5ZM24.5 46.5V48H31.25V46.5V45H24.5V46.5ZM24.5 46.5H26V37.5H24.5H23V46.5H24.5Z" fill="#FF002A"/>
</svg>
