<svg width="54" height="49" viewBox="0 0 54 49" fill="none" xmlns="http://www.w3.org/2000/svg">
<path d="M32.3158 2H39.379C40.8974 2 42.3433 2.6575 43.352 3.80668L50.6573 12.1287C52.3526 14.06 52.4535 16.9387 50.8976 18.9869L31.2134 44.8991C29.0855 47.7003 24.9145 47.7003 22.7866 44.8991L3.10238 18.9869C1.54651 16.9387 1.6474 14.06 3.34273 12.1287L10.648 3.80668C11.6567 2.6575 13.1026 2 14.621 2H22.2748M32.3158 2L37.6316 15.4571M32.3158 2H22.2748M37.6316 15.4571H50.9211M37.6316 15.4571L27 46.4085L16.3684 15.4571M37.6316 15.4571H16.3684M22.2748 2L16.3684 15.4571M3.07891 15.4571H16.3684" stroke="#007AFF" stroke-width="3" stroke-linecap="round" stroke-linejoin="round"/>
</svg>
