<svg width="58" height="58" viewBox="0 0 58 58" fill="none" xmlns="http://www.w3.org/2000/svg">
<path d="M1.58325 14.3333V2.58325C1.58325 2.03097 2.03097 1.58325 2.58325 1.58325H14.3333C14.8855 1.58325 15.3333 2.03097 15.3333 2.58325V14.3333C15.3333 14.8855 14.8855 15.3333 14.3333 15.3333H2.58325C2.03097 15.3333 1.58325 14.8855 1.58325 14.3333Z" stroke="white" stroke-width="2" stroke-linecap="round" stroke-linejoin="round"/>
<path d="M42.8333 14.3333V2.58325C42.8333 2.03097 43.281 1.58325 43.8333 1.58325H55.5833C56.1355 1.58325 56.5833 2.03097 56.5833 2.58325V14.3333C56.5833 14.8855 56.1355 15.3333 55.5833 15.3333H43.8333C43.281 15.3333 42.8333 14.8855 42.8333 14.3333Z" stroke="white" stroke-width="2" stroke-linecap="round" stroke-linejoin="round"/>
<path d="M42.8333 55.5833V43.8333C42.8333 43.281 43.281 42.8333 43.8333 42.8333H55.5833C56.1355 42.8333 56.5833 43.281 56.5833 43.8333V55.5833C56.5833 56.1355 56.1355 56.5833 55.5833 56.5833H43.8333C43.281 56.5833 42.8333 56.1355 42.8333 55.5833Z" stroke="white" stroke-width="2" stroke-linecap="round" stroke-linejoin="round"/>
<path d="M1.58325 55.5833V43.8333C1.58325 43.281 2.03097 42.8333 2.58325 42.8333H14.3333C14.8855 42.8333 15.3333 43.281 15.3333 43.8333V55.5833C15.3333 56.1355 14.8855 56.5833 14.3333 56.5833H2.58325C2.03097 56.5833 1.58325 56.1355 1.58325 55.5833Z" stroke="white" stroke-width="2" stroke-linecap="round" stroke-linejoin="round"/>
<path d="M23.5835 31.8335H34.5835" stroke="white" stroke-width="2" stroke-linecap="round"/>
<path d="M20.8333 37.3333L29.0833 18.0833L37.3333 37.3333" stroke="white" stroke-width="2" stroke-linecap="round" stroke-linejoin="round"/>
<path d="M15.3333 8.45825H42.8333M49.7083 15.3333V42.8333M42.8333 49.7083H15.3333M8.45825 42.8333V15.3333" stroke="white" stroke-width="2" stroke-linecap="round" stroke-linejoin="round"/>
</svg>
