<svg width="45" height="46" viewBox="0 0 45 46" fill="none" xmlns="http://www.w3.org/2000/svg">
<path fill-rule="evenodd" clip-rule="evenodd" d="M36.8675 20.9249C36.8675 30.2073 29.3426 37.7321 20.0602 37.7321C10.7779 37.7321 3.25301 30.2073 3.25301 20.9249C3.25301 11.6425 10.7779 4.11764 20.0602 4.11764C29.3426 4.11764 36.8675 11.6425 36.8675 20.9249ZM20.0602 40.9851C31.1392 40.9851 40.1205 32.0038 40.1205 20.9249C40.1205 9.8459 31.1392 0.864624 20.0602 0.864624C8.98128 0.864624 0 9.8459 0 20.9249C0 32.0038 8.98128 40.9851 20.0602 40.9851ZM43.744 44.6104C42.0717 46.2826 39.3604 46.2826 37.6881 44.6104L33.6264 40.5487C35.9906 38.911 38.0445 36.857 39.6822 34.4928L43.744 38.5545C45.4163 40.2268 45.4163 42.9381 43.744 44.6104Z" fill="#007AFF"/>
</svg>
