<svg width="49" height="48" viewBox="0 0 49 48" fill="none" xmlns="http://www.w3.org/2000/svg">
<path d="M2 11.75V2.5C2 1.94772 2.44772 1.5 3 1.5H12.25C12.8023 1.5 13.25 1.94772 13.25 2.5V11.75C13.25 12.3023 12.8023 12.75 12.25 12.75H3C2.44772 12.75 2 12.3023 2 11.75Z" stroke="#FF002A" stroke-width="3" stroke-linecap="round" stroke-linejoin="round"/>
<path d="M35.75 11.75V2.5C35.75 1.94772 36.1977 1.5 36.75 1.5H46C46.5523 1.5 47 1.94772 47 2.5V11.75C47 12.3023 46.5523 12.75 46 12.75H36.75C36.1977 12.75 35.75 12.3023 35.75 11.75Z" stroke="#FF002A" stroke-width="3" stroke-linecap="round" stroke-linejoin="round"/>
<path d="M35.75 45.5V36.25C35.75 35.6977 36.1977 35.25 36.75 35.25H46C46.5523 35.25 47 35.6977 47 36.25V45.5C47 46.0523 46.5523 46.5 46 46.5H36.75C36.1977 46.5 35.75 46.0523 35.75 45.5Z" stroke="#FF002A" stroke-width="3" stroke-linecap="round" stroke-linejoin="round"/>
<path d="M2 45.5V36.25C2 35.6977 2.44772 35.25 3 35.25H12.25C12.8023 35.25 13.25 35.6977 13.25 36.25V45.5C13.25 46.0523 12.8023 46.5 12.25 46.5H3C2.44772 46.5 2 46.0523 2 45.5Z" stroke="#FF002A" stroke-width="3" stroke-linecap="round" stroke-linejoin="round"/>
<path d="M20 26.25H29" stroke="#FF002A" stroke-width="3" stroke-linecap="round"/>
<path d="M17.75 30.75L24.5 15L31.25 30.75" stroke="#FF002A" stroke-width="3" stroke-linecap="round" stroke-linejoin="round"/>
<path d="M13.25 7.125H35.75M41.375 12.75V35.25M35.75 40.875H13.25M7.625 35.25V12.75" stroke="#FF002A" stroke-width="3" stroke-linecap="round" stroke-linejoin="round"/>
</svg>
