<svg width="55" height="55" viewBox="0 0 55 55" fill="none" xmlns="http://www.w3.org/2000/svg">
<path fill-rule="evenodd" clip-rule="evenodd" d="M28.6189 14.6957L23.1189 31.1957C22.821 32.0964 23.3068 33.0703 24.2074 33.3705C25.1081 33.6684 26.082 33.1826 26.3822 32.282L31.8822 15.782C32.1802 14.8814 31.6943 13.9074 30.7937 13.6072C29.8931 13.3093 28.9191 13.7951 28.6189 14.6957Z" fill="white"/>
<path fill-rule="evenodd" clip-rule="evenodd" d="M33.3903 19.2023L37.6734 23.4877L33.3903 27.7731C32.7189 28.4423 32.7189 29.5331 33.3903 30.2023C34.0595 30.8738 35.1503 30.8738 35.8195 30.2023L41.3195 24.7023C41.9909 24.0308 41.9909 22.9446 41.3195 22.2731L35.8195 16.7731C35.1503 16.1017 34.0595 16.1017 33.3903 16.7731C32.7189 17.4423 32.7189 18.5331 33.3903 19.2023Z" fill="white"/>
<path fill-rule="evenodd" clip-rule="evenodd" d="M19.1813 16.7731L13.6813 22.2731C13.0099 22.9446 13.0099 24.0308 13.6813 24.7023L19.1813 30.2023C19.8505 30.8738 20.9413 30.8738 21.6105 30.2023C22.282 29.5331 22.282 28.4423 21.6105 27.7731L17.3274 23.4877L21.6105 19.2023C22.282 18.5331 22.282 17.4423 21.6105 16.7731C20.9413 16.1017 19.8505 16.1017 19.1813 16.7731Z" fill="white"/>
<path fill-rule="evenodd" clip-rule="evenodd" d="M52.1361 9.73828C52.1361 8.37016 51.5929 7.05932 50.6259 6.09224C49.6588 5.12516 48.3479 4.58203 46.9798 4.58203H8.02148C6.65336 4.58203 5.34253 5.12516 4.37544 6.09224C3.40836 7.05932 2.86523 8.37016 2.86523 9.73828V37.2383C2.86523 38.6064 3.40836 39.9172 4.37544 40.8843C5.34253 41.8514 6.65336 42.3945 8.02148 42.3945H46.9798C48.3479 42.3945 49.6588 41.8514 50.6259 40.8843C51.5929 39.9172 52.1361 38.6064 52.1361 37.2383V9.73828ZM48.6986 9.73828V37.2383C48.6986 37.6943 48.5175 38.132 48.1944 38.4529C47.8736 38.776 47.4359 38.957 46.9798 38.957H8.02148C7.56544 38.957 7.12773 38.776 6.8069 38.4529C6.48378 38.132 6.30273 37.6943 6.30273 37.2383V9.73828C6.30273 9.28224 6.48378 8.84453 6.8069 8.5237C7.12773 8.20057 7.56544 8.01953 8.02148 8.01953H46.9798C47.4359 8.01953 47.8736 8.20057 48.1944 8.5237C48.5175 8.84453 48.6986 9.28224 48.6986 9.73828Z" fill="white"/>
<path fill-rule="evenodd" clip-rule="evenodd" d="M25.7812 40.6758V48.6966C25.7812 49.6454 26.5513 50.4154 27.5 50.4154C28.4488 50.4154 29.2188 49.6454 29.2188 48.6966V40.6758C29.2188 39.727 28.4488 38.957 27.5 38.957C26.5513 38.957 25.7812 39.727 25.7812 40.6758Z" fill="white"/>
<path fill-rule="evenodd" clip-rule="evenodd" d="M17.1875 50.4141H37.8125C38.7613 50.4141 39.5313 49.6441 39.5313 48.6953C39.5313 47.7466 38.7613 46.9766 37.8125 46.9766H17.1875C16.2388 46.9766 15.4688 47.7466 15.4688 48.6953C15.4688 49.6441 16.2388 50.4141 17.1875 50.4141Z" fill="white"/>
</svg>
