<svg width="117" height="37" viewBox="0 0 117 37" fill="none" xmlns="http://www.w3.org/2000/svg">
<g opacity="0.84">
<path opacity="0.5" fill-rule="evenodd" clip-rule="evenodd" d="M26.5745 6.45464L19.1318 4.46036C18.618 4.32269 18.2014 4.6423 18.2014 5.17424V12.8795C18.2014 13.4115 18.618 13.9543 19.1318 14.092L26.5745 16.0863C27.0883 16.224 27.5049 15.9043 27.5049 15.3724V7.66709C27.5049 7.13515 27.0883 6.59232 26.5745 6.45464ZM19.1318 1.57087C17.0765 1.02017 15.4104 2.29862 15.4104 4.42638V12.1317C15.4104 14.2595 17.0765 16.4308 19.1318 16.9815L26.5745 18.9758C28.6298 19.5265 30.2959 18.248 30.2959 16.1203V8.41495C30.2959 6.28718 28.6298 4.11586 26.5745 3.56515L19.1318 1.57087Z" fill="#6D6D6D"/>
<path opacity="0.7" fill-rule="evenodd" clip-rule="evenodd" d="M20.7308 12.732L11.4273 10.2392C10.9135 10.1015 10.497 10.4211 10.497 10.953V20.5847C10.497 21.1166 10.9135 21.6595 11.4273 21.7971L20.7308 24.29C21.2446 24.4277 21.6611 24.108 21.6611 23.5761V13.9445C21.6611 13.4125 21.2446 12.8697 20.7308 12.732ZM11.4273 7.34968C9.37205 6.79897 7.70593 8.07743 7.70593 10.2052V19.8368C7.70593 21.9646 9.37205 24.1359 11.4273 24.6866L20.7308 27.1795C22.786 27.7302 24.4521 26.4517 24.4521 24.324V14.6923C24.4521 12.5646 22.786 10.3932 20.7308 9.84253L11.4273 7.34968Z" fill="#6D6D6D"/>
<path fill-rule="evenodd" clip-rule="evenodd" d="M14.8855 19.0094L3.72138 16.018C3.20756 15.8803 2.79103 16.1999 2.79103 16.7319V28.2898C2.79103 28.8218 3.20756 29.3646 3.72138 29.5023L14.8855 32.4937C15.3993 32.6314 15.8159 32.3118 15.8159 31.7798V20.2218C15.8159 19.6899 15.3993 19.1471 14.8855 19.0094ZM3.72138 13.1285C1.66612 12.5778 0 13.8562 0 15.984V27.542C0 29.6697 1.66612 31.8411 3.72138 32.3918L14.8855 35.3832C16.9408 35.9339 18.6069 34.6554 18.6069 32.5277V20.9697C18.6069 18.8419 16.9408 16.6706 14.8855 16.1199L3.72138 13.1285Z" fill="#6D6D6D"/>
</g>
<g opacity="0.84">
<path d="M41.2139 25.0542C42.0888 25.4558 43.0927 25.6566 44.2258 25.6566C45.3588 25.6566 46.3485 25.463 47.1947 25.0757C48.0552 24.6741 48.7221 24.1148 49.1954 23.3977C49.6687 22.6662 49.9054 21.8128 49.9054 20.8375V20.5794C49.9054 19.6758 49.6974 18.9444 49.2815 18.385C48.8655 17.8113 48.3349 17.3882 47.6895 17.1157C47.0584 16.8432 46.4058 16.7069 45.7317 16.7069H44.9357V16.3627L49.4751 13.9532V10.2959H38.8044V12.7484H46.4202V13.0927L41.5581 15.6743V18.6862H44.57C45.0576 18.6862 45.4951 18.7579 45.8823 18.9013C46.2696 19.0304 46.5779 19.2384 46.8074 19.5252C47.0369 19.8121 47.1516 20.185 47.1516 20.6439V20.8591C47.1516 21.5332 46.8935 22.0925 46.3771 22.5371C45.8752 22.9817 45.158 23.204 44.2258 23.204C43.3079 23.204 42.5692 22.9674 42.0099 22.4941C41.4505 22.0065 41.1709 21.361 41.1709 20.5579V20.2567H38.4171V20.6439C38.4171 21.6766 38.6609 22.573 39.1486 23.3331C39.6506 24.0789 40.339 24.6526 41.2139 25.0542Z" fill="#6D6D6D"/>
<path fill-rule="evenodd" clip-rule="evenodd" d="M59.8102 10.8768C59.0931 10.4895 58.2612 10.2959 57.3146 10.2959H51.1187V25.3554H53.9585V19.8479H57.3146C58.2325 19.8479 59.05 19.6615 59.7671 19.2886C60.4986 18.9013 61.0723 18.3635 61.4882 17.6751C61.9185 16.9723 62.1336 16.1548 62.1336 15.2225V14.9213C62.1336 13.9747 61.9257 13.1572 61.5097 12.4688C61.1082 11.7803 60.5416 11.2497 59.8102 10.8768ZM58.67 16.7069C58.254 17.0798 57.709 17.2663 57.0349 17.2663H53.9585V12.8775H57.0349C57.709 12.8775 58.254 13.064 58.67 13.4369C59.0859 13.8098 59.2938 14.3189 59.2938 14.9643V15.1795C59.2938 15.8249 59.0859 16.334 58.67 16.7069Z" fill="#6D6D6D"/>
<path fill-rule="evenodd" clip-rule="evenodd" d="M67.9379 25.6566C66.8766 25.6566 65.9228 25.4415 65.0766 25.0112C64.2304 24.5809 63.5635 23.957 63.0759 23.1395C62.5882 22.322 62.3444 21.3395 62.3444 20.1921V19.8479C62.3444 18.7005 62.5882 17.7181 63.0759 16.9006C63.5635 16.083 64.2304 15.4592 65.0766 15.0289C65.9228 14.5986 66.8766 14.3835 67.9379 14.3835C68.9993 14.3835 69.953 14.5986 70.7992 15.0289C71.6454 15.4592 72.3124 16.083 72.8 16.9006C73.2876 17.7181 73.5315 18.7005 73.5315 19.8479V20.1921C73.5315 21.3395 73.2876 22.322 72.8 23.1395C72.3124 23.957 71.6454 24.5809 70.7992 25.0112C69.953 25.4415 68.9993 25.6566 67.9379 25.6566ZM67.9379 23.2471C68.7698 23.2471 69.4582 22.9817 70.0032 22.4511C70.5483 21.9061 70.8208 21.1316 70.8208 20.1276V19.9125C70.8208 18.9085 70.5483 18.1412 70.0032 17.6105C69.4726 17.0655 68.7841 16.793 67.9379 16.793C67.1061 16.793 66.4176 17.0655 65.8726 17.6105C65.3276 18.1412 65.0551 18.9085 65.0551 19.9125V20.1276C65.0551 21.1316 65.3276 21.9061 65.8726 22.4511C66.4176 22.9817 67.1061 23.2471 67.9379 23.2471Z" fill="#6D6D6D"/>
<path d="M78.7873 14.9428C78.4288 15.1436 78.1706 15.4592 78.0128 15.8894H77.6256V14.6847H74.9579V25.3554H77.6686V19.2886C77.6686 18.5284 77.8909 17.9691 78.3355 17.6105C78.7802 17.2376 79.3467 17.0512 80.0351 17.0512H81.369V17.0496H84.1331V22.9459C84.1331 23.6773 84.3483 24.2654 84.7785 24.71C85.2231 25.1403 85.7968 25.3554 86.4996 25.3554H89.5115V23.118H87.4462C87.0446 23.118 86.8438 22.9029 86.8438 22.4726V17.0496H89.7697V14.6447H86.8438V11.3716H84.1331V14.6447H81.369V14.6416H80.0781C79.5905 14.6416 79.1602 14.742 78.7873 14.9428Z" fill="#6D6D6D"/>
<path fill-rule="evenodd" clip-rule="evenodd" d="M92.417 25.2693C93.0194 25.5275 93.7007 25.6566 94.4608 25.6566C95.2066 25.6566 95.7947 25.549 96.2249 25.3339C96.6552 25.1187 96.9707 24.8749 97.1715 24.6024C97.3723 24.3156 97.5014 24.0861 97.5588 23.914H97.9675V23.9355C97.9675 24.3658 98.1396 24.71 98.4838 24.9682C98.8281 25.2263 99.2655 25.3554 99.7962 25.3554H101.603V23.118H100.743C100.341 23.118 100.14 22.9029 100.14 22.4726V18.4926C100.14 17.1587 99.7316 16.1404 98.9141 15.4376C98.0966 14.7349 96.9851 14.3835 95.5795 14.3835C94.6616 14.3835 93.8799 14.5269 93.2345 14.8137C92.6035 15.0863 92.0943 15.452 91.7071 15.9109C91.3342 16.3556 91.0617 16.8504 90.8896 17.3954L93.3851 18.2344C93.4855 17.7468 93.7007 17.3524 94.0305 17.0512C94.3604 16.7356 94.8624 16.5779 95.5365 16.5779C96.2249 16.5779 96.7269 16.7428 97.0424 17.0727C97.358 17.3882 97.5157 17.797 97.5157 18.2989V18.9013H94.5899C93.7867 18.9013 93.0696 19.0304 92.4385 19.2886C91.8218 19.5324 91.3342 19.9053 90.9756 20.4073C90.6314 20.8949 90.4593 21.5045 90.4593 22.2359C90.4593 22.9674 90.6314 23.5913 90.9756 24.1076C91.3342 24.6096 91.8146 24.9968 92.417 25.2693ZM96.7843 22.8383C96.311 23.2542 95.6943 23.4622 94.9341 23.4622C94.3604 23.4622 93.923 23.3403 93.6218 23.0965C93.3206 22.8527 93.17 22.5371 93.17 22.1499C93.17 21.7626 93.3134 21.4614 93.6003 21.2463C93.8871 21.0312 94.2815 20.9236 94.7835 20.9236H97.5157V21.1387C97.5157 21.8415 97.2719 22.408 96.7843 22.8383Z" fill="#6D6D6D"/>
<path d="M108.16 24.753C109.049 25.3554 110.189 25.6566 111.58 25.6566C112.943 25.6566 114.026 25.3554 114.829 24.753C115.646 24.1363 116.055 23.2686 116.055 22.1499C116.055 21.4041 115.861 20.816 115.474 20.3858C115.101 19.9412 114.585 19.6041 113.925 19.3746C113.28 19.1308 112.556 18.9372 111.752 18.7938L111.15 18.6862C110.662 18.6001 110.275 18.4782 109.988 18.3205C109.701 18.1484 109.558 17.8902 109.558 17.546C109.558 17.2304 109.694 16.9866 109.967 16.8145C110.239 16.6281 110.634 16.5348 111.15 16.5348C111.666 16.5348 112.097 16.6496 112.441 16.8791C112.799 17.1085 113.036 17.4958 113.151 18.0408L115.668 17.2663C115.424 16.4058 114.908 15.7101 114.119 15.1795C113.33 14.6488 112.34 14.3835 111.15 14.3835C109.888 14.3835 108.87 14.6703 108.095 15.244C107.321 15.8034 106.933 16.6137 106.933 17.6751C106.933 18.3778 107.12 18.9515 107.493 19.3961C107.866 19.8408 108.36 20.1921 108.977 20.4503C109.594 20.6941 110.275 20.8877 111.021 21.0312L111.623 21.1387C112.254 21.2535 112.713 21.4041 113 21.5905C113.287 21.7626 113.43 22.0136 113.43 22.3435C113.43 22.6734 113.28 22.9531 112.979 23.1825C112.677 23.3977 112.211 23.5052 111.58 23.5052C111.164 23.5052 110.777 23.4479 110.418 23.3331C110.074 23.204 109.78 22.9961 109.536 22.7092C109.307 22.4224 109.142 22.028 109.042 21.526L106.546 22.1714C106.733 23.2901 107.27 24.1506 108.16 24.753Z" fill="#6D6D6D"/>
<path d="M102.51 25.3554V10.2959H105.22V25.3554H102.51Z" fill="#6D6D6D"/>
</g>
</svg>
