<svg width="115" height="37" viewBox="0 0 115 37" fill="none" xmlns="http://www.w3.org/2000/svg">
<g opacity="0.84">
<circle opacity="0.7" cx="10.7568" cy="13.83" r="10.7568" fill="white"/>
<circle opacity="0.7" cx="19.9769" cy="23.0502" r="10.7568" fill="white"/>
</g>
<g opacity="0.84">
<path d="M45.8854 25.6664C41.6949 25.6664 38.4171 22.2641 38.4171 17.8869C38.4171 13.5304 41.6949 10.1489 45.8854 10.1489C49.8062 10.1489 52.8765 12.7628 53.3952 16.5799H50.0552C49.7025 14.4432 48.0429 12.9703 45.9269 12.9703C43.3752 12.9703 41.6534 14.9826 41.6534 17.8869C41.6534 20.812 43.3752 22.845 45.9269 22.845C48.0429 22.845 49.6818 21.3513 50.0552 19.2146H53.3952C52.8765 23.0732 49.8062 25.6664 45.8854 25.6664Z" fill="white"/>
<path d="M61.1152 25.3552V23.986C60.3891 25.0233 59.2896 25.5626 57.7752 25.5626C55.4724 25.5626 53.9373 24.2142 53.9373 22.1397C53.9373 19.9822 55.6799 18.8204 58.9162 18.8204C59.5385 18.8204 60.0779 18.8619 60.7625 18.9449V18.2811C60.7625 17.0363 60.0571 16.3103 58.8539 16.3103C57.6092 16.3103 56.8624 17.0363 56.7587 18.2811H54.1655C54.3315 15.7294 56.1778 14.0698 58.8539 14.0698C61.7583 14.0698 63.4594 15.6672 63.4594 18.3848V25.3552H61.1152ZM56.6549 22.0567C56.6549 22.9902 57.3188 23.5711 58.3975 23.5711C59.8704 23.5711 60.7625 22.762 60.7625 21.4758V20.6875C60.0779 20.5838 59.6007 20.5423 59.1029 20.5423C57.464 20.5423 56.6549 21.0609 56.6549 22.0567Z" fill="white"/>
<path d="M76.1716 19.8162C76.1716 23.094 74.2423 25.5626 71.255 25.5626C69.9481 25.5626 68.8278 25.0025 67.998 23.9238V29.359H65.1144V14.2772H67.7698V15.8954C68.6204 14.7129 69.8444 14.0698 71.255 14.0698C74.2423 14.0698 76.1716 16.5592 76.1716 19.8162ZM73.2051 19.8162C73.2051 17.7417 72.0226 16.6214 70.6119 16.6214C69.2013 16.6214 68.0188 17.7209 68.0188 19.8162C68.0188 21.9115 69.2013 22.9902 70.6119 22.9902C72.0226 22.9902 73.2051 21.9322 73.2051 19.8162Z" fill="white"/>
<path d="M86.5457 21.8077C86.5457 24.1312 84.7824 25.5626 81.6291 25.5626C78.4758 25.5626 76.7125 24.0482 76.4843 21.5795H79.2434C79.2641 22.7205 80.2392 23.4466 81.6706 23.4466C82.7908 23.4466 83.6414 23.094 83.6414 22.3056C83.6414 21.6003 83.185 21.3099 82.127 21.1024L80.1354 20.729C78.1439 20.3763 76.9407 19.2768 76.9407 17.555C76.9407 15.5012 78.704 14.0698 81.4631 14.0698C84.243 14.0698 86.1516 15.5427 86.359 17.9284H83.5999C83.4962 16.8496 82.6871 16.1858 81.4631 16.1858C80.4051 16.1858 79.6998 16.5799 79.6998 17.2853C79.6998 17.9491 80.1562 18.2188 81.152 18.4055L83.2887 18.7997C85.4462 19.2146 86.5457 20.2104 86.5457 21.8077Z" fill="white"/>
<path d="M94.4268 20.6875V14.2772H97.2896V25.3552H94.655V23.903C94.0534 24.878 92.8294 25.5626 91.4187 25.5626C89.199 25.5626 87.5809 24.2142 87.5809 21.3306V14.2772H90.4645V20.7705C90.4645 22.3264 91.232 23.011 92.3938 23.011C93.431 23.011 94.4268 22.1812 94.4268 20.6875Z" fill="white"/>
<path d="M101.955 25.3552H99.0507V10.4601H101.955V25.3552Z" fill="white"/>
<path d="M108.524 25.5419C105.205 25.5419 102.985 23.2392 102.985 19.7747C102.985 16.4762 105.288 14.0698 108.483 14.0698C111.988 14.0698 114.312 16.9119 113.793 20.5215H105.931C106.118 22.3264 106.989 23.3221 108.462 23.3221C109.727 23.3221 110.578 22.6998 110.91 21.6003H113.773C113.15 24.1105 111.221 25.5419 108.524 25.5419ZM108.42 16.1858C107.072 16.1858 106.221 17.0571 105.972 18.696H110.744C110.661 17.1608 109.789 16.1858 108.42 16.1858Z" fill="white"/>
</g>
</svg>
