<svg width="164" height="37" viewBox="0 0 164 37" fill="none" xmlns="http://www.w3.org/2000/svg">
<g opacity="0.84">
<path opacity="0.5" fill-rule="evenodd" clip-rule="evenodd" d="M3.29704 21.9763C3.99402 22.6692 3.99401 23.7927 3.29702 24.4857L3.26132 24.5212C2.56433 25.2141 1.4343 25.2141 0.737325 24.5212C0.0403485 23.8282 0.0403592 22.7047 0.737349 22.0117L0.773044 21.9763C1.47003 21.2833 2.60007 21.2833 3.29704 21.9763Z" fill="#6D6D6D"/>
<path opacity="0.7" fill-rule="evenodd" clip-rule="evenodd" d="M11.6874 22.5108C12.3832 23.205 12.3811 24.3285 11.6829 25.0202L6.73915 29.9176C6.04091 30.6093 4.91088 30.6073 4.21516 29.9131C3.51944 29.2189 3.52148 28.0954 4.21972 27.4037L9.16345 22.5062C9.86169 21.8145 10.9917 21.8165 11.6874 22.5108Z" fill="#6D6D6D"/>
<path opacity="0.5" fill-rule="evenodd" clip-rule="evenodd" d="M18.3962 30.9417C18.943 30.1263 20.0511 29.906 20.8712 30.4496L20.9783 30.5205C21.7985 31.0642 22.0201 32.1658 21.4733 32.9812C20.9266 33.7966 19.8185 34.017 18.9983 33.4734L18.8912 33.4024C18.0711 32.8588 17.8495 31.7571 18.3962 30.9417Z" fill="#6D6D6D"/>
<path opacity="0.7" fill-rule="evenodd" clip-rule="evenodd" d="M30.1749 21.8703C30.8719 22.5633 30.8719 23.6868 30.1749 24.3797L27.7477 26.793C27.0507 27.4859 25.9206 27.4859 25.2237 26.793C24.5267 26.1 24.5267 24.9765 25.2237 24.2835L27.6509 21.8703C28.3479 21.1773 29.4779 21.1773 30.1749 21.8703Z" fill="#6D6D6D"/>
<path fill-rule="evenodd" clip-rule="evenodd" d="M30.211 12.9445C30.908 13.6375 30.908 14.761 30.211 15.454L12.2744 33.287C11.5774 33.98 10.4474 33.98 9.7504 33.287C9.05342 32.594 9.05342 31.4705 9.7504 30.7776L27.687 12.9445C28.384 12.2516 29.514 12.2516 30.211 12.9445Z" fill="#6D6D6D"/>
<path fill-rule="evenodd" clip-rule="evenodd" d="M26.8191 7.46161C27.516 8.15457 27.516 9.27808 26.8191 9.97104L16.5033 20.2273C15.8063 20.9202 14.6763 20.9202 13.9793 20.2273C13.2823 19.5343 13.2823 18.4108 13.9793 17.7178L24.2951 7.46161C24.992 6.76865 26.1221 6.76866 26.8191 7.46161Z" fill="#6D6D6D"/>
<path fill-rule="evenodd" clip-rule="evenodd" d="M21.3742 3.98274C22.0717 4.67524 22.0724 5.79874 21.3759 6.49217L8.11533 19.6939C7.41882 20.3874 6.28879 20.3881 5.59134 19.6956C4.89388 19.0031 4.89312 17.8796 5.58964 17.1862L18.8502 3.98443C19.5467 3.29101 20.6768 3.29025 21.3742 3.98274Z" fill="#6D6D6D"/>
<path opacity="0.7" fill-rule="evenodd" clip-rule="evenodd" d="M8.24249 8.20889C8.93827 8.90304 8.93633 10.0266 8.23815 10.7183L3.04456 15.8642C2.34638 16.5559 1.21635 16.554 0.520567 15.8599C-0.175215 15.1657 -0.17327 14.0422 0.524911 13.3504L5.7185 8.20457C6.41668 7.51281 7.54671 7.51474 8.24249 8.20889Z" fill="#6D6D6D"/>
<path opacity="0.5" fill-rule="evenodd" clip-rule="evenodd" d="M11.4235 3.07373C12.4092 3.07373 13.2083 3.86817 13.2083 4.84816V5.02561C13.2083 6.0056 12.4092 6.80004 11.4235 6.80004C10.4378 6.80004 9.63879 6.0056 9.63879 5.02561V4.84816C9.63879 3.86817 10.4378 3.07373 11.4235 3.07373Z" fill="#6D6D6D"/>
</g>
<g opacity="0.84">
<path d="M50.9057 18.2602C51.4244 18.9655 51.6941 19.8368 51.6941 20.8326C51.6941 21.7039 51.4659 22.4715 51.0302 23.156C50.5738 23.8614 49.9722 24.4008 49.1839 24.7742C48.3956 25.1683 47.5035 25.355 46.5078 25.355H38.4171V8.96631H45.9684C47.5243 8.96631 48.7482 9.36047 49.661 10.1488C50.5531 10.9371 51.0095 11.9744 51.0095 13.2813C51.0095 14.1526 50.802 14.9202 50.3871 15.5425C49.9722 16.1649 49.3913 16.6213 48.6653 16.8702C49.6195 17.0777 50.3664 17.5548 50.9057 18.2602ZM41.6534 15.7085H44.9104C45.8647 15.7085 46.57 15.584 47.0264 15.2936C47.4828 15.0032 47.711 14.5675 47.711 13.9659C47.711 13.3436 47.462 12.8664 46.9849 12.5552C46.5078 12.2648 45.7817 12.0988 44.8066 12.0988H41.6534V15.7085ZM47.628 21.7454C48.1051 21.4342 48.3541 20.9571 48.3541 20.2932C48.3541 19.6916 48.1051 19.2352 47.6487 18.9448C47.1923 18.6543 46.4663 18.5091 45.4912 18.5091H41.6534V22.2225H45.4083C46.404 22.2225 47.1301 22.0773 47.628 21.7454Z" fill="#6D6D6D"/>
<path d="M53.4023 12.7004C53.0289 12.327 52.8422 11.8706 52.8422 11.2898C52.8422 10.7504 53.0289 10.294 53.4023 9.92059C53.7757 9.56792 54.2321 9.38121 54.813 9.38121C55.3731 9.38121 55.8295 9.56792 56.2029 9.92059C56.5763 10.294 56.763 10.7504 56.763 11.2898C56.763 11.8499 56.5763 12.3063 56.2029 12.6797C55.8295 13.0531 55.3731 13.2398 54.813 13.2398C54.2321 13.2398 53.7757 13.0739 53.4023 12.7004ZM53.2571 14.5675H56.3481V25.355H53.2571V14.5675Z" fill="#6D6D6D"/>
<path d="M60.3789 24.9609C59.5076 24.463 58.823 23.7784 58.3458 22.9071C57.8479 22.0358 57.6197 21.0608 57.6197 19.9405C57.6197 18.841 57.8479 17.866 58.3458 16.9947C58.823 16.1234 59.5076 15.4596 60.3789 14.9617C61.2502 14.4845 62.2459 14.2356 63.3662 14.2356C64.4864 14.2356 65.4822 14.4845 66.3535 14.9617C67.2248 15.4596 67.8886 16.1234 68.3865 16.9947C68.8844 17.866 69.1333 18.841 69.1333 19.9405C69.1333 21.0608 68.8844 22.0358 68.3865 22.9071C67.8886 23.7784 67.204 24.463 66.3327 24.9609C65.4614 25.4588 64.4657 25.687 63.3662 25.687C62.2459 25.687 61.2502 25.4588 60.3789 24.9609ZM65.2955 22.1603C65.7934 21.5794 66.0423 20.8533 66.0423 19.9405C66.0423 19.0485 65.7934 18.3224 65.2955 17.7415C64.7976 17.1814 64.1545 16.891 63.3662 16.891C62.5779 16.891 61.9555 17.1814 61.4576 17.7415C60.9597 18.3224 60.7108 19.0485 60.7108 19.9405C60.7108 20.8533 60.9597 21.5794 61.4576 22.1603C61.9555 22.7411 62.5779 23.0316 63.3662 23.0316C64.1545 23.0316 64.7976 22.7411 65.2955 22.1603Z" fill="#6D6D6D"/>
<path d="M71.4456 24.6912C70.5121 24.0273 70.035 23.0938 70.0142 21.9113H73.0638C73.0638 22.43 73.292 22.8241 73.7069 23.1146C74.1218 23.405 74.6611 23.5502 75.325 23.5502C75.8851 23.5502 76.3415 23.4465 76.6734 23.1975C77.0054 22.9486 77.1921 22.6582 77.1921 22.3262C77.1921 21.9321 76.9846 21.6624 76.5697 21.4964C76.1548 21.3512 75.5324 21.206 74.6611 21.0815C73.7483 20.9571 73.0015 20.8118 72.4207 20.6459C71.8398 20.4799 71.3212 20.1687 70.9063 19.7123C70.4913 19.2559 70.2839 18.6128 70.2839 17.783C70.2839 16.7043 70.7195 15.833 71.6323 15.1899C72.5451 14.5675 73.7898 14.2356 75.3665 14.2356C76.7979 14.2356 77.9389 14.5883 78.8102 15.2729C79.6815 15.9575 80.1586 16.891 80.2623 18.0735H77.2335C77.1921 17.5548 77.0053 17.1399 76.6527 16.8288C76.2793 16.5383 75.8021 16.3724 75.1798 16.3724C74.5989 16.3724 74.1633 16.4968 73.8521 16.725C73.5201 16.974 73.3749 17.2851 73.3749 17.6586C73.3749 18.032 73.5616 18.3017 73.9558 18.4469C74.35 18.6128 74.9723 18.7373 75.8021 18.8203C76.7149 18.9448 77.4825 19.1107 78.0841 19.2767C78.665 19.4426 79.1836 19.7746 79.6192 20.231C80.0342 20.6874 80.2623 21.3512 80.2623 22.2225C80.2623 23.3013 79.806 24.1311 78.9139 24.7534C78.0219 25.3758 76.7979 25.687 75.242 25.687C73.6239 25.687 72.3584 25.355 71.4456 24.6912Z" fill="#6D6D6D"/>
<path d="M81.0866 26.7865H82.1447C82.8085 26.8072 83.3479 26.7242 83.7628 26.5375C84.1569 26.3508 84.5304 26.0189 84.883 25.521L80.0079 14.5675H83.2441L86.4804 21.7661L89.1773 14.5675H92.3928L87.9948 26.1434C87.4554 27.4088 86.7501 28.2801 85.858 28.778C84.966 29.2759 83.825 29.5041 82.4143 29.5041H81.0866V26.7865Z" fill="#6D6D6D"/>
<path d="M92.9085 14.5675H95.9788V16.1234C96.3522 15.5425 96.8294 15.0654 97.4517 14.7335C98.0741 14.4016 98.8002 14.2356 99.63 14.2356C102.285 14.2356 103.634 15.916 103.634 19.2559V25.355H100.522V19.4219C100.522 18.6336 100.335 18.032 99.9619 17.5756C99.5885 17.1192 99.0698 16.891 98.406 16.891C97.6592 16.891 97.0576 17.1607 96.6219 17.7001C96.1863 18.2394 95.9788 18.9448 95.9788 19.8368V25.355H92.9085V14.5675Z" fill="#6D6D6D"/>
<path d="M109.75 25.438C108.92 25.438 108.277 25.355 107.82 25.1891C107.343 25.0231 106.991 24.7327 106.783 24.297C106.555 23.8614 106.451 23.239 106.472 22.4507V17.3681H104.169L104.364 14.5675H106.472V11.6632H109.542V14.5675H112.364L112.17 17.3681H109.542V20.8741C109.542 21.4134 109.563 21.7869 109.605 22.0151C109.646 22.264 109.77 22.43 109.936 22.5337C110.102 22.6374 110.372 22.6789 110.766 22.6789C111.057 22.6789 111.885 22.6582 112.362 22.6167L112.17 25.3343C111.237 25.4173 110.268 25.438 109.75 25.438Z" fill="#6D6D6D"/>
<path d="M113.524 8.96631H116.594V16.1027C116.968 15.5218 117.445 15.0654 118.067 14.7335C118.69 14.4016 119.416 14.2356 120.246 14.2356C122.901 14.2356 124.249 15.916 124.249 19.2352V25.355H121.138V19.3804C121.138 18.5921 120.951 17.9905 120.577 17.5548C120.204 17.1192 119.685 16.891 119.022 16.891C118.275 16.891 117.673 17.1607 117.237 17.6793C116.802 18.2187 116.594 18.924 116.594 19.7953V25.355H113.524V8.96631Z" fill="#6D6D6D"/>
<path d="M128.12 24.9609C127.249 24.463 126.585 23.7784 126.108 22.9071C125.631 22.0358 125.402 21.0608 125.402 19.9405C125.402 18.841 125.631 17.866 126.108 16.9947C126.585 16.1234 127.249 15.4596 128.12 14.9617C128.971 14.4845 129.946 14.2356 131.045 14.2356C131.999 14.2356 132.85 14.4845 133.617 14.9409C134.385 15.3973 134.987 16.0612 135.443 16.9117C135.879 17.783 136.107 18.7581 136.107 19.8783V20.8741H128.535C128.597 21.6002 128.846 22.1603 129.261 22.5752C129.676 22.9901 130.277 23.1768 131.066 23.1768C131.584 23.1768 132.02 23.0523 132.352 22.8034C132.684 22.5544 132.891 22.2433 132.974 21.8491H136.045C135.879 23.0108 135.319 23.9444 134.406 24.6497C133.493 25.355 132.373 25.687 131.045 25.687C129.946 25.687 128.971 25.4588 128.12 24.9609ZM133.016 18.9863C132.974 18.3639 132.788 17.866 132.414 17.4719C132.041 17.0984 131.543 16.891 130.921 16.891C130.215 16.891 129.676 17.0777 129.282 17.4511C128.888 17.8245 128.639 18.3432 128.556 18.9863H133.016Z" fill="#6D6D6D"/>
<path d="M138.418 24.6912C137.484 24.0273 137.007 23.0938 136.986 21.9113H140.036C140.036 22.43 140.264 22.8241 140.679 23.1146C141.094 23.405 141.633 23.5502 142.297 23.5502C142.857 23.5502 143.314 23.4465 143.646 23.1975C143.978 22.9486 144.164 22.6582 144.164 22.3262C144.164 21.9321 143.957 21.6624 143.542 21.4964C143.127 21.3512 142.505 21.206 141.633 21.0815C140.721 20.9571 139.974 20.8118 139.393 20.6459C138.812 20.4799 138.293 20.1687 137.879 19.7123C137.464 19.2559 137.256 18.6128 137.256 17.783C137.256 16.7043 137.692 15.833 138.605 15.1899C139.517 14.5675 140.762 14.2356 142.339 14.2356C143.77 14.2356 144.911 14.5883 145.782 15.2729C146.654 15.9575 147.131 16.891 147.235 18.0735H144.206C144.164 17.5548 143.978 17.1399 143.625 16.8288C143.252 16.5383 142.774 16.3724 142.152 16.3724C141.571 16.3724 141.136 16.4968 140.824 16.725C140.492 16.974 140.347 17.2851 140.347 17.6586C140.347 18.032 140.534 18.3017 140.928 18.4469C141.322 18.6128 141.945 18.7373 142.774 18.8203C143.687 18.9448 144.455 19.1107 145.056 19.2767C145.637 19.4426 146.156 19.7746 146.591 20.231C147.006 20.6874 147.235 21.3512 147.235 22.2225C147.235 23.3013 146.778 24.1311 145.886 24.7534C144.994 25.3758 143.77 25.687 142.214 25.687C140.596 25.687 139.331 25.355 138.418 24.6912Z" fill="#6D6D6D"/>
<path d="M148.644 12.7004C148.271 12.327 148.084 11.8706 148.084 11.2898C148.084 10.7504 148.271 10.294 148.644 9.92059C149.017 9.56792 149.474 9.38121 150.055 9.38121C150.615 9.38121 151.071 9.56792 151.445 9.92059C151.818 10.294 152.005 10.7504 152.005 11.2898C152.005 11.8499 151.818 12.3063 151.445 12.6797C151.071 13.0531 150.615 13.2398 150.055 13.2398C149.474 13.2398 149.017 13.0739 148.644 12.7004ZM148.499 14.5675H151.59V25.355H148.499V14.5675Z" fill="#6D6D6D"/>
<path d="M161.678 24.6912C162.612 24.0273 163.089 23.0938 163.11 21.9113H160.06C160.06 22.43 159.832 22.8241 159.417 23.1146C159.002 23.405 158.463 23.5502 157.799 23.5502C157.239 23.5502 156.782 23.4465 156.45 23.1975C156.118 22.9486 155.932 22.6582 155.932 22.3262C155.932 21.9321 156.139 21.6624 156.554 21.4964C156.969 21.3512 157.591 21.206 158.463 21.0815C159.375 20.9571 160.122 20.8118 160.703 20.6459C161.284 20.4799 161.803 20.1687 162.218 19.7123C162.632 19.2559 162.84 18.6128 162.84 17.783C162.84 16.7043 162.404 15.833 161.491 15.1899C160.579 14.5675 159.334 14.2356 157.757 14.2356C156.326 14.2356 155.185 14.5883 154.314 15.2729C153.442 15.9575 152.965 16.891 152.861 18.0735H155.89C155.932 17.5548 156.118 17.1399 156.471 16.8288C156.844 16.5383 157.322 16.3724 157.944 16.3724C158.525 16.3724 158.961 16.4968 159.272 16.725C159.604 16.974 159.749 17.2851 159.749 17.6586C159.749 18.032 159.562 18.3017 159.168 18.4469C158.774 18.6128 158.151 18.7373 157.322 18.8203C156.409 18.9448 155.641 19.1107 155.04 19.2767C154.459 19.4427 153.94 19.7746 153.505 20.231C153.09 20.6874 152.861 21.3512 152.861 22.2225C152.861 23.3013 153.318 24.1311 154.21 24.7534C155.102 25.3758 156.326 25.687 157.882 25.687C159.5 25.687 160.765 25.355 161.678 24.6912Z" fill="#6D6D6D"/>
</g>
</svg>
