<svg width="145" height="37" viewBox="0 0 145 37" fill="none" xmlns="http://www.w3.org/2000/svg">
<g opacity="0.84">
<path d="M19.1859 5.40385C16.7855 3.0034 12.8936 3.0034 10.4931 5.40385L1.80034 14.0966C-0.600112 16.4971 -0.600112 20.389 1.80034 22.7894L10.4931 31.4822C12.8936 33.8827 16.7855 33.8827 19.1859 31.4822L23.3337 27.3345C19.8808 26.0024 17.4312 22.6519 17.4312 18.7293C17.4312 14.6504 20.0799 11.1901 23.7511 9.97458C23.6793 9.89911 23.6064 9.82433 23.5323 9.75025L19.1859 5.40385Z" fill="white"/>
<path opacity="0.7" d="M23.3339 27.3377C24.3632 27.7347 25.4817 27.9524 26.6511 27.9524C31.7432 27.9524 35.8712 23.8244 35.8712 18.7323C35.8712 13.6402 31.7432 9.51221 26.6511 9.51221C25.638 9.51221 24.6632 9.67559 23.7514 9.97743C28.3325 14.7935 28.2596 22.412 23.5327 27.1388L23.3339 27.3377Z" fill="white"/>
</g>
<g opacity="0.84">
<path d="M53.482 25.3555L52.3617 22.1608H46.5738L45.4328 25.3555H42.2588L47.86 10.4604H51.3037L56.8634 25.3555H53.482ZM49.4989 13.9042L47.4658 19.6506H51.4904L49.4989 13.9042Z" fill="white"/>
<path d="M60.5036 25.3555H57.5992V10.4604H60.5036V25.3555Z" fill="white"/>
<path d="M73.3168 19.8165C73.3168 23.0943 71.3875 25.563 68.4002 25.563C67.0933 25.563 65.973 25.0029 65.1432 23.9241V29.3594H62.2596V14.2776H64.915V15.8957C65.7656 14.7132 66.9895 14.0701 68.4002 14.0701C71.3875 14.0701 73.3168 16.5595 73.3168 19.8165ZM70.3503 19.8165C70.3503 17.742 69.1678 16.6218 67.7571 16.6218C66.3464 16.6218 65.164 17.7213 65.164 19.8165C65.164 21.9118 66.3464 22.9906 67.7571 22.9906C69.1678 22.9906 70.3503 21.9326 70.3503 19.8165Z" fill="white"/>
<path d="M77.2184 19.3187V25.3555H74.3348V10.4604H77.2184V15.7297C77.986 14.7132 78.9402 14.0701 80.3924 14.0701C82.6122 14.0701 84.1473 15.5223 84.1473 18.1984V25.3555H81.2845V19.1734C81.2845 17.5346 80.6414 16.6218 79.3344 16.6218C78.1934 16.6218 77.2184 17.5346 77.2184 19.3187Z" fill="white"/>
<path d="M92.3992 25.3555V23.9863C91.6731 25.0236 90.5736 25.563 89.0592 25.563C86.7565 25.563 85.2214 24.2145 85.2214 22.14C85.2214 19.9825 86.964 18.8208 90.2002 18.8208C90.8226 18.8208 91.3619 18.8623 92.0465 18.9452V18.2814C92.0465 17.0367 91.3412 16.3106 90.138 16.3106C88.8933 16.3106 88.1464 17.0367 88.0427 18.2814H85.4495C85.6155 15.7297 87.4618 14.0701 90.138 14.0701C93.0423 14.0701 94.7434 15.6675 94.7434 18.3851V25.3555H92.3992ZM87.939 22.057C87.939 22.9906 88.6028 23.5714 89.6816 23.5714C91.1545 23.5714 92.0465 22.7624 92.0465 21.4762V20.6878C91.3619 20.5841 90.8848 20.5426 90.3869 20.5426C88.748 20.5426 87.939 21.0613 87.939 22.057Z" fill="white"/>
<path d="M106.92 25.3555L104.141 14.9414L101.361 25.3555H98.1659L94.3488 10.4604H97.4191L99.8255 20.5634L102.564 10.4604H105.779L108.435 20.6049L110.862 10.4604H113.953L110.115 25.3555H106.92Z" fill="white"/>
<path d="M120.419 25.3555V23.9863C119.693 25.0236 118.593 25.563 117.079 25.563C114.776 25.563 113.241 24.2145 113.241 22.14C113.241 19.9825 114.984 18.8208 118.22 18.8208C118.842 18.8208 119.382 18.8623 120.066 18.9452V18.2814C120.066 17.0367 119.361 16.3106 118.158 16.3106C116.913 16.3106 116.166 17.0367 116.063 18.2814H113.469C113.635 15.7297 115.482 14.0701 118.158 14.0701C121.062 14.0701 122.763 15.6675 122.763 18.3851V25.3555H120.419ZM115.959 22.057C115.959 22.9906 116.623 23.5714 117.701 23.5714C119.174 23.5714 120.066 22.7624 120.066 21.4762V20.6878C119.382 20.5841 118.905 20.5426 118.407 20.5426C116.768 20.5426 115.959 21.0613 115.959 22.057Z" fill="white"/>
<path d="M134.012 14.2776L129.946 25.3555H126.793L122.706 14.2776H125.817L128.452 22.0778L131.108 14.2776H134.012Z" fill="white"/>
<path d="M138.875 25.5422C135.556 25.5422 133.336 23.2395 133.336 19.7751C133.336 16.4766 135.639 14.0701 138.834 14.0701C142.34 14.0701 144.663 16.9122 144.145 20.5219H136.282C136.469 22.3267 137.34 23.3225 138.813 23.3225C140.079 23.3225 140.929 22.7001 141.261 21.6006H144.124C143.502 24.1108 141.572 25.5422 138.875 25.5422ZM138.772 16.1861C137.423 16.1861 136.573 17.0574 136.324 18.6963H141.095C141.012 17.1612 140.141 16.1861 138.772 16.1861Z" fill="white"/>
</g>
</svg>
