<svg width="145" height="37" viewBox="0 0 145 37" fill="none" xmlns="http://www.w3.org/2000/svg">
<g opacity="0.84">
<path d="M0 12.2153L13.3273 12.2153L0.218352 25.3242L2.33619 27.4421L15.4451 14.3331V27.6604H15.53L18.4402 24.7502V12.4845L15.1759 9.22021L2.90859 9.22022L4.08403e-08 12.1288L0 12.2153Z" fill="white"/>
</g>
<g opacity="0.84">
<path d="M36.3119 19.6416H38.8489V21.9989H36.3119V25.355H33.4951V21.9989H26.1237V19.9413L33.7548 10.8917H36.3119V19.6416ZM29.7195 19.6416H33.4951V15.0269L29.7195 19.6416Z" fill="white"/>
<path d="M45.9247 15.5264C46.9102 15.5264 47.7892 15.7195 48.5616 16.1057C49.3474 16.4919 49.96 17.0646 50.3995 17.8237C50.8523 18.5828 51.0787 19.4951 51.0787 20.5605C51.0787 22.1454 50.5793 23.3839 49.5804 24.2762C48.5816 25.1552 47.1765 25.5947 45.3653 25.5947C44.1134 25.5947 43.0613 25.3883 42.209 24.9754C41.3699 24.5626 40.7307 24.0165 40.2912 23.3373C39.865 22.6581 39.6186 21.9123 39.552 21.0999H42.4287C42.8549 22.6448 43.8271 23.4172 45.3453 23.4172C46.2776 23.4172 46.9834 23.1575 47.4629 22.6381C47.9556 22.1187 48.202 21.4196 48.202 20.5406C48.202 19.6483 47.9556 18.9557 47.4629 18.463C46.9701 17.9569 46.2709 17.7039 45.3653 17.7039C44.1667 17.7039 43.2478 18.2033 42.6085 19.2021L40.0115 18.9424L40.9904 10.8917H50.2397V13.249H43.3277L42.8882 16.5652C43.6073 15.8726 44.6195 15.5264 45.9247 15.5264Z" fill="white"/>
<path d="M62.1668 10.8917C64.1778 10.8917 65.9957 11.3712 67.6205 12.3301C69.2586 13.2756 70.0776 15.2067 70.0776 18.1234C70.0776 21.04 69.2586 22.9777 67.6205 23.9366C65.9957 24.8822 64.1778 25.355 62.1668 25.355H57.2924V10.8917H62.1668ZM62.0669 22.8379C62.9859 22.8246 63.8049 22.7181 64.5241 22.5183C65.2566 22.3052 65.8758 21.8524 66.3819 21.1599C66.9013 20.4673 67.161 19.4552 67.161 18.1234C67.161 16.7916 66.9013 15.7794 66.3819 15.0869C65.8758 14.3943 65.2566 13.9415 64.5241 13.7285C63.8049 13.5154 62.9859 13.4088 62.0669 13.4088H60.1092V22.8379H62.0669Z" fill="white"/>
<path d="M76.6872 14.3677C77.8458 14.3677 78.838 14.6274 79.6637 15.1468C80.5028 15.6529 81.1221 16.3787 81.5216 17.3243C81.9345 18.2699 82.1076 19.3819 82.041 20.6604H73.9703C74.0636 21.5661 74.3499 22.2519 74.8293 22.7181C75.3088 23.1842 75.9347 23.4172 76.7072 23.4172C77.3864 23.4172 77.9324 23.2508 78.3453 22.9178C78.7714 22.5849 79.0578 22.1654 79.2043 21.6593H81.9811C81.7413 22.9112 81.1487 23.8834 80.2031 24.5759C79.2709 25.2551 78.1055 25.5947 76.7072 25.5947C75.5618 25.5947 74.5696 25.3617 73.7306 24.8955C72.8916 24.4294 72.2523 23.7768 71.8128 22.9378C71.3733 22.0855 71.1536 21.0999 71.1536 19.9812C71.1536 18.8758 71.38 17.897 71.8328 17.0446C72.2856 16.1923 72.9315 15.533 73.7706 15.0669C74.6096 14.6008 75.5818 14.3677 76.6872 14.3677ZM79.2642 18.9025C79.1843 18.1833 78.9246 17.604 78.4851 17.1645C78.0589 16.725 77.453 16.5052 76.6672 16.5052C75.948 16.5052 75.3621 16.705 74.9092 17.1045C74.4564 17.5041 74.1568 18.1034 74.0103 18.9025H79.2642Z" fill="white"/>
<path d="M93.7563 14.6074V24.9155C93.7563 26.3139 93.3102 27.4393 92.4179 28.2916C91.5256 29.1573 90.2204 29.5901 88.5024 29.5901C87.0108 29.5901 85.8255 29.2572 84.9465 28.5913C84.0676 27.9387 83.5482 27.0597 83.3883 25.9543H86.1252C86.4448 26.9398 87.2372 27.4326 88.5024 27.4326C89.3814 27.4326 90.0207 27.2129 90.4202 26.7734C90.8197 26.3472 91.0195 25.7146 91.0195 24.8756V23.4372C90.2737 24.5826 89.1483 25.1552 87.6434 25.1552C86.6978 25.1552 85.8655 24.9421 85.1463 24.516C84.4405 24.0765 83.8878 23.4505 83.4882 22.6381C83.102 21.8258 82.9089 20.8669 82.9089 19.7615C82.9089 18.6561 83.102 17.6972 83.4882 16.8848C83.8878 16.0724 84.4405 15.4531 85.1463 15.0269C85.8655 14.5875 86.6978 14.3677 87.6434 14.3677C89.1617 14.3677 90.287 14.9404 91.0195 16.0857V14.6074H93.7563ZM88.3826 22.9977C89.2749 22.9977 89.9607 22.6981 90.4402 22.0988C90.9196 21.4995 91.1594 20.7204 91.1594 19.7615C91.1594 18.8026 90.9196 18.0235 90.4402 17.4242C89.9607 16.8249 89.2749 16.5252 88.3826 16.5252C87.4769 16.5252 86.7977 16.8315 86.3449 17.4442C85.9054 18.0435 85.6857 18.8159 85.6857 19.7615C85.6857 20.707 85.9054 21.4861 86.3449 22.0988C86.7977 22.6981 87.4769 22.9977 88.3826 22.9977Z" fill="white"/>
<path d="M101.225 14.4876C101.452 14.4876 101.678 14.5076 101.905 14.5475V17.2843C101.665 17.2444 101.412 17.2244 101.145 17.2244C100.306 17.2244 99.6805 17.4242 99.2676 17.8237C98.8548 18.2099 98.5951 18.6694 98.4885 19.2021C98.382 19.7215 98.3287 20.3275 98.3287 21.02V25.355H95.5919V14.6074H98.2888V16.4453C98.8747 15.1402 99.8536 14.4876 101.225 14.4876Z" fill="white"/>
<path d="M108.029 14.3677C109.188 14.3677 110.18 14.6274 111.006 15.1468C111.845 15.6529 112.464 16.3787 112.863 17.3243C113.276 18.2699 113.449 19.3819 113.383 20.6604H105.312C105.405 21.5661 105.692 22.2519 106.171 22.7181C106.651 23.1842 107.277 23.4172 108.049 23.4172C108.728 23.4172 109.274 23.2508 109.687 22.9178C110.113 22.5849 110.4 22.1654 110.546 21.6593H113.323C113.083 22.9112 112.491 23.8834 111.545 24.5759C110.613 25.2551 109.447 25.5947 108.049 25.5947C106.904 25.5947 105.912 25.3617 105.072 24.8955C104.233 24.4294 103.594 23.7768 103.155 22.9378C102.715 22.0855 102.495 21.0999 102.495 19.9812C102.495 18.8758 102.722 17.897 103.175 17.0446C103.627 16.1923 104.273 15.533 105.112 15.0669C105.951 14.6008 106.924 14.3677 108.029 14.3677ZM110.606 18.9025C110.526 18.1833 110.266 17.604 109.827 17.1645C109.401 16.725 108.795 16.5052 108.009 16.5052C107.29 16.5052 106.704 16.705 106.251 17.1045C105.798 17.5041 105.499 18.1034 105.352 18.9025H110.606Z" fill="white"/>
<path d="M119.744 14.3677C120.903 14.3677 121.895 14.6274 122.721 15.1468C123.56 15.6529 124.179 16.3787 124.579 17.3243C124.992 18.2699 125.165 19.3819 125.098 20.6604H117.028C117.121 21.5661 117.407 22.2519 117.887 22.7181C118.366 23.1842 118.992 23.4172 119.764 23.4172C120.444 23.4172 120.99 23.2508 121.402 22.9178C121.829 22.5849 122.115 22.1654 122.261 21.6593H125.038C124.799 22.9112 124.206 23.8834 123.26 24.5759C122.328 25.2551 121.163 25.5947 119.764 25.5947C118.619 25.5947 117.627 25.3617 116.788 24.8955C115.949 24.4294 115.31 23.7768 114.87 22.9378C114.431 22.0855 114.211 21.0999 114.211 19.9812C114.211 18.8758 114.437 17.897 114.89 17.0446C115.343 16.1923 115.989 15.533 116.828 15.0669C117.667 14.6008 118.639 14.3677 119.744 14.3677ZM122.321 18.9025C122.242 18.1833 121.982 17.604 121.542 17.1645C121.116 16.725 120.51 16.5052 119.724 16.5052C119.005 16.5052 118.419 16.705 117.966 17.1045C117.514 17.5041 117.214 18.1034 117.067 18.9025H122.321Z" fill="white"/>
<path d="M131.076 25.5947C129.451 25.5947 128.193 25.2351 127.3 24.516C126.408 23.7968 125.902 22.8912 125.782 21.7991H128.519C128.879 22.9445 129.751 23.5171 131.136 23.5171C131.775 23.5171 132.275 23.4039 132.634 23.1775C132.994 22.9378 133.174 22.6315 133.174 22.2586C133.174 21.859 132.974 21.5794 132.574 21.4196C132.188 21.2464 131.522 21.0733 130.577 20.9002C129.698 20.7537 128.945 20.5805 128.319 20.3808C127.693 20.1677 127.154 19.8347 126.701 19.3819C126.248 18.9291 126.022 18.3231 126.022 17.564C126.022 16.4853 126.475 15.6862 127.38 15.1668C128.286 14.6341 129.391 14.3677 130.696 14.3677C132.135 14.3677 133.28 14.6807 134.132 15.3066C134.998 15.9326 135.511 16.7716 135.671 17.8237H132.934C132.774 17.3842 132.514 17.0446 132.155 16.8049C131.808 16.5652 131.302 16.4453 130.636 16.4453C130.064 16.4453 129.604 16.5385 129.258 16.725C128.925 16.9114 128.759 17.1645 128.759 17.4841C128.759 17.7638 128.892 17.9968 129.158 18.1833C129.438 18.3564 129.744 18.483 130.077 18.5629C130.41 18.6428 130.983 18.7626 131.795 18.9224C133.233 19.1888 134.279 19.5417 134.932 19.9812C135.584 20.4207 135.91 21.0866 135.91 21.9789C135.91 23.071 135.491 23.95 134.652 24.6159C133.813 25.2684 132.621 25.5947 131.076 25.5947Z" fill="white"/>
<path d="M140.621 17.3243C140.022 17.3243 139.462 17.1911 138.943 16.9248C138.437 16.6451 138.031 16.2522 137.724 15.7461C137.431 15.24 137.285 14.654 137.285 13.9882C137.285 13.3223 137.431 12.7363 137.724 12.2302C138.031 11.7241 138.437 11.3379 138.943 11.0715C139.462 10.7918 140.022 10.652 140.621 10.652C141.22 10.652 141.773 10.7918 142.279 11.0715C142.799 11.3379 143.211 11.7308 143.518 12.2502C143.824 12.7562 143.977 13.3356 143.977 13.9882C143.977 14.6407 143.824 15.2267 143.518 15.7461C143.211 16.2522 142.799 16.6451 142.279 16.9248C141.773 17.1911 141.22 17.3243 140.621 17.3243ZM140.621 15.6462C141.074 15.6462 141.433 15.4997 141.7 15.2067C141.979 14.9004 142.119 14.4942 142.119 13.9882C142.119 13.4821 141.979 13.0825 141.7 12.7895C141.433 12.4965 141.074 12.35 140.621 12.35C140.182 12.35 139.822 12.4965 139.542 12.7895C139.276 13.0825 139.143 13.4821 139.143 13.9882C139.143 14.4942 139.276 14.9004 139.542 15.2067C139.822 15.4997 140.182 15.6462 140.621 15.6462Z" fill="white"/>
<path fill-rule="evenodd" clip-rule="evenodd" d="M140.633 12.5006C139.808 12.5006 139.139 13.1697 139.139 13.9951C139.139 14.8204 139.808 15.4895 140.633 15.4895C141.459 15.4895 142.128 14.8204 142.128 13.9951C142.128 13.1697 141.459 12.5006 140.633 12.5006ZM140.633 17.3412C142.481 17.3412 143.979 15.8431 143.979 13.9951C143.979 12.147 142.481 10.6489 140.633 10.6489C138.785 10.6489 137.287 12.147 137.287 13.9951C137.287 15.8431 138.785 17.3412 140.633 17.3412Z" fill="white"/>
</g>
</svg>
