<svg width="147" height="37" viewBox="0 0 147 37" fill="none" xmlns="http://www.w3.org/2000/svg">
<g opacity="0.84">
<path fill-rule="evenodd" clip-rule="evenodd" d="M26.6163 10.7568V16.9414H18.9562V15.1798L26.6163 10.7568Z" fill="white"/>
<path opacity="0.9" fill-rule="evenodd" clip-rule="evenodd" d="M26.6147 10.7568L18.9546 15.1797L13.3063 11.9191V3.07324L26.6147 10.7568Z" fill="white"/>
<path opacity="0.8" fill-rule="evenodd" clip-rule="evenodd" d="M13.3081 3.07324V11.9191L7.6615 15.1797L0.00134277 10.7568L13.3081 3.07324Z" fill="white"/>
<path opacity="0.7" fill-rule="evenodd" clip-rule="evenodd" d="M7.66016 15.1798V21.7006L0 26.1232V10.7568L7.66016 15.1798Z" fill="white"/>
<path opacity="0.6" fill-rule="evenodd" clip-rule="evenodd" d="M13.3067 24.9608V33.8067L0 26.1228L7.66016 21.7002L13.3067 24.9608Z" fill="white"/>
<path opacity="0.5" fill-rule="evenodd" clip-rule="evenodd" d="M26.6147 26.1228L13.3063 33.8067V24.9608L18.9546 21.7002L26.6147 26.1228Z" fill="white"/>
<path opacity="0.4" fill-rule="evenodd" clip-rule="evenodd" d="M26.6163 19.939V26.1232L18.9562 21.7006V19.939H26.6163Z" fill="white"/>
</g>
<g opacity="0.84">
<path d="M47.5191 20.0654C46.9174 23.6129 44.6355 25.6874 41.1088 25.6874C36.7523 25.6874 34.0139 22.3682 34.0139 18.0117C34.0139 13.6344 36.7523 10.2944 41.1088 10.2944C44.511 10.2944 46.8137 12.286 47.4568 15.6882L44.1583 15.8334C43.8057 14.0078 42.6854 12.9706 41.0465 12.9706C38.4534 12.9706 37.2709 15.1488 37.2709 18.0117C37.2709 20.8538 38.4741 23.0113 41.0465 23.0113C42.7477 23.0113 43.8886 21.891 44.1998 19.9202L47.5191 20.0654Z" fill="white"/>
<path d="M48.4218 17.7627C48.8575 15.4185 50.6623 14.1116 53.5459 14.1116C56.8859 14.1116 58.6077 15.7504 58.6077 18.9037V22.3474C58.6077 23.0735 58.8981 23.2187 59.2923 23.2187H59.7072V25.3555L59.1471 25.3762C58.421 25.397 56.2842 25.6044 55.9731 23.6959C55.4544 24.8161 54.189 25.6044 52.1974 25.6044C49.9777 25.6044 48.2558 24.4012 48.2558 22.4719C48.2558 20.4181 49.7702 19.6505 52.4256 19.1112L55.4544 18.5095C55.4337 16.9122 54.8113 16.1653 53.5459 16.1653C52.4879 16.1653 51.824 16.7462 51.5751 17.9287L48.4218 17.7627ZM51.4714 22.3474C51.4714 23.032 52.0522 23.5714 53.1725 23.5714C54.5209 23.5714 55.4959 22.5549 55.4959 20.5841V20.4596L53.6703 20.7915C52.4049 21.0405 51.4714 21.2272 51.4714 22.3474Z" fill="white"/>
<path d="M60.8096 10.6264H63.9629V22.1607C63.9629 22.7001 64.2533 23.0113 64.7927 23.0113H65.581V25.3555H63.8799C62.0543 25.3555 60.8096 24.256 60.8096 22.2852V10.6264Z" fill="white"/>
<path d="M66.0854 19.858C66.0854 16.3728 68.3259 14.1116 71.7281 14.1116C74.7569 14.1116 77.1219 16.2068 77.1011 20.0862V20.667H69.3631C69.4461 22.3059 70.3174 23.2809 71.7281 23.2809C72.6409 23.2809 73.45 22.7623 73.8026 21.9118L76.9559 22.14C76.292 24.2767 74.2383 25.6044 71.7281 25.6044C68.3259 25.6044 66.0854 23.3432 66.0854 19.858ZM69.3839 18.7792H73.9271C73.7611 17.1196 72.8068 16.435 71.7281 16.435C70.4004 16.435 69.5498 17.3271 69.3839 18.7792Z" fill="white"/>
<path d="M85.0123 17.9287C84.8464 16.9122 83.9751 16.2898 83.0208 16.2898C82.0873 16.2898 81.3612 16.7877 81.4027 17.576C81.4442 18.3851 82.3777 18.7377 83.415 18.9037C86.6512 19.4223 88.2486 20.2729 88.2486 22.3474C88.2486 24.5464 86.1741 25.6044 83.3527 25.6044C80.1372 25.6044 78.0834 24.2145 77.9175 21.8703L81.0707 21.7043C81.2575 22.7623 82.025 23.4054 83.2905 23.4054C84.0788 23.4054 85.0331 23.0735 85.0331 22.2852C85.0123 21.3516 83.9543 21.1857 82.8963 20.9575C79.8675 20.3766 78.1664 19.6298 78.1664 17.5968C78.1664 15.3978 80.0127 14.0908 83.1453 14.0908C85.9251 14.0908 87.7922 15.5015 88.1656 17.8042L85.0123 17.9287Z" fill="white"/>
<path d="M96.8609 18.5718C96.6742 17.2441 95.8029 16.518 94.7034 16.518C93.1475 16.518 92.2762 17.742 92.2762 19.858C92.2762 21.974 93.1475 23.198 94.7034 23.198C95.8652 23.198 96.7157 22.4719 96.9024 21.0405L100.139 21.1649C99.8483 23.9033 97.6285 25.6044 94.7034 25.6044C91.3012 25.6044 89.0607 23.3432 89.0607 19.858C89.0607 16.3728 91.3012 14.1116 94.7034 14.1116C97.5455 14.1116 99.786 15.7504 100.076 18.4266L96.8609 18.5718Z" fill="white"/>
<path d="M100.71 19.858C100.71 16.3728 102.951 14.1116 106.353 14.1116C109.382 14.1116 111.747 16.2068 111.726 20.0862V20.667H103.988C104.071 22.3059 104.943 23.2809 106.353 23.2809C107.266 23.2809 108.075 22.7623 108.428 21.9118L111.581 22.14C110.917 24.2767 108.863 25.6044 106.353 25.6044C102.951 25.6044 100.71 23.3432 100.71 19.858ZM104.009 18.7792H108.552C108.386 17.1196 107.432 16.435 106.353 16.435C105.025 16.435 104.175 17.3271 104.009 18.7792Z" fill="white"/>
<path d="M112.9 14.3605H115.721L115.804 16.1238C116.406 14.6717 117.63 14.1116 119.082 14.1116C121.488 14.1116 122.878 15.7297 122.878 18.2813V25.3555H119.746V19.3186C119.746 17.576 119.351 16.601 118.065 16.601C116.737 16.601 116.053 17.576 116.053 19.3186V25.3555H112.9V14.3605Z" fill="white"/>
<path d="M131.749 18.5718C131.563 17.2441 130.691 16.518 129.592 16.518C128.036 16.518 127.165 17.742 127.165 19.858C127.165 21.974 128.036 23.198 129.592 23.198C130.754 23.198 131.604 22.4719 131.791 21.0405L135.027 21.1649C134.737 23.9033 132.517 25.6044 129.592 25.6044C126.19 25.6044 123.949 23.3432 123.949 19.858C123.949 16.3728 126.19 14.1116 129.592 14.1116C132.434 14.1116 134.674 15.7504 134.965 18.4266L131.749 18.5718Z" fill="white"/>
<path d="M135.599 19.858C135.599 16.3728 137.839 14.1116 141.242 14.1116C144.27 14.1116 146.635 16.2068 146.615 20.0862V20.667H138.877C138.96 22.3059 139.831 23.2809 141.242 23.2809C142.154 23.2809 142.963 22.7623 143.316 21.9118L146.469 22.14C145.806 24.2767 143.752 25.6044 141.242 25.6044C137.839 25.6044 135.599 23.3432 135.599 19.858ZM138.897 18.7792H143.441C143.275 17.1196 142.32 16.435 141.242 16.435C139.914 16.435 139.063 17.3271 138.897 18.7792Z" fill="white"/>
</g>
</svg>
