<svg width="118" height="37" viewBox="0 0 118 37" fill="none" xmlns="http://www.w3.org/2000/svg">
<g opacity="0.84">
<path d="M18.0205 26.6757C15.5759 25.7677 13.0613 25.628 10.7563 26.2566C9.14983 26.6757 7.61318 27.5139 6.21622 28.5616L5.23833 29.3998L4.95894 29.6792L5.58757 30.238C5.65741 30.238 5.65742 30.3078 5.72727 30.3777C5.86697 30.5174 6.00667 30.5872 6.21622 30.7269L6.63529 31.0063L7.05438 30.6571C7.12423 30.5872 7.26392 30.4475 7.40362 30.3777C8.66089 29.33 10.0578 28.6315 11.5247 28.2822C13.4105 27.7933 15.4361 27.8631 17.4617 28.6315C19.1381 29.2601 22.5607 30.0284 26.6817 28.2822L26.8214 28.2124L27.0309 28.0028C27.0309 27.933 27.1008 27.933 27.1706 27.8631C27.5199 27.444 27.8691 27.025 28.1485 26.536L29.5455 24.3707L27.3103 25.628C24.0275 27.444 21.024 27.7933 18.0205 26.6757Z" fill="#6D6D6D"/>
<path d="M8.45162 19.1323C10.3375 18.6434 12.3631 18.7133 14.3887 19.4816C16.6238 20.3198 22.3514 21.5072 28.7774 15.7098L30.1744 14.3128L30.0347 13.9636C29.9648 13.6842 29.8251 13.335 29.6854 12.9857L29.3362 12.0078L28.6377 12.7063C28.5679 12.846 28.4282 12.9159 28.2885 13.0556C25.2151 16.1987 20.4655 19.4117 15.0173 17.456C12.5726 16.548 10.0581 16.4083 7.75314 17.0369C5.518 17.6655 3.56225 18.853 1.7462 20.5293V20.4595L0.698481 21.577C0.698481 21.6469 0.628646 21.6469 0.558798 21.7167L0.349241 21.9263L0.419093 22.2057C0.488941 22.5549 0.628633 22.9041 0.698481 23.2534L1.11757 24.371L1.81605 23.4629C1.8859 23.3232 2.02559 23.2534 2.09544 23.1137C3.56225 21.7866 5.58785 19.9007 8.45162 19.1323Z" fill="#6D6D6D"/>
<path d="M1.67637 17.8749C3.28288 16.1986 5.09891 15.1508 7.05466 14.5921C8.94055 14.1031 10.9661 14.173 12.9917 14.9413C19.2781 17.2463 24.7262 13.4745 27.1011 11.4489L28.0091 10.5409L28.3583 10.2615L28.0789 9.84239C27.8694 9.63285 27.7297 9.35345 27.5201 9.07406L27.1011 8.51526L26.6121 9.00421C26.5423 9.07405 26.4026 9.21375 26.3327 9.28359C23.3991 12.0775 18.859 14.9413 13.6902 12.9856C11.2455 12.0775 8.73101 11.9378 6.42603 12.5665C4.95922 12.9855 3.56225 13.684 2.16529 14.5921L0.69848 15.7795C0.558784 15.9192 0.488936 15.989 0.34924 16.1287L0.209557 16.2684V16.478C0.139709 16.9669 0.1397 17.4558 0.0698523 17.8749L0 19.6211L1.18743 18.3638C1.32712 18.2241 1.46683 18.0146 1.67637 17.8749Z" fill="#6D6D6D"/>
<path d="M20.0467 31.4255C19.8371 31.3556 19.6974 31.2858 19.4879 31.2159C17.0432 30.3079 14.5287 30.1682 12.2237 30.7968C11.7347 30.9365 11.2458 31.0762 10.7569 31.2858L9.0805 32.0541L8.66143 32.2636L10.0584 32.7526C10.4775 32.8923 10.8966 33.032 11.3156 33.1717L11.5252 33.2415L11.7347 33.1717C11.9443 33.1018 12.1538 32.9621 12.3634 32.9621C12.5031 32.9621 12.6428 32.8923 12.7825 32.8224C14.4588 32.4033 16.2749 32.4033 18.2306 33.032C18.4401 33.1018 18.5799 33.1717 18.7894 33.2415L19.1386 33.3812L19.3482 33.3113C19.8371 33.1716 20.3959 33.032 20.815 32.8224L22.7707 32.1239L20.7451 31.635C20.5356 31.5651 20.2562 31.4953 20.0467 31.4255Z" fill="#6D6D6D"/>
<path d="M30.7337 16.9669L29.6859 18.0147C29.5463 18.1544 29.4066 18.2941 29.2669 18.4338C26.4031 21.1578 21.7931 24.0914 16.6244 22.1357C14.1797 21.2277 11.6652 21.088 9.36019 21.7166C7.1949 22.3453 5.23914 23.4628 3.49294 25.1392L2.58492 26.117L2.30553 26.4663L2.58492 26.8854C2.79446 27.1648 2.93417 27.3743 3.07386 27.6537L3.49294 28.2823L3.98188 27.6537C4.05173 27.5839 4.19142 27.4441 4.26127 27.3743C5.93762 25.5583 7.75367 24.4407 9.84911 23.8819C11.735 23.393 13.7606 23.4628 15.7862 24.2311C17.5324 24.8598 19.3485 25.0693 21.1645 24.8598C24.3775 24.5105 27.5905 22.6945 29.9654 20.6689C30.1051 20.5292 30.2447 20.4594 30.3844 20.3197L30.594 20.1101V19.9006C30.594 19.4815 30.6638 18.9925 30.6638 18.5735L30.7337 16.9669Z" fill="#6D6D6D"/>
<path d="M4.19033 10.5411C4.60942 10.3315 5.09837 10.1918 5.51746 10.0521C7.40336 9.56318 9.42895 9.63303 11.4545 10.4014C12.7817 10.8903 14.1088 11.0998 15.5756 11.0998C18.5092 11.0998 21.4428 10.0521 24.1669 8.02653L25.5638 6.90896L24.9352 6.42001C24.7257 6.21047 24.4463 6.00093 24.1669 5.86124L23.7478 5.58185L23.3985 5.86124C23.2588 5.93108 23.189 6.07078 23.0493 6.14062C19.3474 8.93455 15.6454 9.70288 12.153 8.37577C9.63849 7.46775 7.12395 7.2582 4.60942 8.02653C4.39988 8.09638 4.19033 8.16622 3.91094 8.23607L3.77126 8.30592L3.5617 8.51545C3.5617 8.5853 3.49187 8.58531 3.42202 8.65516C3.14263 9.07425 2.79337 9.4235 2.51398 9.84258L1.18687 11.8682L3.35216 10.7506C3.70141 10.7506 3.98078 10.6109 4.19033 10.5411Z" fill="#6D6D6D"/>
<path d="M9.91843 5.79128L10.128 5.86113C11.036 6.21037 12.433 6.55961 14.1792 6.55961C15.9952 6.55961 17.7414 6.14052 19.4876 5.44204L21.6529 4.39432L20.1861 3.90539C19.767 3.7657 19.3479 3.626 18.859 3.55615H18.6494L18.4399 3.62598C18.2304 3.69583 18.0208 3.83554 17.8113 3.90539C15.7158 4.67372 13.6204 4.81342 11.5948 4.25463C11.3852 4.18478 11.1757 4.11492 10.9662 4.04508L10.7566 3.97522L10.5471 4.04508C10.128 4.18477 9.70889 4.32448 9.2898 4.53402L7.68329 5.2325L9.35966 5.72142C9.49935 5.65158 9.70889 5.72143 9.91843 5.79128Z" fill="#6D6D6D"/>
</g>
<g opacity="0.84">
<path d="M101.996 10.7301C101.678 10.412 101.277 10.2529 100.793 10.2529C100.309 10.2529 99.9006 10.412 99.5687 10.7301C99.2506 11.0343 99.0916 11.4216 99.0916 11.8918C99.0916 12.362 99.2506 12.7562 99.5687 13.0743C99.9006 13.3924 100.309 13.5514 100.793 13.5514C101.277 13.5514 101.678 13.3924 101.996 13.0743C102.314 12.7562 102.473 12.362 102.473 11.8918C102.473 11.4216 102.314 11.0343 101.996 10.7301Z" fill="#6D6D6D"/>
<path d="M78.5155 22.3681C77.99 21.9256 77.6996 21.3447 77.6442 20.6255L74.5947 20.5841C74.6085 21.5107 74.8713 22.3474 75.383 23.0942C75.8947 23.8411 76.6001 24.4288 77.499 24.8576C78.4118 25.2725 79.4491 25.4799 80.6108 25.4799C81.6896 25.4799 82.6577 25.2794 83.5151 24.8783C84.3864 24.4772 85.0641 23.931 85.5482 23.2394C86.0322 22.5341 86.2743 21.7389 86.2743 20.8537C86.2743 19.941 86.0668 19.2149 85.6519 18.6755C85.2508 18.1223 84.7184 17.7143 84.0545 17.4515C83.3907 17.1749 82.5747 16.9467 81.6066 16.7669C80.6523 16.5871 79.947 16.435 79.4906 16.3105C79.0342 16.1722 78.6815 15.9994 78.4326 15.7919C78.1836 15.5706 78.0591 15.2664 78.0591 14.8791C78.0591 14.3397 78.2666 13.9248 78.6815 13.6344C79.0964 13.344 79.6496 13.1988 80.3411 13.1988C81.0879 13.1988 81.6896 13.3924 82.146 13.7796C82.6023 14.153 82.8651 14.6509 82.9343 15.2733H85.9838C85.97 14.402 85.7141 13.6206 85.2163 12.9291C84.7322 12.2376 84.0614 11.6982 83.204 11.3109C82.3603 10.9099 81.406 10.7093 80.3411 10.7093C79.3039 10.7093 78.3703 10.9029 77.5405 11.2902C76.7245 11.6636 76.0814 12.1822 75.6112 12.8461C75.1548 13.5099 74.9266 14.2637 74.9266 15.1073C74.9266 16.0339 75.1272 16.7808 75.5282 17.3478C75.9431 17.901 76.4756 18.3228 77.1256 18.6133C77.7756 18.8899 78.5778 19.1181 79.5321 19.2978C80.5002 19.4915 81.2124 19.6574 81.6688 19.7957C82.139 19.9202 82.4986 20.1 82.7476 20.3351C83.0103 20.5564 83.1417 20.8607 83.1417 21.2479C83.1417 21.8011 82.9066 22.2368 82.4364 22.5549C81.98 22.8591 81.3853 23.0112 80.6523 23.0112C79.7672 23.0112 79.0549 22.7969 78.5155 22.3681Z" fill="#6D6D6D"/>
<path fill-rule="evenodd" clip-rule="evenodd" d="M43.7279 10.8338L38.4171 25.3555H41.6326L42.7529 22.1814H48.2711L49.3913 25.3555H52.7313L47.462 10.8338H43.7279ZM43.5827 19.6713L45.4912 14.153L47.4205 19.6713H43.5827Z" fill="#6D6D6D"/>
<path d="M93.5766 14.5679C94.8351 14.5679 95.8655 14.9552 96.6676 15.7297C97.4836 16.5042 97.8916 17.7834 97.8916 19.5675V25.3555H94.9665V19.692C94.9665 18.8069 94.7867 18.1361 94.4271 17.6797C94.0675 17.2095 93.5282 16.9744 92.809 16.9744C92.0622 16.9744 91.4744 17.2302 91.0457 17.742C90.6308 18.2537 90.4233 18.9659 90.4233 19.8787V25.3555H87.4982V10.8338H90.4233V15.9994C91.2116 15.0451 92.2627 14.5679 93.5766 14.5679Z" fill="#6D6D6D"/>
<path d="M107.478 14.1945C107.478 13.8903 107.547 13.669 107.685 13.5307C107.824 13.3924 108.045 13.3232 108.349 13.3232H110.154V10.8338H107.768C106.703 10.8338 105.901 11.0897 105.362 11.6014C104.823 12.0993 104.553 12.8184 104.553 13.7589V14.6924H102.79V17.1611H104.553V25.3555H107.478V17.1611H112.1V25.3555H115.025V17.1611H117.328V14.6924H115.025V10.8338H112.1V14.6924H107.478V14.1945Z" fill="#6D6D6D"/>
<path d="M102.245 14.6924H99.3198V25.3555H102.245V14.6924Z" fill="#6D6D6D"/>
<path d="M56.346 10.8338H53.4209V25.3555H56.346V10.8338Z" fill="#6D6D6D"/>
<path d="M58.6541 14.6924H56.8907V17.1611H58.6541V25.3555H61.5792V17.1611H63.8819V14.6924H61.5792V10.8338H58.6541V14.6924Z" fill="#6D6D6D"/>
<path d="M67.6731 24.0278H70.3285V20.7915H73.5636V18.1361H70.3285V14.8999L70.3274 14.8998H67.672V18.1361H64.4357V20.7915H67.672V24.0277L67.6731 24.0278Z" fill="#6D6D6D"/>
</g>
</svg>
