<svg width="152" height="37" viewBox="0 0 152 37" fill="none" xmlns="http://www.w3.org/2000/svg">
<g opacity="0.84">
<path fill-rule="evenodd" clip-rule="evenodd" d="M0 18.4402C11.7209 18.4402 18.4402 11.7209 18.4402 0C18.4402 11.7209 25.1595 18.4402 36.8804 18.4402C25.1595 18.4402 18.4402 25.1595 18.4402 36.8804C18.4402 25.1595 11.7209 18.4402 0 18.4402Z" fill="white"/>
</g>
<g opacity="0.84">
<path d="M41.4905 25.3554L46.5316 10.2321H51.0955L56.1366 25.3554H52.7759L51.7594 22.2436H45.8677L44.8512 25.3554H41.4905ZM46.6146 19.7749H51.0125L49.7263 15.9163L48.8758 13.1572H48.7513L47.9008 15.9163L46.6146 19.7749Z" fill="white"/>
<path d="M61.7621 25.5421C60.6557 25.5421 59.6876 25.307 58.8578 24.8368C58.028 24.3527 57.3849 23.6819 56.9285 22.8245C56.4721 21.9532 56.2439 20.9436 56.2439 19.7957C56.2439 18.6339 56.4721 17.6243 56.9285 16.7669C57.3987 15.8956 58.0557 15.2248 58.8993 14.7546C59.7429 14.2705 60.7318 14.0285 61.8659 14.0285C62.8201 14.0285 63.6707 14.2083 64.4175 14.5679C65.1644 14.9275 65.7521 15.4253 66.1809 16.0615C66.6234 16.6977 66.8655 17.4376 66.9069 18.2813H63.9196C63.8228 17.7004 63.5808 17.2648 63.1936 16.9743C62.8063 16.6701 62.3361 16.5179 61.7829 16.5179C60.9807 16.5179 60.3722 16.8153 59.9573 17.41C59.5424 18.0047 59.3349 18.7999 59.3349 19.7957C59.3349 20.8882 59.5562 21.7042 59.9988 22.2436C60.4552 22.783 61.043 23.0527 61.7621 23.0527C62.4121 23.0527 62.9239 22.8867 63.2973 22.5548C63.6845 22.2229 63.9058 21.7872 63.9611 21.2478H66.9277C66.8862 22.1191 66.6373 22.8798 66.1809 23.5298C65.7383 24.166 65.1367 24.6639 64.376 25.0235C63.6154 25.3692 62.7441 25.5421 61.7621 25.5421Z" fill="white"/>
<path d="M68.3849 25.3554V14.2359H71.3307L71.4344 16.2482H71.5589C71.8355 15.5152 72.285 14.962 72.9073 14.5886C73.5297 14.2152 74.2143 14.0285 74.9611 14.0285C75.7356 14.0285 76.4409 14.2152 77.0771 14.5886C77.7133 14.962 78.1835 15.6051 78.4878 16.5179H78.6538C78.9165 15.6881 79.3799 15.0658 80.0437 14.6509C80.7214 14.2359 81.482 14.0285 82.3257 14.0285C83.0448 14.0285 83.688 14.1806 84.255 14.4849C84.822 14.7892 85.2715 15.2801 85.6034 15.9578C85.9492 16.6216 86.1221 17.5137 86.1221 18.6339V25.3554H83.0725V19.2978C83.0725 18.3573 82.9135 17.6589 82.5954 17.2025C82.2911 16.7461 81.7932 16.5179 81.1017 16.5179C80.3687 16.5179 79.7948 16.7876 79.3799 17.327C78.9788 17.8525 78.7782 18.468 78.7782 19.1733V25.3554H75.7287V19.2978C75.7287 18.3573 75.5696 17.6589 75.2516 17.2025C74.9473 16.7461 74.4494 16.5179 73.7579 16.5179C73.0111 16.5179 72.4371 16.7876 72.036 17.327C71.635 17.8525 71.4344 18.468 71.4344 19.1733V25.3554H68.3849Z" fill="white"/>
<path d="M93.0839 25.5421C91.9221 25.5421 90.9264 25.307 90.0966 24.8368C89.2806 24.3665 88.6513 23.7096 88.2087 22.866C87.7662 22.0085 87.5449 21.0127 87.5449 19.8786C87.5449 18.6754 87.7662 17.6382 88.2087 16.7669C88.6651 15.8956 89.3013 15.2248 90.1173 14.7546C90.9333 14.2705 91.8876 14.0285 92.9801 14.0285C94.2663 14.0285 95.3244 14.312 96.1542 14.879C96.984 15.4323 97.5787 16.1998 97.9383 17.1818C98.2978 18.1499 98.4154 19.2494 98.2909 20.4803H90.5529C90.5391 21.3654 90.7673 22.05 91.2375 22.534C91.7078 23.0043 92.3232 23.2394 93.0839 23.2394C93.6647 23.2394 94.1557 23.1149 94.5568 22.866C94.9717 22.6032 95.2345 22.2574 95.3451 21.8287H98.2287C98.1319 22.5755 97.8484 23.2255 97.3781 23.7788C96.9217 24.332 96.327 24.7676 95.594 25.0857C94.861 25.39 94.0243 25.5421 93.0839 25.5421ZM92.9801 16.3312C92.2886 16.3312 91.7285 16.5318 91.2998 16.9328C90.871 17.3201 90.629 17.8525 90.5737 18.5302H95.3036C95.2621 17.7834 95.0201 17.2302 94.5775 16.8706C94.1488 16.511 93.6163 16.3312 92.9801 16.3312Z" fill="white"/>
<path d="M110.882 25.5421C109.374 25.5421 108.046 25.2378 106.899 24.6293C105.764 24.0208 104.879 23.1356 104.243 21.9739C103.607 20.8122 103.289 19.4153 103.289 17.7834C103.289 16.1514 103.607 14.7615 104.243 13.6136C104.879 12.4519 105.764 11.5667 106.899 10.9582C108.046 10.3497 109.374 10.0454 110.882 10.0454C112.182 10.0454 113.337 10.2736 114.346 10.73C115.356 11.1726 116.172 11.8018 116.794 12.6178C117.416 13.42 117.797 14.3604 117.935 15.4392H114.657C114.477 14.6647 114.049 14.0354 113.371 13.5514C112.707 13.0535 111.877 12.8045 110.882 12.8045C109.582 12.8045 108.544 13.2194 107.77 14.0492C107.009 14.879 106.629 16.1238 106.629 17.7834C106.629 19.4568 107.009 20.7085 107.77 21.5383C108.544 22.3681 109.582 22.783 110.882 22.783C111.85 22.783 112.68 22.541 113.371 22.0569C114.063 21.5728 114.491 20.9297 114.657 20.1276H117.935C117.811 21.2063 117.43 22.1537 116.794 22.9697C116.158 23.7857 115.328 24.4219 114.305 24.8782C113.295 25.3208 112.154 25.5421 110.882 25.5421Z" fill="white"/>
<path d="M124.558 25.5421C123.452 25.5421 122.477 25.3139 121.633 24.8575C120.79 24.4011 120.133 23.7442 119.663 22.8867C119.206 22.0292 118.978 20.9989 118.978 19.7957C118.978 18.6478 119.199 17.6451 119.642 16.7876C120.084 15.9163 120.721 15.2386 121.55 14.7546C122.38 14.2705 123.383 14.0285 124.558 14.0285C125.665 14.0285 126.633 14.2567 127.463 14.7131C128.306 15.1695 128.956 15.8333 129.413 16.7046C129.883 17.5621 130.118 18.5924 130.118 19.7957C130.118 20.9436 129.897 21.9532 129.454 22.8245C129.012 23.6819 128.376 24.3527 127.546 24.8368C126.73 25.307 125.734 25.5421 124.558 25.5421ZM124.538 23.0734C125.285 23.0734 125.886 22.8037 126.343 22.2643C126.799 21.725 127.027 20.9021 127.027 19.7957C127.027 18.6893 126.806 17.8664 126.363 17.327C125.921 16.7876 125.319 16.5179 124.558 16.5179C123.798 16.5179 123.189 16.7876 122.733 17.327C122.276 17.8664 122.048 18.6893 122.048 19.7957C122.048 20.8882 122.27 21.7111 122.712 22.2643C123.169 22.8037 123.777 23.0734 124.538 23.0734Z" fill="white"/>
<path d="M131.646 25.3554V14.2359H134.405L134.529 16.02H134.633C134.882 15.3009 135.276 14.803 135.815 14.5264C136.369 14.2359 136.998 14.0907 137.703 14.0907H138.326V16.9536H137.641C136.618 16.9536 135.878 17.1818 135.421 17.6382C134.965 18.0807 134.723 18.7169 134.695 19.5467V25.3554H131.646Z" fill="white"/>
<path d="M139.517 28.8198V14.2359H142.463L142.566 16.1653H142.732C142.995 15.5152 143.431 14.9966 144.039 14.6094C144.662 14.2221 145.401 14.0285 146.259 14.0285C147.587 14.0285 148.658 14.5125 149.474 15.4807C150.304 16.4349 150.719 17.8733 150.719 19.7957C150.719 21.7042 150.304 23.1426 149.474 24.1107C148.658 25.0788 147.587 25.5628 146.259 25.5628C145.401 25.5628 144.662 25.3692 144.039 24.982C143.431 24.5809 142.995 24.0623 142.732 23.4261H142.566V28.8198H139.517ZM145.118 23.0942C145.865 23.0942 146.459 22.8314 146.902 22.3058C147.358 21.7665 147.587 20.9297 147.587 19.7957C147.587 18.6616 147.358 17.8318 146.902 17.3062C146.459 16.7669 145.865 16.4972 145.118 16.4972C144.551 16.4972 144.081 16.6286 143.707 16.8913C143.334 17.1541 143.057 17.4999 142.877 17.9286C142.698 18.3435 142.608 18.7861 142.608 19.2563V20.335C142.608 20.8053 142.698 21.2547 142.877 21.6835C143.057 22.0984 143.334 22.4372 143.707 22.7C144.081 22.9628 144.551 23.0942 145.118 23.0942Z" fill="white"/>
</g>
</svg>
