<svg width="120" height="37" viewBox="0 0 120 37" fill="none" xmlns="http://www.w3.org/2000/svg">
<g opacity="0.84">
<path fill-rule="evenodd" clip-rule="evenodd" d="M15.3668 33.8069C23.8537 33.8069 30.7337 26.9269 30.7337 18.4401C30.7337 9.95322 23.8537 3.07324 15.3668 3.07324C6.87995 3.07324 0 9.95322 0 18.4401C0 26.9269 6.87995 33.8069 15.3668 33.8069ZM20.1608 10.2318C20.3941 9.40288 19.5897 8.91274 18.8551 9.43612L8.60014 16.7417C7.80344 17.3093 7.92876 18.4401 8.78838 18.4401H11.4888V18.4192H16.7518L12.4634 19.9323L10.5729 26.6484C10.3396 27.4773 11.1439 27.9674 11.8786 27.444L22.1335 20.1385C22.9302 19.5709 22.8048 18.4401 21.9453 18.4401H17.8502L20.1608 10.2318Z" fill="white"/>
</g>
<g opacity="0.84">
<path d="M99.1135 12.9635C99.4577 13.279 99.8736 13.4368 100.361 13.4368C100.863 13.4368 101.279 13.279 101.609 12.9635C101.939 12.648 102.104 12.232 102.104 11.7157C102.104 11.1994 101.939 10.7835 101.609 10.4679C101.279 10.1524 100.863 9.99463 100.361 9.99463C99.8736 9.99463 99.4577 10.1524 99.1135 10.4679C98.7836 10.7835 98.6186 11.1994 98.6186 11.7157C98.6186 12.232 98.7836 12.648 99.1135 12.9635Z" fill="white"/>
<path fill-rule="evenodd" clip-rule="evenodd" d="M47.6249 24.882C46.9508 25.1976 46.162 25.3553 45.2584 25.3553H38.4171V10.2958H45.1724C46.0903 10.2958 46.8863 10.4536 47.5604 10.7691C48.2488 11.0703 48.7795 11.5078 49.1524 12.0814C49.5396 12.6408 49.7333 13.3149 49.7333 14.1037V14.3189C49.7333 15.0073 49.6042 15.5738 49.346 16.0184C49.0878 16.4487 48.7795 16.7857 48.4209 17.0296C48.0767 17.259 47.7468 17.424 47.4313 17.5244V17.9116C47.7468 17.9977 48.0911 18.1626 48.464 18.4064C48.8369 18.6359 49.1524 18.973 49.4106 19.4176C49.6831 19.8622 49.8193 20.4431 49.8193 21.1602V21.3753C49.8193 22.2072 49.6257 22.9243 49.2384 23.5267C48.8512 24.1147 48.3134 24.5665 47.6249 24.882ZM46.4202 19.5251C46.0473 19.224 45.5453 19.0734 44.9142 19.0734H41.2569V22.7737H44.9142C45.5309 22.7737 46.0257 22.6231 46.3986 22.3219C46.7859 22.0207 46.9795 21.5904 46.9795 21.0311V20.816C46.9795 20.2566 46.7931 19.8263 46.4202 19.5251ZM46.3341 13.3292C45.9612 13.028 45.4736 12.8774 44.8712 12.8774H41.2569V16.4917H44.8712C45.4592 16.4917 45.9397 16.3411 46.3126 16.0399C46.6998 15.7388 46.8935 15.3228 46.8935 14.7922V14.577C46.8935 14.032 46.707 13.6161 46.3341 13.3292Z" fill="white"/>
<path fill-rule="evenodd" clip-rule="evenodd" d="M56.2238 25.6565C55.1625 25.6565 54.2087 25.4414 53.3625 25.0111C52.5163 24.5808 51.8494 23.9569 51.3617 23.1394C50.8741 22.3219 50.6303 21.3395 50.6303 20.1921V19.8478C50.6303 18.7005 50.8741 17.718 51.3617 16.9005C51.8494 16.083 52.5163 15.4591 53.3625 15.0288C54.2087 14.5985 55.1625 14.3834 56.2238 14.3834C57.2851 14.3834 58.2389 14.5985 59.0851 15.0288C59.9313 15.4591 60.5982 16.083 61.0859 16.9005C61.5735 17.718 61.8173 18.7005 61.8173 19.8478V20.1921C61.8173 21.3395 61.5735 22.3219 61.0859 23.1394C60.5982 23.9569 59.9313 24.5808 59.0851 25.0111C58.2389 25.4414 57.2851 25.6565 56.2238 25.6565ZM56.2238 23.247C57.0557 23.247 57.7441 22.9817 58.2891 22.451C58.8341 21.906 59.1066 21.1315 59.1066 20.1275V19.9124C59.1066 18.9084 58.8341 18.1411 58.2891 17.6104C57.7584 17.0654 57.07 16.7929 56.2238 16.7929C55.3919 16.7929 54.7035 17.0654 54.1585 17.6104C53.6135 18.1411 53.341 18.9084 53.341 19.9124V20.1275C53.341 21.1315 53.6135 21.906 54.1585 22.451C54.7035 22.9817 55.3919 23.247 56.2238 23.247Z" fill="white"/>
<path d="M71.9702 25.3553C71.2674 25.3553 70.6937 25.1402 70.2491 24.7099C69.8189 24.2653 69.6037 23.6773 69.6037 22.9458V16.922H66.936V14.6846H69.6037V11.3715H72.3144V14.6846H75.2403V16.922H72.3144V22.4725C72.3144 22.9028 72.5152 23.1179 72.9168 23.1179H74.9821V25.3553H71.9702Z" fill="white"/>
<path d="M77.6295 24.7529C78.5187 25.3553 79.6589 25.6565 81.0501 25.6565C82.4127 25.6565 83.4955 25.3553 84.2987 24.7529C85.1162 24.1362 85.5249 23.2685 85.5249 22.1498C85.5249 21.404 85.3313 20.816 84.9441 20.3857C84.5712 19.9411 84.0549 19.604 83.3951 19.3745C82.7497 19.1307 82.0254 18.9371 81.2222 18.7937L80.6199 18.6861C80.1322 18.6001 79.745 18.4781 79.4581 18.3204C79.1713 18.1483 79.0278 17.8901 79.0278 17.5459C79.0278 17.2304 79.1641 16.9865 79.4366 16.8144C79.7091 16.628 80.1035 16.5348 80.6199 16.5348C81.1362 16.5348 81.5665 16.6495 81.9107 16.879C82.2692 17.1085 82.5059 17.4957 82.6206 18.0407L85.1377 17.2662C84.8939 16.4057 84.3776 15.7101 83.5887 15.1794C82.7999 14.6487 81.8103 14.3834 80.6199 14.3834C79.3577 14.3834 78.3394 14.6702 77.5649 15.2439C76.7904 15.8033 76.4032 16.6136 76.4032 17.675C76.4032 18.3778 76.5896 18.9514 76.9625 19.3961C77.3354 19.8407 77.8303 20.1921 78.447 20.4502C79.0637 20.694 79.745 20.8877 80.4908 21.0311L81.0932 21.1387C81.7242 21.2534 82.1832 21.404 82.47 21.5904C82.7569 21.7626 82.9003 22.0135 82.9003 22.3434C82.9003 22.6733 82.7497 22.953 82.4485 23.1824C82.1473 23.3976 81.6812 23.5052 81.0501 23.5052C80.6342 23.5052 80.247 23.4478 79.8884 23.333C79.5442 23.204 79.2502 22.996 79.0063 22.7092C78.7769 22.4223 78.6119 22.0279 78.5115 21.5259L76.0159 22.1713C76.2024 23.29 76.7402 24.1506 77.6295 24.7529Z" fill="white"/>
<path d="M90.2238 17.6319C89.7649 18.177 89.5354 18.9443 89.5354 19.9339V25.3553H86.8247V10.2958H89.5354V15.9969H89.9226C90.0374 15.7674 90.2166 15.538 90.4605 15.3085C90.7043 15.079 91.027 14.8926 91.4286 14.7491C91.8445 14.5914 92.368 14.5125 92.9991 14.5125C93.8309 14.5125 94.5552 14.7061 95.1719 15.0933C95.803 15.4662 96.2906 15.9897 96.6349 16.6638C96.9791 17.3236 97.1512 18.0981 97.1512 18.9873V25.3553H94.4405V19.2024C94.4405 18.3993 94.2397 17.7969 93.8381 17.3953C93.4508 16.9937 92.8915 16.7929 92.16 16.7929C91.3282 16.7929 90.6828 17.0726 90.2238 17.6319Z" fill="white"/>
<path d="M114.096 24.7099C113.665 24.2653 113.45 23.6773 113.45 22.9458V16.922H108.12V25.3553H105.409V16.922H102.698V14.6846H105.409V12.7053C105.409 11.9739 105.624 11.393 106.054 10.9627C106.499 10.5181 107.073 10.2958 107.775 10.2958H110.572V12.5332H108.722C108.32 12.5332 108.12 12.7484 108.12 13.1786V14.6846H113.45V11.3715H116.161V14.6846H119.087V16.922H116.161V22.4725C116.161 22.9028 116.362 23.1179 116.763 23.1179H118.829V25.3553H115.817C115.114 25.3553 114.54 25.1402 114.096 24.7099Z" fill="white"/>
<path d="M99.0059 14.6846V25.3553H101.717V14.6846H99.0059Z" fill="white"/>
<path d="M63.2438 10.2958V25.3553H65.9545V10.2958H63.2438Z" fill="white"/>
</g>
</svg>
