<svg width="55" height="55" viewBox="0 0 55 55" fill="none" xmlns="http://www.w3.org/2000/svg">
<g clip-path="url(#clip0_181_2785)">
<path d="M9.33366 23.5833C12.5837 23.5833 15.2503 20.9167 15.2503 17.6667C15.2503 14.4167 12.5837 11.75 9.33366 11.75C6.08366 11.75 3.41699 14.4167 3.41699 17.6667C3.41699 20.9167 6.08366 23.5833 9.33366 23.5833ZM9.33366 13.4167C11.667 13.4167 13.5837 15.3333 13.5837 17.6667C13.5837 20 11.667 21.9167 9.33366 21.9167C7.00033 21.9167 5.08366 20 5.08366 17.6667C5.08366 15.3333 7.00033 13.4167 9.33366 13.4167Z" fill="#FF002A"/>
<path d="M54.5003 53.0832L41.0837 27.9998L43.667 24.6665C43.917 24.7498 44.2503 24.8332 44.5837 24.8332C45.0003 24.8332 45.417 24.7498 45.8337 24.4998L48.0837 26.6665C47.917 26.9998 47.8337 27.3332 47.8337 27.6665C47.8337 29.1665 49.0003 30.3332 50.5003 30.3332C52.0003 30.3332 53.167 29.1665 53.167 27.6665C53.167 26.4998 52.417 25.4998 51.3337 25.1665L51.417 18.4165C52.5003 18.0832 53.2503 17.0832 53.2503 15.9165C53.2503 14.4165 52.0837 13.2498 50.5837 13.2498C49.0837 13.2498 47.917 14.4165 47.917 15.9165C47.917 17.0832 48.667 18.0832 49.7503 18.4165L49.667 25.1665C49.5003 25.2498 49.3337 25.3332 49.167 25.4165L47.0003 23.3332C47.167 22.9998 47.2503 22.5832 47.2503 22.1665C47.2503 20.6665 46.0837 19.4998 44.5837 19.4998C43.0837 19.4998 41.917 20.6665 41.917 22.1665C41.917 22.7498 42.0837 23.2498 42.417 23.6665L40.2503 26.4165L37.3337 20.9998C37.167 20.7498 37.0003 20.5832 36.7503 20.5832C36.5003 20.5832 36.2503 20.6665 36.0003 20.8332L30.167 26.9998L25.5003 15.4998V13.4998C26.167 13.8332 26.917 13.9165 27.5837 13.9165C29.0837 13.9165 30.5837 13.3332 31.917 12.7498C34.167 11.8332 36.0003 10.9998 37.917 12.5832C38.5003 12.9998 39.2503 12.6665 39.2503 11.9165V3.9165C39.2503 3.6665 39.167 3.4165 38.917 3.24984C36.2503 0.999837 33.5837 2.1665 31.167 3.08317C29.0837 3.9165 27.2503 4.74984 25.417 3.4165V1.49984C25.417 0.999837 25.0837 0.666504 24.5837 0.666504C24.0837 0.666504 23.7503 0.999837 23.7503 1.49984V15.3332L17.417 27.4998C16.667 25.9998 15.417 24.7498 13.917 23.9165C13.5837 23.7498 13.167 23.8332 12.917 24.0832L9.33366 27.6665L5.83366 24.0832C5.58366 23.8332 5.16699 23.7498 4.83366 23.9165C2.08366 25.3332 0.416992 28.0832 0.416992 31.1665V42.7498C0.416992 43.2498 0.750326 43.5832 1.25033 43.5832H3.25033L2.83366 53.4998C2.83366 53.7498 2.91699 53.9165 3.08366 54.0832C3.25033 54.2498 3.41699 54.3332 3.66699 54.3332H7.00033C7.41699 54.3332 7.75033 54.0832 7.83366 53.6665L9.41699 46.4998L11.0003 53.6665C11.0837 54.0832 11.417 54.3332 11.8337 54.3332H15.167C15.2503 54.3332 15.3337 54.3332 15.417 54.2498C15.5003 54.2498 15.5837 54.3332 15.667 54.3332H40.0003H53.8337C54.167 54.3332 54.417 54.1665 54.5837 53.9165C54.5837 53.6665 54.5837 53.3332 54.5003 53.0832ZM50.5837 28.6665C50.0003 28.6665 49.5837 28.2498 49.5837 27.6665C49.5837 27.0832 50.0003 26.6665 50.5837 26.6665C51.167 26.6665 51.5837 27.0832 51.5837 27.6665C51.5837 28.2498 51.0837 28.6665 50.5837 28.6665ZM50.667 14.8332C51.2503 14.8332 51.667 15.2498 51.667 15.8332C51.667 16.4165 51.2503 16.8332 50.667 16.8332C50.0837 16.8332 49.667 16.4165 49.667 15.8332C49.667 15.3332 50.0837 14.8332 50.667 14.8332ZM44.5837 21.0832C45.167 21.0832 45.5837 21.4998 45.5837 22.0832C45.5837 22.6665 45.167 23.0832 44.5837 23.0832C44.0003 23.0832 43.5837 22.6665 43.5837 22.0832C43.5837 21.5832 44.0003 21.0832 44.5837 21.0832ZM31.917 4.6665C34.0003 3.83317 35.8337 2.99984 37.667 4.33317V10.4165C35.417 9.4165 33.2503 10.3332 31.3337 11.1665C29.2503 11.9998 27.417 12.8332 25.5837 11.4998V5.4165C27.7503 6.4165 29.917 5.49984 31.917 4.6665ZM12.417 52.6665L10.167 42.4998C10.0837 42.1665 9.75033 41.8332 9.33366 41.8332C8.91699 41.8332 8.66699 42.0832 8.58366 42.3332C8.58366 42.3332 8.58366 42.4165 8.50033 42.4165L6.33366 52.6665H4.50033L5.25033 33.2498C5.25033 32.7498 4.91699 32.4165 4.41699 32.4165C4.00033 32.4165 3.58366 32.7498 3.58366 33.2498L3.25033 41.9165H2.08366V31.1665C2.08366 28.9165 3.25033 26.9165 5.08366 25.6665L8.75033 29.3332C8.91699 29.4998 9.08366 29.5832 9.33366 29.5832C9.58366 29.5832 9.75033 29.4998 9.91699 29.3332L13.5837 25.6665C15.417 26.8332 16.5837 28.9165 16.5837 31.1665V41.9165H15.417L15.0837 33.1665C15.0837 32.6665 14.667 32.3332 14.2503 32.3332C13.7503 32.3332 13.417 32.7498 13.417 33.1665C13.667 40.0832 13.917 45.4998 14.167 52.5832H12.417V52.6665ZM39.917 52.6665H15.8337L15.5003 43.5832H17.5003C18.0003 43.5832 18.3337 43.2498 18.3337 42.7498V31.1665C18.3337 30.5832 18.2503 30.0832 18.167 29.5832C18.2503 29.4998 18.2503 29.4165 18.3337 29.4165L24.5837 17.4998C25.5837 19.9998 30.5003 31.8332 30.5003 31.8332C30.667 32.2498 31.167 32.4165 31.5837 32.2498C32.0003 32.0832 32.167 31.5832 32.0003 31.1665L30.8337 28.6665L36.417 22.8332L39.0837 27.9165L33.667 34.9165C33.5837 34.9165 33.5003 34.9998 33.417 34.9998L32.5003 35.5832C32.167 35.4165 31.7503 35.2498 31.417 35.0832L31.2503 33.9998C31.167 33.5832 30.8337 33.3332 30.417 33.3332H27.917C27.5003 33.3332 27.167 33.5832 27.0837 33.9998L26.917 35.0832C26.5003 35.1665 26.167 35.3332 25.8337 35.4998L24.917 34.8332C24.5837 34.5832 24.167 34.6665 23.8337 34.9165L22.0837 36.6665C21.8337 36.9165 21.7503 37.4165 22.0003 37.7498L22.667 38.6665C22.5003 38.9998 22.3337 39.4165 22.167 39.7498L21.0837 39.9998C20.667 40.0832 20.417 40.4165 20.417 40.8332V43.3332C20.417 43.7498 20.667 44.0832 21.0837 44.1665L22.167 44.3332C22.2503 44.7498 22.417 45.0832 22.5837 45.4165L21.917 46.3332C21.667 46.6665 21.7503 47.0832 22.0003 47.4165L23.7503 49.1665C24.0003 49.4165 24.5003 49.4998 24.8337 49.2498L25.7503 48.5832C26.0837 48.7498 26.5003 48.9165 26.8337 49.0832L27.0003 50.1665C27.0837 50.5832 27.417 50.8332 27.8337 50.8332H30.3337C30.7503 50.8332 31.0837 50.5832 31.167 50.1665L31.3337 49.0832C31.7503 48.9998 32.0837 48.8332 32.417 48.6665L33.3337 49.3332C33.667 49.5832 34.0837 49.4998 34.417 49.2498L36.167 47.4998C36.417 47.2498 36.5003 46.7498 36.2503 46.4165L35.667 45.4998C35.8337 45.1665 36.0003 44.7498 36.167 44.4165L37.2503 44.2498C37.667 44.1665 37.917 43.8332 37.917 43.4165V40.9165C37.917 40.4998 37.667 40.1665 37.2503 40.0832L36.167 39.9165C36.0837 39.4998 35.917 39.1665 35.7503 38.8332L36.417 37.9165C36.667 37.5832 36.5837 37.1665 36.3337 36.8332L35.2503 35.7498L40.0837 29.4998L52.5003 52.7498H39.917V52.6665ZM34.5837 37.4998L34.0837 38.2498C33.917 38.4998 33.917 38.9165 34.0837 39.1665C34.417 39.6665 34.5837 40.2498 34.7503 40.8332C34.8337 41.1665 35.0837 41.4165 35.417 41.4998L36.3337 41.6665V42.7498L35.417 42.9165C35.0837 42.9998 34.8337 43.2498 34.7503 43.5832C34.5837 44.1665 34.417 44.6665 34.0837 45.2498C33.917 45.4998 33.917 45.9165 34.0837 46.1665L34.5837 46.9165L33.7503 47.4998L33.0003 46.9998C32.7503 46.8332 32.3337 46.8332 32.0837 46.9998C31.5837 47.3332 31.0003 47.4998 30.417 47.6665C30.0837 47.7498 29.8337 47.9998 29.7503 48.3332L29.5837 49.1665H28.5003L28.3337 48.2498C28.2503 47.9165 28.0003 47.6665 27.667 47.5832C27.0837 47.4165 26.5003 47.2498 26.0003 46.9165C25.7503 46.7498 25.3337 46.7498 25.0837 46.9165L24.417 47.4998L23.667 46.6665L24.167 45.9165C24.3337 45.6665 24.3337 45.2498 24.167 44.9998C23.8337 44.4998 23.5837 43.9165 23.5003 43.3332C23.417 42.9998 23.167 42.7498 22.8337 42.6665L21.917 42.4998V41.4165L22.8337 41.2498C23.167 41.1665 23.417 40.9165 23.5003 40.6665C23.667 40.0832 23.917 39.4998 24.167 38.9998C24.3337 38.7498 24.3337 38.3332 24.167 38.0832L23.667 37.3332L24.417 36.5832L25.167 37.0832C25.417 37.2498 25.7503 37.2498 26.0837 37.0832C26.5837 36.7498 27.167 36.5832 27.7503 36.4165C28.0837 36.3332 28.3337 36.0832 28.417 35.7498L28.5837 34.8332H29.667L29.8337 35.7498C29.917 36.0832 30.167 36.3332 30.5003 36.4165C31.0003 36.4998 31.5003 36.7498 31.917 36.9998L30.7503 38.4998C30.2503 38.2498 29.7503 38.1665 29.167 38.1665C27.0837 38.1665 25.3337 39.9165 25.3337 41.9998C25.3337 44.0832 27.0837 45.8332 29.167 45.8332C31.2503 45.8332 33.0003 44.0832 33.0003 41.9998C33.0003 41.0832 32.667 40.2498 32.0837 39.5832L34.167 36.9165L34.5837 37.4998ZM31.3337 42.0832C31.3337 43.2498 30.3337 44.2498 29.167 44.2498C28.0003 44.2498 27.0003 43.2498 27.0003 42.0832C27.0003 40.9165 28.0003 39.9165 29.167 39.9165C29.3337 39.9165 29.5837 39.9165 29.7503 39.9998L28.5003 41.5832C28.2503 41.9165 28.2503 42.4998 28.667 42.7498C29.7503 43.5832 30.5003 41.4998 31.0837 40.9998C31.167 41.3332 31.3337 41.6665 31.3337 42.0832Z" fill="#FF002A"/>
</g>
<defs>
<clipPath id="clip0_181_2785">
<rect width="55" height="55" fill="white"/>
</clipPath>
</defs>
</svg>
