<svg width="55" height="55" viewBox="0 0 55 55" fill="none" xmlns="http://www.w3.org/2000/svg">
<g clip-path="url(#clip0_181_2783)">
<path fill-rule="evenodd" clip-rule="evenodd" d="M17.3348 24.8039C15.8839 23.353 15.159 21.4522 15.159 19.5503C15.159 17.6495 15.8839 15.7476 17.3348 14.2967C17.4976 14.1339 17.6714 13.9766 17.854 13.8248C19.3269 12.6027 21.1485 12.045 22.9393 12.1319C24.707 12.2166 26.4428 12.9283 27.7848 14.2417C29.1466 13.134 30.8065 12.5741 32.4686 12.5686C34.3727 12.562 36.2757 13.2836 37.7343 14.7422C39.1852 16.1931 39.9101 18.0939 39.9101 19.9958C39.9101 21.8966 39.1852 23.7985 37.7343 25.2494L28.2875 34.6962C27.9949 34.9888 27.5208 34.9888 27.2282 34.6962L17.3348 24.8039ZM16.6572 19.5503C16.6572 21.0683 17.2358 22.5863 18.3941 23.7446L27.7573 33.1078L36.675 24.1901C37.8333 23.0318 38.4119 21.5138 38.4119 19.9958C38.4119 18.4778 37.8333 16.9598 36.675 15.8015C35.5068 14.6333 33.9866 14.0558 32.4686 14.0602C30.9517 14.0657 29.4337 14.6553 28.2666 15.8224L28.2655 15.8213C28.249 15.8378 28.2314 15.8532 28.2138 15.8686C27.8959 16.1315 27.424 16.0875 27.16 15.7696C27.0434 15.6288 26.9169 15.4902 26.7805 15.3549C25.7014 14.2758 24.2967 13.6917 22.8689 13.6235C21.44 13.5542 19.9858 13.9997 18.8077 14.9776C18.6702 15.092 18.5316 15.2174 18.3941 15.356C17.2358 16.5143 16.6572 18.0323 16.6572 19.5503ZM26.94 0.766678C26.94 0.353078 27.2755 0.0175781 27.6891 0.0175781C28.1027 0.0175781 28.4382 0.353078 28.4382 0.766678V5.09518C28.4382 5.50878 28.1027 5.84428 27.6891 5.84428C27.2755 5.84428 26.94 5.50878 26.94 5.09518V0.766678ZM53.8438 28.7452C54.2563 28.7452 54.5896 29.0796 54.5896 29.491C54.5896 29.9024 54.2552 30.2368 53.8438 30.2368H49.0599C48.6474 30.2368 48.3141 29.9024 48.3141 29.491C48.3141 29.0796 48.6485 28.7452 49.0599 28.7452H53.8438ZM51.4084 14.3836C51.7637 14.1757 52.2213 14.2945 52.4292 14.6498C52.6382 15.0051 52.5183 15.4627 52.163 15.6706L48.5341 17.7991C48.1788 18.007 47.7212 17.8882 47.5133 17.5329C47.3054 17.1776 47.4242 16.72 47.7795 16.5121L51.4084 14.3836ZM40.9265 4.11618C41.13 3.75758 41.5865 3.63218 41.9451 3.83568C42.3037 4.03918 42.4291 4.49568 42.2256 4.85428L40.1983 8.43478C39.9948 8.79338 39.5383 8.91878 39.1797 8.71528C38.8211 8.51178 38.6957 8.05528 38.8992 7.69668L40.9265 4.11618ZM1.15926 29.5537C0.745656 29.5537 0.410156 29.2182 0.410156 28.8046C0.410156 28.391 0.745656 28.0555 1.15926 28.0555H5.71876C6.13236 28.0555 6.46786 28.391 6.46786 28.8046C6.46786 29.2182 6.13236 29.5537 5.71876 29.5537H1.15926ZM3.30426 15.3274C2.94896 15.1195 2.82906 14.6619 3.03806 14.3066C3.24596 13.9513 3.70356 13.8314 4.05886 14.0404L7.89566 16.291C8.25096 16.5 8.37086 16.9565 8.16186 17.3118C7.95396 17.6671 7.49636 17.787 7.14106 17.578L3.30426 15.3274ZM13.1823 4.74098C12.9788 4.38238 13.1042 3.92588 13.4628 3.72238C13.8214 3.51888 14.2779 3.64428 14.4814 4.00288L16.3316 7.27208C16.5351 7.63068 16.4097 8.08718 16.0511 8.29068C15.6925 8.49418 15.236 8.36878 15.0325 8.01018L13.1823 4.74098ZM7.39186 42.1509L9.93066 40.9992C10.6842 40.6934 11.4938 40.9255 11.9382 41.6086L11.9756 41.5789C12.255 41.3589 12.5443 41.1235 12.8479 40.8716C17.2666 37.1833 19.2114 37.3791 26.3229 38.093L26.6859 38.1293C27.9256 38.2536 28.6868 38.8135 29.0256 39.5241C29.2005 39.8904 29.2599 40.2853 29.2137 40.6769L29.2115 40.6923L31.5809 39.534C32.517 39.0764 33.4949 38.9796 34.3397 39.1171C35.0712 39.2359 35.7158 39.5373 36.1701 39.9421L37.0061 39.534C37.8553 39.1193 38.7397 39.0005 39.5284 39.0841C40.1059 39.1457 40.6372 39.3173 41.0706 39.5637C41.515 39.8156 41.867 40.1511 42.0793 40.535C43.2618 40.2171 44.3706 40.3546 45.1241 40.744C45.4937 40.9343 45.7918 41.1906 45.9953 41.492C46.2274 41.8374 46.333 42.2301 46.2813 42.6481C46.2032 43.2795 45.7588 43.9329 44.8249 44.4884L38.0973 48.4935C37.7552 48.697 35.5354 49.5176 33.298 50.2689C31.5743 50.8475 29.8132 51.3975 28.8628 51.6087C28.8199 51.6186 28.777 51.6241 28.7341 51.6252L27.9883 51.6582C27.2062 51.6923 26.2679 51.7297 24.3704 51.8078C20.9043 51.9497 16.7661 52.1169 16.1732 52.1411C16.1853 52.3853 16.1413 52.624 16.0489 52.844C15.8905 53.2213 15.588 53.5425 15.1865 53.7251L12.9744 54.7294C12.0108 55.1672 10.9548 55.1199 10.4752 53.9352L6.65156 44.5753C6.43266 44.0396 6.26766 43.6557 6.52946 43.0331C6.68786 42.6547 6.99036 42.3335 7.39186 42.1509ZM12.5465 43.0287L15.6771 50.6924C15.8234 50.6693 15.9631 50.655 16.0951 50.6495C16.6198 50.6286 20.8086 50.4592 24.3099 50.3151C26.1084 50.2414 27.7375 50.1743 28.6043 50.1358C29.5074 49.9279 31.1739 49.4054 32.8228 48.8521C34.9854 48.1261 37.0743 47.3671 37.3361 47.2109L44.0637 43.2058C44.5488 42.9165 44.7699 42.6635 44.7941 42.4655C44.7996 42.4171 44.7853 42.3687 44.7545 42.3214C44.694 42.2323 44.5862 42.1465 44.4388 42.0706C43.8855 41.7857 42.9758 41.7373 41.9902 42.1399C39.3656 43.2113 36.7399 44.2827 34.1153 45.3541C33.639 45.5499 32.1969 45.5191 31.6095 45.5015L31.5534 45.5004C30.8857 45.4806 30.2213 45.4443 29.6988 45.4014C29.129 45.3563 28.6648 45.2991 28.4492 45.2419C25.7003 44.5104 22.9514 43.7789 20.2025 43.0474V43.0463C19.8758 42.9605 19.6382 42.6591 19.6459 42.3071C19.6558 41.8946 19.9979 41.569 20.4093 41.5789L25.6992 41.7043C26.6144 41.7263 27.2568 41.3732 27.5582 40.9244C27.6517 40.7858 27.7089 40.6395 27.7254 40.4987C27.7397 40.3777 27.7254 40.2633 27.6781 40.1654C27.5494 39.897 27.1864 39.6781 26.5374 39.6132L26.1744 39.5769C19.5535 38.9125 17.7418 38.7299 13.8049 42.0156C13.4804 42.2873 13.179 42.5315 12.8974 42.7526C12.7808 42.8494 12.6631 42.9407 12.5465 43.0287ZM10.3443 42.4534L8.00676 43.5149C7.88686 43.5688 7.88796 43.659 7.92756 43.7558L11.8546 53.372C11.9316 53.5216 11.947 53.5535 12.0812 53.4919L14.1613 52.5481C14.8378 52.2412 14.7179 52.382 14.5155 51.7935C13.2725 48.7487 12.0284 45.705 10.7854 42.6602C10.6534 42.3478 10.5511 42.3599 10.3443 42.4534ZM27.1677 43.3565L28.1412 43.6161C28.37 43.5666 28.59 43.5105 28.7836 43.4566C29.0817 43.373 29.3006 43.2993 29.3633 43.2685L34.5905 40.7154C34.4431 40.6626 34.2803 40.6208 34.1054 40.5933C33.5378 40.5009 32.8767 40.5691 32.2365 40.8815L27.1677 43.3565ZM33.5532 43.9692L40.6295 41.0806C40.5514 41.0036 40.4502 40.9299 40.3325 40.8628C40.0718 40.7143 39.7407 40.6098 39.3689 40.5702C38.8398 40.5141 38.2414 40.5955 37.6606 40.8793L31.2762 43.9978C31.8328 44.0198 32.8426 44.077 33.4146 43.9967C33.4608 43.9923 33.5103 43.9857 33.5532 43.9692Z" fill="#FF002A"/>
</g>
<defs>
<clipPath id="clip0_181_2783">
<rect width="55" height="55" fill="white"/>
</clipPath>
</defs>
</svg>
