<svg width="55" height="55" viewBox="0 0 55 55" fill="none" xmlns="http://www.w3.org/2000/svg">
<path d="M50.5702 3.67754C40.352 2.39289 30.3969 6.13063 22.8236 13.3328C11.9614 11.8428 5.21193 20.4967 4.22372 27.5648C4.12359 28.1097 4.62782 28.6325 5.17526 28.5524C5.17525 28.5524 13.3251 27.5623 13.3251 27.5623C13.9035 28.1414 14.6253 28.8598 15.5268 29.7578L14.1332 32.5681C13.6423 33.5601 13.8378 34.7527 14.6208 35.5357L19.464 40.3789C20.2498 41.1655 21.4481 41.355 22.4315 40.8656L25.2379 39.4747C26.3141 40.5511 27.2003 41.4374 27.733 41.9701C28.0034 42.2409 28.4187 42.298 28.751 42.1178C31.4385 40.6571 35.8559 37.9194 40.0917 33.8082C40.5568 42.1317 34.0611 47.604 28.2985 48.8432C28.2986 48.8434 28.678 45.7282 28.678 45.7282C28.7938 44.5988 27.1237 44.4016 26.9726 45.5201C26.9726 45.52 26.4481 49.8253 26.4481 49.8253C26.4154 50.0939 26.5102 50.3616 26.7049 50.5487C26.8994 50.7368 27.1737 50.8208 27.4384 50.7778C34.0938 49.8465 43.1688 43.3912 41.6728 32.1939C48.1362 25.6935 52.837 14.6147 51.3219 4.4294C51.2752 4.03506 50.9647 3.72454 50.5702 3.67754ZM21.6679 39.3257C21.3397 39.4901 20.9403 39.4247 20.6793 39.1637L15.836 34.3205C15.575 34.0595 15.5096 33.6617 15.6732 33.3318L16.8096 31.0391C19.033 33.2668 21.731 35.9667 23.9558 38.1923L21.6679 39.3257ZM49.3559 13.8835C46.7366 28.4769 34.3118 37.0312 28.4908 40.2975C25.6545 37.4628 18.6114 30.4041 14.7022 26.508C15.9672 24.2181 18.0635 21.1172 19.8854 18.9575C20.599 18.0894 19.281 16.9982 18.561 17.8615C16.6575 20.1071 14.3729 23.5087 13.0986 25.8578C13.0986 25.8578 6.1538 26.7019 6.1538 26.7019C6.74881 24.2874 8.57331 19.2445 13.748 16.5296C17.4356 14.5934 21.093 14.7957 22.9452 15.0861C23.2068 15.1185 23.4799 15.0588 23.682 14.8737C30.7628 8.03191 40.0518 4.2962 49.689 5.31075C49.9735 8.21023 49.8619 11.0905 49.3559 13.8835Z" fill="#FF002A"/>
<path d="M14.7102 40.3194C8.77683 35.0353 3.52103 45.4651 3.43943 50.6486C3.39573 51.1496 3.85145 51.6049 4.35156 51.561C9.52241 51.4802 19.9276 46.2454 14.7102 40.3194ZM13.0905 46.1437C11.7603 47.3304 10.2472 48.2561 8.59471 48.8939C7.51797 49.3085 6.39844 49.5938 5.25372 49.7466C5.63943 46.8343 6.89756 44.0989 8.86494 41.8997C11.9293 38.3161 16.7124 43.027 13.0905 46.1437Z" fill="#FF002A"/>
<path d="M30.3781 14.8551C26.0371 19.1103 29.1825 26.7053 35.2609 26.6438C41.3444 26.6947 44.4769 19.1322 40.1442 14.8551C37.452 12.1629 33.0704 12.1629 30.3781 14.8551ZM38.9291 23.4061C33.9327 28.1075 26.8926 21.064 31.5934 16.0703C36.6199 11.3889 43.6097 18.3803 38.9291 23.4061Z" fill="#FF002A"/>
</svg>
