<svg width="55" height="55" viewBox="0 0 55 55" fill="none" xmlns="http://www.w3.org/2000/svg">
<g clip-path="url(#clip0_181_2800)">
<path d="M1.71875 47.2691H3.025C3.11437 47.5234 3.21836 47.7718 3.33352 48.015L2.40969 48.9388C2.24812 49.1004 2.15789 49.3187 2.15789 49.5464C2.15789 49.7741 2.24812 49.9933 2.40969 50.154L4.84516 52.5895C5.16742 52.9117 5.73805 52.9117 6.06031 52.5895L6.985 51.6648C7.2282 51.7808 7.47656 51.883 7.73008 51.9724V53.2812C7.73008 53.7556 8.11508 54.1406 8.58945 54.1406H12.0338C12.5082 54.1406 12.8932 53.7556 12.8932 53.2812V51.9707C13.1459 51.8813 13.3942 51.7782 13.6357 51.663L14.563 52.5903C14.7245 52.7519 14.9428 52.8421 15.1705 52.8421C15.3983 52.8421 15.6174 52.7519 15.7781 52.5903L18.2136 50.1548C18.3752 49.9933 18.4654 49.775 18.4654 49.5473C18.4654 49.3195 18.3752 49.1004 18.2136 48.9397L17.2855 48.0116C17.4006 47.7701 17.5029 47.5226 17.5923 47.2699H18.9062C19.3806 47.2699 19.7656 46.8849 19.7656 46.4105V42.9662C19.7656 42.4918 19.3806 42.1068 18.9062 42.1068H17.5931C17.5037 41.8541 17.4015 41.6066 17.2863 41.3652L18.2145 40.437C18.376 40.2755 18.4663 40.0572 18.4663 39.8295C18.4663 39.6017 18.376 39.3826 18.2145 39.2219L15.779 36.7864C15.4567 36.4641 14.8861 36.4641 14.5638 36.7864L13.6366 37.7137C13.3951 37.5985 13.1467 37.4963 12.8941 37.406V36.0938C12.8941 35.6194 12.5091 35.2344 12.0347 35.2344H8.59031C8.11594 35.2344 7.73094 35.6194 7.73094 36.0938V37.4017C7.47742 37.4911 7.22906 37.5942 6.98586 37.7094L6.06117 36.7847C5.89961 36.6231 5.68133 36.5329 5.45359 36.5329C5.22586 36.5329 5.00672 36.6231 4.84602 36.7847L2.41055 39.2202C2.24898 39.3817 2.15875 39.6 2.15875 39.8277C2.15875 40.0555 2.24898 40.2746 2.41055 40.4353L3.33438 41.3591C3.21836 41.6032 3.11523 41.8516 3.025 42.1059H1.71875C1.24438 42.1059 0.859375 42.4909 0.859375 42.9653V46.4097C0.859375 46.8841 1.24438 47.2691 1.71875 47.2691ZM2.57812 43.8247H3.66008C4.05195 43.8247 4.39398 43.5591 4.49195 43.1802C4.63203 42.6379 4.84687 42.1188 5.13047 41.6384C5.32984 41.3007 5.27484 40.871 4.99813 40.5943L4.23242 39.8286L5.45273 38.6083L6.21844 39.3748C6.4943 39.6516 6.92313 39.7066 7.26258 39.5072C7.74297 39.2245 8.26117 39.0096 8.80344 38.8704C9.18328 38.7724 9.44797 38.4304 9.44797 38.0385V36.9531H11.1736V38.0394C11.1736 38.4312 11.4383 38.7733 11.8173 38.8712C12.3604 39.0122 12.8777 39.227 13.3573 39.5098C13.6941 39.7083 14.1255 39.6541 14.4014 39.3774L15.1697 38.6083L16.39 39.8286L15.62 40.5986C15.3433 40.8753 15.2883 41.305 15.4877 41.6427C15.7695 42.1214 15.9835 42.6388 16.1236 43.1819C16.2216 43.5609 16.5636 43.8264 16.9555 43.8264H18.0469V45.552H16.958C16.5662 45.552 16.2241 45.8167 16.1262 46.1966C15.9861 46.7388 15.7712 47.257 15.4902 47.7357C15.2909 48.0734 15.3459 48.5031 15.6226 48.7798L16.3917 49.549L15.1714 50.7693L14.4031 49.9984C14.1273 49.7217 13.6967 49.6667 13.359 49.8661C12.8803 50.1488 12.3621 50.3637 11.819 50.5046C11.44 50.6026 11.1753 50.9446 11.1753 51.3365V52.4219H9.44969V51.3373C9.44969 50.9455 9.18414 50.6034 8.80516 50.5055C8.26289 50.3654 7.74383 50.1514 7.2643 49.8687C6.92484 49.6702 6.49602 49.7252 6.22016 50.001L5.45445 50.7667L4.23414 49.5464L4.99898 48.7816C5.27656 48.5048 5.3307 48.0752 5.13133 47.7374C4.84773 47.2562 4.63289 46.738 4.49281 46.1957C4.39484 45.8167 4.05281 45.5512 3.66094 45.5512H2.57812V43.8247Z" fill="#FF002A"/>
<path d="M10.3125 48.9844C12.6818 48.9844 14.6094 47.0568 14.6094 44.6875C14.6094 42.3182 12.6818 40.3906 10.3125 40.3906C7.9432 40.3906 6.01562 42.3182 6.01562 44.6875C6.01562 47.0568 7.9432 48.9844 10.3125 48.9844ZM10.3125 42.1094C11.7339 42.1094 12.8906 43.2661 12.8906 44.6875C12.8906 46.1089 11.7339 47.2656 10.3125 47.2656C8.89109 47.2656 7.73438 46.1089 7.73438 44.6875C7.73438 43.2661 8.89109 42.1094 10.3125 42.1094Z" fill="#FF002A"/>
<path d="M54.0958 5.38484C53.9936 5.07977 53.7289 4.85633 53.4109 4.8082L50.3017 4.33383L48.9035 1.35437C48.7617 1.05187 48.4583 0.859375 48.1249 0.859375C47.7914 0.859375 47.4881 1.05188 47.3472 1.35352L45.9489 4.33297L42.8397 4.80734C42.5209 4.85633 42.2571 5.07891 42.1548 5.38398C42.0525 5.68906 42.1299 6.0268 42.3542 6.25711L44.6289 8.58859L44.091 11.892C44.0377 12.2169 44.1752 12.5434 44.4442 12.7334C44.7132 12.9224 45.0664 12.9413 45.3551 12.7832L48.1249 11.2518L50.8955 12.7832C51.0253 12.8545 51.1688 12.8906 51.3114 12.8906C51.485 12.8906 51.6586 12.8373 51.8064 12.7334C52.0754 12.5443 52.2129 12.2169 52.1596 11.892L51.6217 8.58859L53.8964 6.25711C54.1216 6.02766 54.1981 5.69078 54.0958 5.38484ZM50.0877 7.7C49.8969 7.89508 49.811 8.16922 49.8548 8.4382L50.1779 10.4225L48.54 9.51758C48.4111 9.44625 48.2675 9.41016 48.124 9.41016C47.9805 9.41016 47.8379 9.44625 47.7081 9.51758L46.0701 10.4225L46.3932 8.4382C46.4371 8.16922 46.3511 7.89508 46.1604 7.7L44.7501 6.25453L46.6596 5.9632C46.9432 5.91937 47.1864 5.73805 47.3076 5.47852L48.1249 3.74172L48.9404 5.47852C49.0625 5.73805 49.3057 5.91937 49.5884 5.9632L51.4979 6.25453L50.0877 7.7Z" fill="#FF002A"/>
<path d="M40.7148 11.237C40.2473 11.1657 39.7644 11.2894 39.3914 11.5816L32.6487 16.8565C33.0191 16.1441 33.1902 15.344 33.1214 14.5241C33.0252 13.3803 32.4889 12.343 31.6115 11.6023C30.7341 10.8615 29.6229 10.5083 28.4782 10.6037C27.3344 10.7008 26.2971 11.237 25.5563 12.1136C24.8164 12.991 24.4615 14.103 24.5577 15.2469C24.6402 16.2162 25.0527 17.0971 25.7059 17.7975C24.7055 18.045 23.823 18.6371 23.2309 19.4836L16.4598 28.7253C16.0731 29.2779 16.0422 29.9843 16.3791 30.5687C16.7151 31.1522 17.3373 31.477 18.0136 31.4237L20.0727 31.2493C20.5728 31.2072 21.0283 30.9494 21.3093 30.5584L25.3973 25.1804L25.7067 28.8499L23.676 42.7787C22.9094 42.9359 22.1394 43.0769 21.3652 43.1852L21.6032 44.8867C24.2999 44.5094 26.9614 43.8469 29.5129 42.9162C34.4629 41.1115 38.4194 38.5136 41.4702 35.9054L41.6627 35.8478L41.6361 35.7584C44.5795 33.213 46.666 30.6718 47.9645 28.8594C48.1304 28.6273 48.1708 28.3291 48.0719 28.0627C47.974 27.7955 47.7497 27.5944 47.4738 27.5256L46.1487 27.1939L50.9741 24.5135L52.1136 29.6423L50.9758 29.2633C50.6054 29.1395 50.2006 29.2813 49.9866 29.6053L49.844 29.8202C39.0408 46.2677 27.0319 50.2552 18.8592 50.7038L18.9529 52.42C27.4633 51.9525 39.9165 47.8644 51.0566 31.1015L53.0082 31.752C53.3012 31.8509 53.6252 31.7821 53.8555 31.575C54.0859 31.3679 54.1855 31.0525 54.1185 30.7509L52.3998 23.0165C52.3413 22.7518 52.1609 22.5301 51.9134 22.4192C51.6659 22.3092 51.3814 22.3195 51.1434 22.4519L43.409 26.7487C43.1005 26.9198 42.9286 27.2627 42.975 27.6124C43.0205 27.9622 43.2766 28.2484 43.6187 28.3334L45.8058 28.88C44.6723 30.3461 43.1073 32.131 41.0938 33.9434L39.5616 28.8035C39.4189 28.3618 39.0984 27.9914 38.7005 27.7963L35.1676 25.9564L34.615 21.7558L42.4834 15.7608C43.2113 15.2073 43.378 14.1812 42.8624 13.4259L41.869 11.9666C41.6043 11.5765 41.1832 11.3101 40.7148 11.237ZM28.6226 12.3173C28.6965 12.3112 28.7704 12.3078 28.8443 12.3078C29.4519 12.3078 30.0337 12.5201 30.5029 12.9162C31.0288 13.3605 31.3502 13.9827 31.4087 14.6694C31.4662 15.356 31.254 16.0237 30.8097 16.5497C30.3654 17.0756 29.7432 17.3979 29.0566 17.4555C28.3691 17.5148 27.7022 17.3008 27.1762 16.8565C26.6503 16.4122 26.328 15.79 26.2705 15.1034C26.151 13.6862 27.2063 12.4367 28.6226 12.3173ZM29.7905 40.9637L31.5788 30.6434L34.7379 32.1766L36.6053 37.4187C34.6141 38.7353 32.3462 39.9565 29.7905 40.9637ZM33.179 20.691C32.9341 20.8775 32.8077 21.1809 32.8473 21.4868L33.5227 26.625C33.5597 26.9026 33.729 27.1458 33.9782 27.2747L37.921 29.3131L39.6673 35.1715C39.1594 35.5857 38.624 35.9965 38.0671 36.4038L36.3466 31.5741C36.1885 31.1737 35.8894 30.8497 35.5044 30.6615L31.3047 28.6007C31.0623 28.4821 30.7779 28.4847 30.5355 28.6067C30.2941 28.7296 30.1248 28.9591 30.0792 29.2255L27.9291 41.6366C27.1195 41.9055 26.3014 42.153 25.4738 42.3662L27.4229 29.002C27.4323 28.9367 27.4341 28.8714 27.4289 28.8052L26.9227 22.8111C26.8927 22.4562 26.6477 22.1571 26.3066 22.0583C25.9645 21.9577 25.5976 22.0806 25.3827 22.3634L19.9291 29.5383L17.8589 29.7273L24.6299 20.4856C25.0699 19.8574 25.7609 19.4595 26.5257 19.3942L29.2009 19.1682H29.2027L32.6281 18.8786C32.7948 18.864 32.9538 18.8021 33.0853 18.699L40.4519 12.936L41.4462 14.3952L33.179 20.691Z" fill="#FF002A"/>
<path d="M3.4375 1.71875H5.15625V3.4375H3.4375V1.71875Z" fill="#FF002A"/>
<path d="M5.15625 3.4375H6.875V5.15625H5.15625V3.4375Z" fill="#FF002A"/>
<path d="M1.71875 3.4375H3.4375V5.15625H1.71875V3.4375Z" fill="#FF002A"/>
<path d="M3.4375 5.15625H5.15625V6.875H3.4375V5.15625Z" fill="#FF002A"/>
<path d="M10.3125 4.29688H12.0312V6.01562H10.3125V4.29688Z" fill="#FF002A"/>
<path d="M12.0312 6.01562H13.75V7.73438H12.0312V6.01562Z" fill="#FF002A"/>
<path d="M8.59375 6.01562H10.3125V7.73438H8.59375V6.01562Z" fill="#FF002A"/>
<path d="M10.3125 7.73438H12.0312V9.45312H10.3125V7.73438Z" fill="#FF002A"/>
<path d="M49.8438 48.125H51.5625V49.8438H49.8438V48.125Z" fill="#FF002A"/>
<path d="M51.5625 49.8438H53.2812V51.5625H51.5625V49.8438Z" fill="#FF002A"/>
<path d="M48.125 49.8438H49.8438V51.5625H48.125V49.8438Z" fill="#FF002A"/>
<path d="M49.8438 51.5625H51.5625V53.2812H49.8438V51.5625Z" fill="#FF002A"/>
</g>
<defs>
<clipPath id="clip0_181_2800">
<rect width="55" height="55" fill="white"/>
</clipPath>
</defs>
</svg>
