<svg width="449" height="324" viewBox="0 0 449 324" fill="none" xmlns="http://www.w3.org/2000/svg">
<path d="M344.165 38.9129C339.012 32.2276 339.39 22.2618 343.048 16.5909" stroke="#E7E3DE" stroke-width="1.39271" stroke-miterlimit="10" stroke-linecap="round" stroke-linejoin="round"/>
<path d="M377.147 88.9147C375.96 88.7529 374.779 88.5101 373.619 88.1593C373.138 88.0137 372.48 87.9111 372.054 87.5442C371.892 87.4039 371.973 87.3122 371.773 87.1072C371.347 86.6755 370.646 86.4921 370.473 85.7097C370.365 85.2403 370.581 84.7655 370.538 84.2798C370.5 83.8158 370.208 83.4003 370.36 82.9147C370.581 82.2079 371.584 82.0406 372.065 81.9705C372.896 81.8464 373.737 81.9435 374.563 81.9921C375.949 82.0676 377.212 81.8248 378.583 81.5982C381.016 81.1989 383.568 81.5172 385.985 81.6845C386.908 81.7493 387.005 81.7978 386.973 83.1683C386.854 89.6432 380.466 89.368 377.147 88.9147Z" fill="#65B7BB"/>
<path d="M363.776 89.7997C363.663 89.4867 363.571 89.1576 363.652 88.8338C363.835 88.0623 366.134 87.8194 366.868 87.5982C368.276 87.1774 369.857 86.7241 371.13 85.9633C373.251 84.6899 373.979 82.0784 374.103 79.7583C374.173 78.3176 374.335 76.8824 374.298 75.4255C374.287 75.0263 374.076 70.9741 373.704 70.9795L377.994 70.9525C378.323 70.9525 378.641 70.9417 378.965 70.9255C379.289 70.9417 379.612 70.9525 379.936 70.9525L384.226 71.5245C383.2 75.2475 383.659 79.413 385.084 82.9687C385.85 84.868 387.549 86.0982 389.357 86.9346C390.334 87.3878 391.548 87.6684 392.578 87.9867C393.382 88.2349 394.709 88.3051 394.65 89.3842C394.607 90.1504 394.445 90.9112 394.159 91.6234C393.889 92.3033 393.522 92.9346 393.123 93.5497C391.494 96.0802 389.362 98.2871 386.918 100.041C385.699 100.92 384.393 101.686 383.028 102.318C381.889 102.852 380.799 103.499 379.623 103.974C378.409 104.465 377.341 103.677 376.229 103.111C373.893 101.924 371.697 100.451 369.765 98.6756C367.132 96.2529 365.001 93.2421 363.798 89.8698C363.792 89.8482 363.787 89.8266 363.776 89.7997Z" fill="#F2BFA8"/>
<path d="M336.305 318.609C336.655 322.267 342.402 322.726 351.11 321.366C363.855 319.375 364.233 321.075 365.031 313.154C365.031 309.156 364.438 308.827 360.79 308.703C357.531 308.595 355.346 308.039 350.414 310.122C342.65 313.052 335.83 313.64 336.305 318.609Z" fill="white"/>
<path d="M336.329 317.406C336.874 320.568 342.119 320.665 350.957 319.661C355.117 319.187 358.91 318.917 363.362 317.848C363.998 317.697 364.435 317.627 364.662 317.018C365.822 313.866 365.509 307.435 365.255 307.219C364.673 306.728 363.809 306.82 363.049 306.879C360.237 307.111 357.426 306.582 354.626 306.237C354.394 306.205 354.151 306.178 353.93 306.253C353.676 306.339 353.482 306.55 353.299 306.744C350.164 310.019 345.799 311.044 341.795 312.787C340.187 313.478 335.914 314.989 336.329 317.406Z" fill="#876350"/>
<path d="M381.28 320.773C382.154 324.345 387.906 323.973 396.329 321.372C408.653 317.568 409.268 319.192 408.928 311.239C408.356 307.278 407.719 307.041 404.093 307.446C400.85 307.807 398.611 307.575 394.025 310.343C386.762 314.358 380.104 315.917 381.28 320.773Z" fill="white"/>
<path d="M381.137 319.575C382.135 322.629 387.336 321.965 395.937 319.705C399.989 318.636 403.702 317.827 407.953 316.127C408.563 315.885 408.984 315.75 409.119 315.113C409.81 311.827 408.579 305.509 408.293 305.331C407.64 304.926 406.804 305.142 406.06 305.309C403.308 305.94 400.453 305.827 397.631 305.881C397.394 305.886 397.151 305.897 396.946 306C396.703 306.124 396.542 306.356 396.39 306.572C393.757 310.262 389.592 311.908 385.874 314.206C384.39 315.129 380.381 317.244 381.137 319.575Z" fill="#876350"/>
<path d="M349.597 234.07C349.883 228.949 350.288 223.969 350.838 219.037C351.319 214.618 351.103 196.785 351.507 189.642C351.47 187.046 353.132 176.282 353.79 174.037C354.594 171.285 356.045 176.681 357.686 174.404C359.488 171.895 361.398 172.494 364.198 172.397C372.227 172.111 378.243 171.944 386.25 172.354C389.455 172.516 396.545 171.49 399.249 173.266C402.022 175.084 403.641 172.062 403.862 175.165C404.072 178.068 404.504 186.199 403.096 191.589C402.891 196.526 402.578 201.253 402.286 205.958C401.979 210.798 401.682 215.584 401.45 220.332C401.218 225.07 401.051 229.769 401.051 234.334C401.051 238.845 401.213 243.42 401.871 246.642C404.083 256.516 405.707 266.379 406.873 276.286C408.033 286.192 409.754 306.458 409.732 306.706C405.626 307.834 399.588 307.915 395.806 306.906C395.795 306.841 393.464 288.28 391.204 279.091C388.943 269.908 386.256 260.838 383.099 252.07C383.013 251.848 382.883 251.417 382.754 251.018C382.63 250.624 382.5 250.214 382.403 249.847C382.193 249.086 381.999 248.341 381.837 247.634C381.491 246.194 381.232 244.829 380.99 243.474C380.52 240.782 380.169 238.187 379.878 235.618C379.29 230.498 378.907 225.501 378.578 220.543C378.254 215.589 378 210.674 377.752 205.818C377.633 203.562 377.52 201.312 377.396 199.084C376.781 202.149 376.155 205.192 375.551 208.219C374.574 212.924 373.624 217.602 372.75 222.258C371.892 226.91 371.024 231.534 370.376 236.061C369.734 240.561 369.216 245.082 369.367 248.562C369.837 258.652 369.783 268.64 369.173 278.59C368.86 283.564 368.434 288.523 367.878 293.465C367.29 298.408 367.036 305.104 366.826 309.118C362.24 308.876 355.975 308.487 352.015 307.359C353.385 302.762 353.644 297.286 353.536 292.753C353.461 288.021 353.277 283.295 352.975 278.579C352.376 269.158 351.437 259.764 349.937 250.58L349.867 250.133L349.797 249.534C349.748 249.14 349.689 248.714 349.668 248.352C349.597 247.591 349.538 246.836 349.5 246.124C349.414 244.667 349.392 243.302 349.387 241.942C349.382 239.228 349.468 236.633 349.597 234.07Z" fill="#4A403E"/>
<path d="M355.982 155.924C356.376 150.215 357.298 144.614 357.05 138.895C356.759 132.253 356.343 126.372 355.976 119.713C355.674 114.274 355.102 107.967 354.703 102.533C354.455 99.1665 353.446 94.8338 354.11 91.5208C354.174 91.1755 354.271 90.8086 354.525 90.5604C354.725 90.3662 355 90.2744 355.264 90.1935C359.397 88.8931 364.539 88.0892 368.84 87.118C371.003 86.6269 374.856 91.4561 379.011 91.332C383.235 91.2025 389.16 87.2582 390.196 87.5226C395.284 88.796 401.824 90.4741 405.736 92.9993C410.872 96.3122 407.133 106.138 407.133 111.021C407.133 117.426 406.437 119.994 405.914 126.377C404.559 142.613 404.878 148.1 405.611 156.588C405.935 160.327 408.115 178.365 401.473 177.949C393.935 177.48 386.959 176.757 380.003 176.789C374.813 176.816 370.329 176.298 364.664 176.249C360.083 176.206 353.3 176.249 353.23 174.339C353.117 171.14 355.809 158.438 355.982 155.924Z" fill="#98D6D7"/>
<path d="M344.61 36.7168C344.545 51.6791 352.023 65.6161 365.642 72.6575C369.149 74.4705 372.797 76.019 376.547 77.2816C377.324 77.546 378.122 77.7942 378.943 77.8212C379.93 77.8482 380.89 77.546 381.829 77.2493C386.14 75.8788 390.257 74.6 394.261 72.5874C396.792 71.3194 399.171 69.7816 401.329 67.9633C406.385 63.7169 410.049 58.0946 412.164 51.9111C413.826 47.055 414.619 41.8373 414.619 36.7168C414.959 10.3751 399.565 5.47577 380.232 5.47577C360.899 5.47577 344.734 7.54232 344.61 36.7168Z" fill="#F2BFA8"/>
<path d="M350.219 43.6341C351.04 48.0046 348.8 52.0945 345.218 52.7636C341.64 53.4327 338.074 50.4327 337.254 46.0621C336.439 41.6916 338.673 37.6071 342.255 36.938C345.833 36.2636 349.399 39.2636 350.219 43.6341Z" fill="#F2BFA8"/>
<path d="M344.007 40.4182C342.895 40.2294 341.325 40.9686 340.764 41.8103C340.03 42.8949 339.76 44.438 340.203 45.9758" stroke="#EFA28A" stroke-width="2.25709" stroke-miterlimit="10" stroke-linecap="round" stroke-linejoin="round"/>
<path d="M341.227 41.5837C342.155 41.9668 343.169 43.402 343.574 44.438" stroke="#EFA28A" stroke-width="2.25709" stroke-miterlimit="10" stroke-linecap="round" stroke-linejoin="round"/>
<path d="M408.904 43.6341C408.084 48.0046 410.323 52.0945 413.905 52.7636C417.488 53.4327 421.049 50.4327 421.87 46.0621C422.69 41.6916 420.45 37.6071 416.868 36.938C413.29 36.2636 409.724 39.2636 408.904 43.6341Z" fill="#F2BFA8"/>
<path d="M415.113 40.4182C416.225 40.2294 417.79 40.9686 418.356 41.8103C419.09 42.8949 419.36 44.438 418.917 45.9758" stroke="#EFA28A" stroke-width="2.25709" stroke-miterlimit="10" stroke-linecap="round" stroke-linejoin="round"/>
<path d="M417.898 41.5837C416.97 41.9668 415.961 43.402 415.551 44.438" stroke="#EFA28A" stroke-width="2.25709" stroke-miterlimit="10" stroke-linecap="round" stroke-linejoin="round"/>
<path d="M341.927 19.6448C342.106 18.7114 342.332 17.7941 342.618 16.9092C345.186 8.84806 353.911 8.69159 360.996 7.53151C370.74 5.93978 381.472 4.39122 391.249 6.50633C394.303 7.17 397.552 8.28691 400.643 8.58907C405.607 9.07468 408.23 7.39662 411.877 11.7617C415.8 16.4506 416.728 20.7294 416.415 28.3103C416.307 30.8841 415.12 40.4183 412.908 43.6772C412.471 44.3193 411.931 45.1287 411.829 44.3571C411.607 42.6737 410.69 40.5531 409.886 38.929C408.532 36.2204 405.683 32.6107 404.026 31.1431C401.685 29.0711 399.651 30.1449 397.223 29.6862C394.433 29.1574 391.633 32.5351 388.972 31.5315C386.258 30.5064 383.658 29.1035 381.451 27.2096C380.766 26.6269 380.334 25.8175 379.724 25.1646C378.705 24.0801 378.661 24.1448 377.647 25.1754C375.953 26.8913 374.323 28.5477 372.224 29.778C369.127 31.5909 364.552 28.7366 361.104 29.0441C357.915 29.3247 353.981 28.8283 352.271 31.5369C351.116 33.3661 349.633 35.5837 348.92 38.6808C348.483 40.5585 347.663 42.269 347.345 44.1467C347.021 46.0514 346.503 45.242 345.893 44.0334C344.242 40.7636 343.109 37.2348 342.359 33.6575C341.426 29.2276 341.064 24.2204 341.927 19.6448Z" fill="#373737"/>
<path d="M351.169 61.2133C354.655 66.3769 359.274 70.7421 364.939 73.8608C368.517 75.8356 372.25 77.5191 376.087 78.895C376.88 79.1809 377.689 79.4561 378.531 79.4831C379.545 79.5155 380.527 79.1863 381.488 78.8572C385.902 77.368 390.105 75.9705 394.195 73.7852C396.779 72.4039 399.218 70.7205 401.425 68.7457C402.396 67.877 403.319 66.9543 404.182 65.9831C402.563 67.019 400.384 68.9831 398.689 69.9327C396.973 70.8877 395.085 72.3176 393.277 73.073C384.952 76.5316 380.333 78.1288 373.653 75.8788C369.968 74.6324 366.731 72.2151 363.24 70.4777C358.605 68.1683 355.222 64.1917 351.714 60.4795C351.391 60.1287 350.916 60.8302 351.169 61.2133Z" fill="#EFF2F4"/>
<path d="M376.916 87.5173C376.42 87.5982 375.961 87.7439 375.616 88.0137C374.693 88.7475 374.59 90.0047 374.839 91.1162C375.2 92.7457 376.608 94.4184 377.974 95.2062C380.466 96.6414 382.323 93.6036 383.569 91.8446C384.162 91.0029 384.616 90.3932 384.049 89.449C383.558 88.6342 383.364 87.8734 382.463 87.5335C381.6 87.2151 380.278 87.2583 379.382 87.3554C378.686 87.4256 377.747 87.3824 376.916 87.5173Z" fill="#69C7C1"/>
<path d="M375.33 112.105C375.703 108.026 376.534 98.2655 376.884 94.1864C376.884 94.1702 376.868 94.1594 376.868 94.1432C376.906 93.9921 381.19 94.2565 381.19 94.2565C382.782 106.159 383.014 118.289 383.964 130.257C384.217 133.483 384.476 136.715 384.859 139.926C385.091 141.863 385.134 142.78 384.098 144.571C382.652 147.064 380.904 149.39 378.908 151.467C378.751 151.634 375.05 146.935 374.759 146.471C373.669 144.733 372.886 143.055 373.167 141.043C373.528 138.426 373.728 135.787 373.928 133.154C374.408 126.884 374.732 120.598 375.169 114.323C375.217 113.578 375.266 112.839 375.33 112.105Z" fill="#69C7C1"/>
<path d="M413.961 37.9956C415.428 28.3643 414.489 21.1287 409.434 13.3805" stroke="#373737" stroke-width="1.39271" stroke-miterlimit="10" stroke-linecap="round" stroke-linejoin="round"/>
<path d="M412.101 36.6521C412.122 31.2618 410.439 25.8715 407.363 21.447" stroke="#373737" stroke-width="1.39271" stroke-miterlimit="10" stroke-linecap="round" stroke-linejoin="round"/>
<path d="M411.305 38.7025C410.015 35.6377 408.116 32.8266 405.758 30.4794" stroke="#373737" stroke-width="1.39271" stroke-miterlimit="10" stroke-linecap="round" stroke-linejoin="round"/>
<path d="M349.536 15.8462C355.148 3.39298 365.907 3.94874 380.232 3.94874C392.4 3.94874 403.002 5.89658 409.11 13.9038C409.552 14.4811 409.353 16.5207 409.374 17.2491C409.412 18.4416 409.385 19.6394 409.283 20.8319C409.083 23.1628 408.597 25.4883 407.702 27.652C405.295 33.4524 400.45 35.1089 394.72 36.1826C390.193 37.0297 385.466 37.17 380.869 37.1484C376.596 37.1269 372.344 36.8193 368.092 36.4362C364.542 36.1179 360.878 35.8481 357.495 34.6286C353.745 33.2743 352.191 30.9704 350.707 27.5171C349.455 24.6142 349.536 18.938 349.536 15.8462Z" fill="#232323"/>
<path d="M348.919 13.742C349.032 18.6574 351.012 26.3139 354.552 30.0423C359.062 34.7959 367.998 34.7042 376.016 34.7959C384.951 34.8931 393.239 34.4722 401.947 32.3463C408.093 30.8463 410.187 25.1161 410.273 19.893C410.354 14.6538 410.251 7.82288 405.951 5.39482C401.37 2.81028 397.194 1.55848 392.068 0.754521C385.496 -0.270661 377.699 -0.103394 371.003 0.387614C365.273 0.808478 359.473 1.51531 354.196 3.7923C353.127 4.25093 352.264 4.84985 351.557 5.55129C349.48 7.63403 348.854 10.661 348.919 13.742Z" fill="#232323"/>
<path d="M403.876 30.8139C407.34 23.2708 407.248 14.3193 403.633 6.84088L403.876 30.8139Z" fill="#232323"/>
<path d="M403.876 30.8139C407.34 23.2708 407.248 14.3193 403.633 6.84088" stroke="#232323" stroke-width="1.35988" stroke-miterlimit="10" stroke-linecap="round" stroke-linejoin="round"/>
<path d="M390.549 33.7708C393.641 23.4218 392.367 11.9452 387.074 2.43799L390.549 33.7708Z" fill="#232323"/>
<path d="M390.549 33.7708C393.641 23.4218 392.367 11.9452 387.074 2.43799" stroke="#232323" stroke-width="1.35988" stroke-miterlimit="10" stroke-linecap="round" stroke-linejoin="round"/>
<path d="M370.658 33.242C365.899 24.5603 364.772 14.1304 367.578 4.70953L370.658 33.242Z" fill="#232323"/>
<path d="M370.658 33.242C365.899 24.5603 364.772 14.1304 367.578 4.70953" stroke="#232323" stroke-width="1.35988" stroke-miterlimit="10" stroke-linecap="round" stroke-linejoin="round"/>
<path d="M354.525 28.3967C353.44 26.028 352.361 23.6377 351.8 21.1071C350.715 16.2186 351.649 11.1466 352.577 6.22577" fill="#232323"/>
<path d="M354.525 28.3967C353.44 26.028 352.361 23.6377 351.8 21.1071C350.715 16.2186 351.649 11.1466 352.577 6.22577" stroke="#232323" stroke-width="1.35988" stroke-miterlimit="10" stroke-linecap="round" stroke-linejoin="round"/>
<path d="M362.88 33.1557C359.573 25.9848 358.531 17.8805 359.918 10.1592L362.88 33.1557Z" fill="#232323"/>
<path d="M362.88 33.1557C359.573 25.9848 358.531 17.8805 359.918 10.1592" stroke="#232323" stroke-width="1.35988" stroke-miterlimit="10" stroke-linecap="round" stroke-linejoin="round"/>
<path d="M377.871 34.0352C377.251 29.7996 375.67 25.7312 375.039 21.4956C374.111 15.2204 375.303 8.85348 376.495 2.62146" fill="#232323"/>
<path d="M377.871 34.0352C377.251 29.7996 375.67 25.7312 375.039 21.4956C374.111 15.2204 375.303 8.85348 376.495 2.62146" stroke="#232323" stroke-width="1.35988" stroke-miterlimit="10" stroke-linecap="round" stroke-linejoin="round"/>
<path d="M384.012 33.3067C386.494 26.26 386.882 18.5495 385.134 11.3031L384.012 33.3067Z" fill="#232323"/>
<path d="M384.012 33.3067C386.494 26.26 386.882 18.5495 385.134 11.3031" stroke="#232323" stroke-width="1.35988" stroke-miterlimit="10" stroke-linecap="round" stroke-linejoin="round"/>
<path d="M397.215 31.7959C399.616 24.5495 399.783 16.6394 397.695 9.30664L397.215 31.7959Z" fill="#232323"/>
<path d="M397.215 31.7959C399.616 24.5495 399.783 16.6394 397.695 9.30664" stroke="#232323" stroke-width="1.35988" stroke-miterlimit="10" stroke-linecap="round" stroke-linejoin="round"/>
<path d="M386.565 81.6845C384.401 85.2619 378.083 86.9669 378.649 87.3122C380.333 88.3482 383.451 91.6396 383.867 94.6126C385.27 93.7655 386.629 92.7133 387.865 91.645C388.895 90.7547 391.34 88.2511 391.092 86.9075C390.897 85.8284 386.565 81.6845 386.565 81.6845Z" fill="#ACDEE2"/>
<path d="M370.743 82.3967C372.065 87.4363 379.128 86.8536 378.648 87.3122C377.299 88.6018 375.103 92.3248 374.52 94.8122C373.117 93.9651 371.585 93.0154 370.393 91.8554C370.026 91.4993 366.956 88.6072 366.961 86.9075C366.966 85.796 370.743 82.3967 370.743 82.3967Z" fill="#ACDEE2"/>
<path d="M421.117 123.016C421.986 129.248 422.714 135.447 423.302 141.647C423.971 148.623 424.527 155.595 424.942 162.582C425.147 166.079 425.32 169.58 425.433 173.104C425.471 174.874 425.541 176.622 425.531 178.413C425.525 179.314 425.552 180.183 425.52 181.106L425.433 183.863C425.369 185.983 423.593 187.65 421.473 187.586C419.482 187.526 417.901 185.967 417.755 184.03L417.734 183.776L417.566 181.343C417.507 180.534 417.405 179.676 417.324 178.845C417.167 177.183 416.924 175.478 416.719 173.794C416.277 170.411 415.775 167.023 415.23 163.634C414.14 156.857 412.915 150.091 411.588 143.368C410.59 138.312 409.511 133.278 408.34 128.303C412.764 126.895 417.092 125.33 421.117 123.016Z" fill="#F2BFA8"/>
<path d="M407.609 129.032C407.388 128.551 402.235 117.021 401.081 113.53C400.568 111.981 399.543 110.665 398.75 109.31C397.956 107.962 397.153 106.634 396.403 105.582C396.327 105.474 396.241 105.345 396.176 105.231C393.791 101.438 395.124 96.5388 399.149 94.2888C403.174 92.0442 408.376 93.296 410.76 97.0946C410.76 97.0946 410.766 97.1054 410.771 97.1162C412.897 100.499 414.462 104.363 416.194 107.951C417.44 110.53 421.994 119.53 422.68 121.591C423.095 122.832 423.198 122.87 422.28 123.528C421.52 124.078 420.214 124.321 419.334 124.661C418.379 125.033 407.755 129.339 407.609 129.032Z" fill="#98D6D7"/>
<path d="M340.527 119.525C339.659 125.757 338.93 131.956 338.342 138.161C337.668 145.138 337.117 152.109 336.696 159.097C336.491 162.593 336.319 166.095 336.211 169.618C336.168 171.388 336.098 173.136 336.108 174.927C336.114 175.829 336.087 176.697 336.114 177.62L336.2 180.377C336.27 182.503 338.045 184.165 340.166 184.1C342.152 184.035 343.738 182.481 343.884 180.544L343.9 180.291L344.072 177.857C344.126 177.048 344.24 176.19 344.315 175.359C344.472 173.697 344.709 171.992 344.914 170.309C345.362 166.931 345.869 163.537 346.403 160.149C347.493 153.372 348.718 146.611 350.045 139.882C351.044 134.827 352.123 129.793 353.294 124.818C348.88 123.404 344.542 121.845 340.527 119.525Z" fill="#F2BFA8"/>
<path d="M337.199 194.854C337.798 193.586 338.192 192.237 338.359 190.877C338.478 193.165 338.683 197.061 339.935 197.433C341.629 197.428 342.05 196.278 342.012 194.746C341.98 193.575 341.866 192.253 341.872 191.185C342.282 192.442 342.913 193.629 343.733 194.681C344.019 195.048 344.456 195.404 344.936 195.275C346.167 194.94 345.908 194.147 345.827 193.624C345.573 192.043 344.516 189.949 343.922 188.465C344.321 188.902 345.298 189.906 345.875 190.106C347.462 190.645 347.661 188.983 346.787 187.802C345.622 186.215 344.893 184.418 344.569 182.481C344.418 181.553 344.025 180.026 344.025 178.721C344.025 177.706 343.485 178.408 342.573 178.138C340.69 177.582 338.785 177.933 336.864 178.111C336.222 178.17 336.222 178.17 336.201 180.383C336.19 182.546 335.159 185.633 335.068 187.791C335.003 189.393 334.814 190.996 334.766 192.598C334.728 193.602 334.318 196.413 336.228 195.895C336.708 195.76 336.989 195.285 337.199 194.854Z" fill="#F2BFA8"/>
<path d="M354.032 125.546C354.253 125.066 359.406 113.535 360.566 110.039C361.084 108.496 362.104 107.179 362.897 105.819C363.685 104.47 364.494 103.143 365.239 102.091C365.314 101.983 365.4 101.854 365.471 101.74C367.855 97.9471 366.523 93.0478 362.492 90.7978C358.467 88.5532 353.265 89.8104 350.881 93.6036C350.881 93.6036 350.875 93.6144 350.864 93.6252C348.738 97.0083 347.179 100.872 345.442 104.46C344.195 107.039 339.647 116.039 338.961 118.1C338.541 119.341 338.444 119.379 339.355 120.037C340.116 120.587 341.422 120.83 342.301 121.17C343.262 121.548 353.891 125.854 354.032 125.546Z" fill="#98D6D7"/>
<path d="M436.25 192.037H410.604L399.883 217.138H425.529L436.25 192.037Z" stroke="#2B4DFF" stroke-width="4.09686" stroke-miterlimit="10" stroke-linecap="round" stroke-linejoin="round"/>
<path d="M437.601 255.598H388.927L382.484 221.935H444.044L437.601 255.598Z" stroke="#2B4DFF" stroke-width="4.35447" stroke-miterlimit="10" stroke-linecap="round" stroke-linejoin="round"/>
<path d="M431.704 255.598H394.825L389.941 221.935H436.587L431.704 255.598Z" stroke="#2B4DFF" stroke-width="4.35447" stroke-miterlimit="10" stroke-linecap="round" stroke-linejoin="round"/>
<path d="M424.789 255.598H401.744L398.695 221.935H427.832L424.789 255.598Z" stroke="#2B4DFF" stroke-width="4.35447" stroke-miterlimit="10" stroke-linecap="round" stroke-linejoin="round"/>
<path d="M417.06 255.598H409.468L408.465 221.935H418.058L417.06 255.598Z" stroke="#2B4DFF" stroke-width="4.35447" stroke-miterlimit="10" stroke-linecap="round" stroke-linejoin="round"/>
<path d="M447.006 223.146H379.522C378.664 223.146 377.966 222.448 377.966 221.589V216.825C377.966 215.966 378.664 215.268 379.522 215.268H447.006C447.87 215.268 448.563 215.966 448.563 216.825V221.589C448.563 222.448 447.865 223.146 447.006 223.146Z" fill="#2B4DFF" stroke="#2B4DFF" stroke-width="0.642423"/>
<path opacity="0.2" d="M378.543 217.91V222.674C378.543 222.714 378.544 222.755 378.546 222.795C378.192 222.509 377.966 222.072 377.966 221.584V216.82C377.966 215.961 378.664 215.263 379.522 215.263H447.006C447.434 215.263 447.818 215.434 448.097 215.711H380.742C379.528 215.711 378.543 216.696 378.543 217.91Z" fill="#DCF2FD" stroke="#2B4DFF" stroke-width="0.642423"/>
<path d="M422.897 242.608H403.629C401.885 242.608 400.47 241.193 400.47 239.449V237.032C400.47 235.283 401.885 233.867 403.634 233.867H422.902C424.651 233.867 426.066 235.283 426.066 237.032V239.437C426.062 241.193 424.64 242.608 422.897 242.608Z" fill="#2B4DFF" stroke="#2B4DFF" stroke-width="0.642423"/>
<g opacity="0.6">
<g opacity="0.2">
<path d="M408.878 238.777C410.956 236.849 413.136 234.829 414.21 233.867H421.166C419.851 235.42 418.122 237.438 416.643 239.155C415.816 240.115 415.069 240.981 414.515 241.619C414.239 241.938 414.011 242.201 413.846 242.389C413.766 242.48 413.702 242.554 413.654 242.608H404.739C405.523 241.89 406.804 240.701 408.193 239.412C408.419 239.202 408.648 238.99 408.878 238.777Z" fill="#DCF2FD" stroke="#2B4DFF" stroke-width="0.642423"/>
</g>
</g>
<path d="M423.574 195.701C421.589 195.998 419.295 195.895 417.758 194.611C416.344 193.429 416.689 192.906 416.101 191.271C415.351 191.233 414.558 191.266 413.808 191.228C413.722 189.895 415.313 189.248 416.02 188.454C417.65 186.631 417.623 184.483 417.617 182.206C417.612 181.192 418.152 181.893 419.063 181.624C420.013 181.343 421.001 181.294 421.988 181.338C422.614 181.365 423.833 181.203 424.389 181.375C425.452 181.71 425.662 183.447 426.013 184.348C426.596 185.848 427.011 187.467 427.529 189.01C428.063 190.607 428.474 192.318 428.371 194.028C428.269 195.782 426.202 195.151 424.637 195.507C424.308 195.571 423.947 195.642 423.574 195.701Z" fill="#F2BFA8"/>
<mask id="mask0_6313_2" style="mask-type:luminance" maskUnits="userSpaceOnUse" x="0" y="0" width="322" height="322">
<path d="M321.211 0.0449829H0V321.256H321.211V0.0449829Z" fill="white"/>
</mask>
<g mask="url(#mask0_6313_2)">
<g opacity="0.25">
<path d="M131.672 158.929C131.672 158.884 131.678 158.839 131.678 158.794C131.678 158.762 131.678 158.73 131.685 158.698C131.672 158.775 131.672 158.852 131.672 158.929Z" fill="#8EA0FF"/>
<path d="M293.197 244.686H261.153L255.499 266.76C253.328 275.246 245.683 281.182 236.933 281.182H91.5916C82.829 281.182 75.1906 275.246 73.0192 266.76L60.6461 218.411C60.2157 225.452 57.1835 231.793 52.5002 236.482C47.4315 241.551 40.4291 244.686 32.6943 244.686H28.0175C20.2827 244.686 13.2803 247.821 8.21155 252.89C3.14284 257.958 0.0078125 264.961 0.0078125 272.696C0.0078125 288.165 12.5479 300.705 28.0239 300.705H293.203C300.938 300.705 307.94 297.57 313.009 292.502C318.084 287.433 321.213 280.43 321.213 272.696C321.219 257.226 308.673 244.686 293.197 244.686Z" fill="#8EA0FF"/>
<path d="M132.312 153.591C132.319 153.546 132.332 153.501 132.338 153.456C132.345 153.436 132.345 153.417 132.351 153.391C132.345 153.456 132.332 153.526 132.312 153.591Z" fill="#8EA0FF"/>
<path d="M293.195 132.641H266.072C250.603 132.641 238.063 120.101 238.063 104.631C238.063 103.571 238.127 102.524 238.243 101.496H200.07L189.136 111.197C186.752 113.311 182.975 111.621 182.975 108.428V101.496H171.058C166.991 101.496 163.696 98.2008 163.696 94.1342V51.3103C163.696 47.2502 166.991 43.9481 171.058 43.9481H245.868C249.935 43.9481 253.23 47.2438 253.23 51.3103V79.7375C257.078 77.746 261.44 76.6218 266.072 76.6218H293.195C300.93 76.6218 307.933 73.4867 313.001 68.418C318.07 63.3493 321.205 56.3469 321.205 48.6121C321.205 33.1426 308.665 20.5961 293.189 20.5961H28.0096C20.2749 20.5961 13.2725 23.7311 8.20374 28.7998C3.13502 33.875 0 40.8774 0 48.6121C0 64.0817 12.5401 76.6282 28.0096 76.6282H58.0493C73.5189 76.6282 86.059 89.1683 86.059 104.638C86.059 112.373 82.924 119.375 77.8552 124.444C72.7865 129.512 65.7841 132.647 58.0493 132.647H28.0161C20.2813 132.647 13.2789 135.783 8.21017 140.851C3.14145 145.914 0.00642423 152.922 0.00642423 160.657C0.00642423 176.127 12.5465 188.667 28.0225 188.667H32.6993C42.6697 188.667 51.4195 193.883 56.379 201.727L54.1049 192.836L50.7835 179.846H45.0917C40.145 179.846 36.1363 175.838 36.1363 170.884V149.55C36.1363 144.609 40.145 140.594 45.0917 140.594H135.262L102.91 86.6371C101.079 83.5792 102.068 79.6155 105.133 77.7781L119.028 69.4459C122.086 67.615 126.05 68.6043 127.887 71.6687L161.499 127.72C161.524 127.72 161.557 127.72 161.589 127.714C161.974 127.682 162.366 127.656 162.758 127.637C162.861 127.637 162.963 127.63 163.066 127.624C163.439 127.611 163.811 127.598 164.184 127.598C164.216 127.598 164.248 127.598 164.274 127.598C164.383 127.598 164.486 127.604 164.602 127.604C164.788 127.604 164.981 127.611 165.167 127.611C165.315 127.617 165.456 127.617 165.604 127.63C165.764 127.637 165.925 127.643 166.086 127.649C166.233 127.656 166.381 127.669 166.529 127.682C166.683 127.688 166.844 127.701 166.998 127.714C167.146 127.727 167.293 127.739 167.441 127.752C167.595 127.771 167.756 127.784 167.91 127.797C168.058 127.816 168.199 127.829 168.34 127.849C168.508 127.868 168.675 127.894 168.842 127.913C168.97 127.932 169.099 127.945 169.233 127.964C169.51 128.009 169.792 128.054 170.069 128.106C170.197 128.125 170.326 128.151 170.448 128.176C170.615 128.208 170.775 128.24 170.942 128.273C171.077 128.298 171.212 128.33 171.347 128.363C171.501 128.395 171.655 128.427 171.81 128.465C171.951 128.497 172.086 128.53 172.221 128.562C172.375 128.6 172.529 128.639 172.677 128.677C172.812 128.716 172.947 128.748 173.075 128.787C173.236 128.831 173.396 128.876 173.551 128.921C173.673 128.954 173.795 128.992 173.917 129.031C174.129 129.095 174.334 129.166 174.533 129.23C174.668 129.275 174.79 129.313 174.925 129.365C175.131 129.435 175.336 129.512 175.542 129.583C175.658 129.628 175.767 129.673 175.883 129.712C176.043 129.776 176.204 129.834 176.364 129.898C176.48 129.943 176.602 129.994 176.718 130.039C176.872 130.103 177.026 130.168 177.174 130.232C177.289 130.283 177.405 130.328 177.521 130.386C177.675 130.457 177.836 130.527 177.99 130.605C178.099 130.65 178.202 130.701 178.304 130.752C178.491 130.836 178.671 130.926 178.851 131.022C178.928 131.061 179.005 131.099 179.082 131.138C179.332 131.273 179.589 131.401 179.84 131.536C179.904 131.568 179.975 131.607 180.045 131.645C180.232 131.748 180.418 131.857 180.604 131.96C180.694 132.011 180.778 132.063 180.868 132.114C181.035 132.211 181.195 132.313 181.356 132.41C181.446 132.468 181.536 132.525 181.626 132.577C181.793 132.68 181.953 132.789 182.114 132.892C182.191 132.949 182.275 133.001 182.358 133.052C182.538 133.174 182.718 133.296 182.898 133.418C182.956 133.463 183.013 133.495 183.071 133.54C183.553 133.881 184.022 134.234 184.485 134.6C184.53 134.633 184.568 134.671 184.613 134.703C184.799 134.857 184.986 135.005 185.166 135.159C185.223 135.204 185.275 135.249 185.333 135.294C185.506 135.442 185.679 135.59 185.853 135.744C185.904 135.789 185.956 135.834 186.007 135.879C186.193 136.046 186.373 136.206 186.553 136.374C186.585 136.406 186.617 136.438 186.656 136.463C187.311 137.087 187.947 137.735 188.551 138.41C188.564 138.423 188.577 138.436 188.59 138.455C188.776 138.667 188.962 138.873 189.142 139.091C189.161 139.117 189.181 139.136 189.2 139.155C189.386 139.374 189.566 139.592 189.74 139.81C189.752 139.823 189.759 139.836 189.772 139.843C189.958 140.08 190.144 140.318 190.331 140.562H283.437C288.384 140.562 292.399 144.571 292.399 149.524V170.859C292.399 175.805 288.39 179.821 283.437 179.821H277.752L275.49 188.641H293.202C300.937 188.641 307.939 185.506 313.008 180.437C318.083 175.369 321.211 168.366 321.211 160.638C321.218 145.188 308.671 132.647 293.195 132.641Z" fill="#8EA0FF"/>
<path d="M132.969 150.989C132.982 150.937 133.001 150.886 133.014 150.834C133.02 150.815 133.02 150.796 133.027 150.783C133.007 150.847 132.988 150.918 132.969 150.989Z" fill="#8EA0FF"/>
<path d="M132.59 152.402C132.59 152.402 132.596 152.389 132.596 152.376C132.616 152.306 132.628 152.241 132.648 152.171C132.628 152.248 132.609 152.325 132.59 152.402Z" fill="#8EA0FF"/>
</g>
<g opacity="0.5">
<path d="M277.745 179.846L274.424 192.836L255.505 266.766C253.333 275.253 245.688 281.189 236.939 281.189H91.5905C82.8278 281.189 75.1894 275.253 73.018 266.766L54.0987 192.836L50.7773 179.846H138.211C144.16 187.742 153.616 192.843 164.268 192.843C174.919 192.843 184.369 187.742 190.318 179.846H277.745Z" fill="#8EA0FF"/>
</g>
<g opacity="0.5">
<path d="M163.76 192.83H54.0987L50.7773 179.84H138.211C144.07 187.607 153.314 192.676 163.76 192.83Z" fill="#8EA0FF"/>
</g>
<g opacity="0.5">
<path d="M277.745 179.846L274.423 192.836H164.762C175.208 192.682 184.458 187.62 190.317 179.846H277.745Z" fill="#8EA0FF"/>
</g>
<g opacity="0.5">
<path d="M166.537 201.612H161.995C158.506 201.612 155.68 204.438 155.68 207.927V256.179C155.68 259.667 158.506 262.494 161.995 262.494H166.537C170.025 262.494 172.852 259.667 172.852 256.179V207.927C172.845 204.438 170.019 201.612 166.537 201.612Z" fill="#8EA0FF"/>
<path d="M110.497 201.65L106.012 202.376C102.569 202.935 100.231 206.179 100.79 209.623L108.531 257.252C109.09 260.695 112.334 263.034 115.777 262.475L120.261 261.749C123.705 261.19 126.043 257.946 125.484 254.502L117.743 206.873C117.184 203.43 113.94 201.091 110.497 201.65Z" fill="#8EA0FF"/>
<path d="M208.234 261.755L212.718 262.481C216.161 263.04 219.405 260.702 219.964 257.258L227.705 209.629C228.264 206.186 225.926 202.941 222.483 202.382L217.998 201.657C214.555 201.098 211.311 203.436 210.752 206.879L203.011 254.509C202.458 257.952 204.79 261.196 208.234 261.755Z" fill="#8EA0FF"/>
</g>
<path d="M236.93 282.146H91.5882C82.3822 282.146 74.3648 275.914 72.0842 266.997L49.5352 178.876H138.684L138.973 179.262C144.903 187.125 153.942 191.718 163.771 191.866C163.938 191.872 164.098 191.866 164.272 191.866C164.426 191.866 164.58 191.866 164.728 191.866C174.564 191.718 183.602 187.125 189.532 179.262L189.821 178.876H278.97L256.421 266.997C254.153 275.921 246.136 282.146 236.93 282.146ZM52.0149 180.81L73.9472 266.528C76.0094 274.591 83.2624 280.225 91.5882 280.225H236.93C245.256 280.225 252.502 274.597 254.571 266.528L276.503 180.81H190.785C184.495 188.917 175.039 193.646 164.767 193.8C164.433 193.806 164.086 193.806 163.739 193.8C153.473 193.646 144.023 188.917 137.727 180.81H52.0149Z" fill="#8EA0FF"/>
<path d="M190.228 269.689H164.262V271.616H190.228V269.689Z" fill="#8EA0FF"/>
<path d="M254.284 269.689H207.406V271.616H254.284V269.689Z" fill="#8EA0FF"/>
<g opacity="0.75">
<path d="M292.394 149.55V170.884C292.394 175.831 288.385 179.846 283.432 179.846H190.312C194.437 174.386 196.878 167.589 196.878 160.22C196.878 152.852 194.437 146.055 190.312 140.594H283.432C288.378 140.594 292.394 144.603 292.394 149.55Z" fill="#8EA0FF"/>
</g>
<g opacity="0.75">
<path d="M131.638 160.214C131.638 167.582 134.086 174.379 138.203 179.84H45.0843C40.1376 179.84 36.1289 175.831 36.1289 170.878V149.543C36.1289 144.597 40.1376 140.581 45.0843 140.581H138.203C134.079 146.048 131.638 152.845 131.638 160.214Z" fill="#8EA0FF"/>
</g>
<path d="M283.438 180.81H188.379L189.548 179.268C193.717 173.743 195.921 167.158 195.921 160.22C195.921 153.282 193.717 146.697 189.548 141.179L188.379 139.637H283.438C288.905 139.637 293.364 144.089 293.364 149.562V170.897C293.357 176.358 288.905 180.81 283.438 180.81ZM192.182 178.883H283.438C287.845 178.883 291.436 175.298 291.436 170.884V149.55C291.436 145.143 287.852 141.551 283.438 141.551H192.182C195.889 147.076 197.842 153.494 197.842 160.214C197.842 166.934 195.895 173.351 192.182 178.883Z" fill="#8EA0FF"/>
<path d="M140.142 180.81H45.0831C39.6161 180.81 35.1641 176.358 35.1641 170.884V149.55C35.1641 144.076 39.6096 139.624 45.0831 139.624H140.136L138.973 141.166C134.804 146.691 132.6 153.276 132.6 160.214C132.6 167.152 134.804 173.737 138.973 179.255L140.142 180.81ZM45.0831 141.558C40.6761 141.558 37.0913 145.143 37.0913 149.556V170.891C37.0913 175.298 40.6761 178.889 45.0831 178.889H136.333C132.626 173.364 130.673 166.946 130.673 160.227C130.673 153.507 132.626 147.089 136.333 141.564L45.0831 141.558Z" fill="#8EA0FF"/>
<g opacity="0.5">
<path d="M161.492 127.714C151.984 128.51 143.639 133.393 138.211 140.588C137.652 141.327 137.125 142.091 136.63 142.881L102.903 86.6372C101.072 83.5728 102.062 79.609 105.126 77.7781L119.022 69.4459C122.079 67.615 126.043 68.6043 127.881 71.6687L161.492 127.714Z" fill="#8EA0FF"/>
</g>
<path d="M136.61 144.725L102.08 87.1383C99.9789 83.6306 101.122 79.063 104.63 76.9558L118.526 68.6236C120.228 67.6086 122.22 67.3131 124.14 67.7885C126.068 68.2703 127.68 69.4716 128.702 71.174L163.11 128.555L161.568 128.684C152.632 129.435 144.396 133.99 138.974 141.179C138.434 141.898 137.914 142.644 137.439 143.402L136.61 144.725ZM122.329 69.4845C121.346 69.4845 120.376 69.7479 119.515 70.2682L105.619 78.6005C103.024 80.1615 102.176 83.5407 103.731 86.1425L136.674 141.076C136.925 140.716 137.182 140.363 137.445 140.016C142.886 132.795 151 128.086 159.891 126.924L127.057 72.1634C126.299 70.9042 125.104 70.0113 123.678 69.6579C123.228 69.5423 122.778 69.4845 122.329 69.4845Z" fill="#8EA0FF"/>
<g opacity="0.5">
<path d="M196.875 160.214C196.875 167.582 194.434 174.379 190.309 179.84C184.45 187.607 175.199 192.675 164.754 192.83C164.587 192.836 164.426 192.836 164.259 192.836C164.092 192.836 163.931 192.836 163.758 192.83C153.312 192.675 144.061 187.613 138.202 179.84C134.078 174.379 131.637 167.582 131.637 160.214C131.637 153.841 133.461 147.899 136.622 142.875C137.117 142.085 137.643 141.327 138.202 140.581C143.631 133.386 151.982 128.504 161.484 127.707C162.396 127.63 163.321 127.592 164.259 127.592C174.904 127.592 184.36 132.692 190.309 140.581C194.44 146.055 196.881 152.852 196.875 160.214Z" fill="#8EA0FF"/>
</g>
<g opacity="0.5">
<path d="M181.056 160.214C181.056 169.484 173.54 177 164.263 177C154.986 177 147.894 169.902 147.496 160.991C147.483 160.734 147.477 160.477 147.477 160.214C147.477 150.944 154.993 143.421 164.269 143.421C167.09 143.421 169.737 144.115 172.069 145.342C177.407 148.156 181.056 153.764 181.056 160.214Z" fill="#8EA0FF"/>
</g>
<path d="M164.26 177.97C154.47 177.97 146.504 170.011 146.504 160.214C146.504 150.423 154.47 142.464 164.26 142.464C174.051 142.464 182.017 150.423 182.017 160.214C182.017 170.011 174.051 177.97 164.26 177.97ZM164.26 144.391C155.53 144.391 148.431 151.49 148.431 160.214C148.431 168.944 155.53 176.043 164.26 176.043C172.985 176.043 180.09 168.944 180.09 160.214C180.09 151.49 172.985 144.391 164.26 144.391Z" fill="#8EA0FF"/>
<path d="M164.262 193.8C145.747 193.8 130.676 178.735 130.676 160.22C130.676 141.699 145.741 126.634 164.262 126.634C182.783 126.634 197.841 141.699 197.841 160.22C197.841 178.735 182.783 193.8 164.262 193.8ZM164.262 128.562C146.807 128.562 132.603 142.759 132.603 160.214C132.603 177.668 146.807 191.872 164.262 191.872C181.716 191.872 195.914 177.668 195.914 160.214C195.914 142.766 181.716 128.562 164.262 128.562Z" fill="#8EA0FF"/>
<path d="M119.303 169.15H63.4375V171.077H119.303V169.15Z" fill="#8EA0FF"/>
<path d="M226.364 169.15H207.406V171.077H226.364V169.15Z" fill="#8EA0FF"/>
<g opacity="0.5">
<path d="M245.875 43.9482H171.059C166.999 43.9482 163.703 47.2438 163.703 51.3103V94.1278C163.703 98.188 166.999 101.49 171.059 101.49H182.976V108.422C182.976 111.615 186.74 113.304 189.13 111.191L200.064 101.49H245.869C249.929 101.49 253.225 98.1944 253.225 94.1278V51.3103C253.231 47.2438 249.936 43.9482 245.875 43.9482Z" fill="#8EA0FF"/>
</g>
<path d="M186.694 113.099C186.045 113.099 185.39 112.964 184.761 112.681C183.065 111.917 182.011 110.285 182.011 108.428V102.46H171.058C166.471 102.46 162.738 98.7276 162.738 94.1342V51.3168C162.738 46.7299 166.471 42.9974 171.058 42.9974H245.874C250.461 42.9974 254.194 46.7299 254.194 51.3168V94.1342C254.194 98.7276 250.461 102.46 245.874 102.46H200.436L189.771 111.923C188.898 112.7 187.812 113.105 186.694 113.099ZM171.058 44.9118C167.531 44.9118 164.666 47.777 164.666 51.3103V94.1278C164.666 97.6547 167.531 100.526 171.058 100.526H183.938V108.422C183.938 109.533 184.542 110.465 185.551 110.914C186.566 111.37 187.664 111.203 188.493 110.465L199.703 100.52H245.874C249.401 100.52 252.266 97.6547 252.266 94.1214V51.3039C252.266 47.777 249.401 44.9054 245.874 44.9054H171.058V44.9118Z" fill="#8EA0FF"/>
<path d="M221.061 75.0928C221.061 79.9688 219.969 83.7334 217.778 86.3802C215.587 89.027 212.504 90.3504 208.514 90.3504C204.531 90.3504 201.383 89.0205 199.193 86.3609C196.989 83.6949 195.891 79.9431 195.891 75.0992V68.5016C195.891 63.6256 196.983 59.861 199.173 57.2142C201.364 54.5674 204.461 53.244 208.463 53.244C212.459 53.244 215.562 54.5738 217.759 57.2335C219.962 59.8995 221.061 63.6577 221.061 68.5208V75.0928ZM212.696 67.4287C212.696 64.8333 212.356 62.8932 211.681 61.6084C211.007 60.3299 209.928 59.6875 208.456 59.6875C206.985 59.6875 205.97 60.2785 205.315 61.4735C204.66 62.6619 204.306 64.4671 204.261 66.8762V76.1014C204.261 78.7996 204.602 80.7654 205.276 82.0181C205.951 83.2709 207.03 83.8876 208.501 83.8876C209.973 83.8876 210.975 83.2837 211.649 82.0631C212.33 80.8489 212.677 78.9409 212.69 76.3455V67.4159L212.696 67.4287Z" fill="#8EA0FF"/>
<path d="M120.461 132.847C120.442 132.847 120.423 132.847 120.403 132.847C119.761 132.808 119.119 132.77 118.476 132.731C117.949 132.699 117.538 132.243 117.577 131.71C117.615 131.176 118.071 130.778 118.598 130.81C119.241 130.855 119.877 130.887 120.519 130.926C121.046 130.958 121.457 131.414 121.418 131.947C121.393 132.455 120.969 132.853 120.461 132.847Z" fill="#8EA0FF"/>
<path d="M114.642 132.448C114.616 132.448 114.59 132.448 114.564 132.448C113.145 132.339 111.86 132.217 110.639 132.082C110.113 132.024 109.727 131.549 109.791 131.022C109.849 130.495 110.325 130.11 110.851 130.174C112.053 130.303 113.318 130.425 114.719 130.534C115.245 130.579 115.644 131.041 115.605 131.575C115.567 132.082 115.143 132.461 114.648 132.461V132.448H114.642ZM106.862 131.581C106.817 131.581 106.765 131.575 106.714 131.568C105.352 131.363 104.042 131.125 102.808 130.862C102.288 130.746 101.96 130.238 102.069 129.718C102.179 129.198 102.693 128.87 103.213 128.979C104.408 129.236 105.686 129.467 107.003 129.667C107.53 129.744 107.89 130.238 107.813 130.765C107.736 131.234 107.324 131.575 106.862 131.581ZM99.217 129.924C99.1271 129.924 99.0371 129.911 98.9472 129.885C97.6367 129.5 96.3582 129.063 95.1633 128.594C94.6687 128.401 94.4245 127.842 94.6173 127.347C94.81 126.853 95.3753 126.609 95.8636 126.801C97.0071 127.251 98.2277 127.669 99.4868 128.035C99.9943 128.189 100.29 128.722 100.142 129.23C100.026 129.654 99.641 129.924 99.217 129.924ZM91.9576 127.039C91.8035 127.039 91.6557 127.007 91.5144 126.93C90.4608 126.377 89.4329 125.774 88.4693 125.131C88.3344 125.041 88.193 124.951 88.0645 124.855C87.6277 124.553 87.5121 123.955 87.814 123.512C88.1159 123.075 88.7134 122.966 89.1567 123.268C89.2787 123.352 89.4072 123.442 89.5421 123.525C90.4479 124.129 91.418 124.701 92.4138 125.221C92.8891 125.472 93.069 126.05 92.8185 126.525C92.6386 126.853 92.3045 127.039 91.9576 127.039ZM85.5398 122.594C85.3085 122.594 85.0773 122.51 84.891 122.349C83.9145 121.463 82.9637 120.493 82.0707 119.478C81.7174 119.079 81.7624 118.469 82.1607 118.116C82.559 117.763 83.1693 117.807 83.5226 118.212C84.3642 119.176 85.2572 120.088 86.1822 120.923C86.5741 121.277 86.6062 121.893 86.2465 122.285C86.0666 122.497 85.8032 122.6 85.5398 122.594ZM80.4004 116.715C80.0985 116.715 79.7966 116.568 79.6038 116.298C78.8394 115.193 78.1391 114.036 77.5095 112.861C77.259 112.392 77.4324 111.807 77.9014 111.557C78.3704 111.306 78.955 111.486 79.2055 111.955C79.7966 113.066 80.4647 114.159 81.1842 115.199C81.4861 115.636 81.3769 116.234 80.9401 116.535C80.773 116.651 80.5803 116.703 80.394 116.703V116.715H80.4004ZM76.7322 109.822C76.3468 109.822 75.9806 109.591 75.8328 109.205C75.3381 107.927 74.9334 106.629 74.6186 105.351C74.4966 104.831 74.8114 104.31 75.3317 104.188C75.8521 104.06 76.366 104.381 76.4945 104.895C76.7836 106.096 77.1626 107.31 77.6252 108.505C77.8179 109 77.5738 109.559 77.0791 109.752C76.9635 109.796 76.8478 109.816 76.7322 109.822ZM74.6893 103.854C74.5223 103.854 74.3488 103.854 74.1818 103.848C73.6486 103.835 73.231 103.385 73.2503 102.852C73.2695 102.332 73.6935 101.92 74.2139 101.92C74.079 101.766 73.9891 101.573 73.9698 101.355C73.9055 100.648 73.8734 99.9353 73.8734 99.235C73.8734 98.5798 73.9055 97.9245 73.9505 97.2885C73.9955 96.7617 74.4645 96.3634 74.9912 96.4084C75.518 96.4534 75.9163 96.9223 75.8714 97.4491C75.82 98.0337 75.7943 98.6376 75.7943 99.235C75.7943 99.8775 75.8264 100.539 75.8842 101.194C75.9099 101.458 75.82 101.715 75.6529 101.901C76.3789 101.856 77.1369 101.76 77.9143 101.606C78.441 101.509 78.9421 101.85 79.0385 102.37C79.1349 102.89 78.7944 103.398 78.274 103.501C77.0341 103.732 75.8264 103.854 74.6893 103.854ZM70.3786 103.141C70.2694 103.141 70.1602 103.122 70.051 103.083C68.8111 102.633 67.5713 101.997 66.3699 101.188C65.9331 100.886 65.8174 100.289 66.113 99.8453C66.4149 99.4085 67.0123 99.2864 67.4492 99.5884C68.5092 100.308 69.6077 100.873 70.6999 101.265C71.2009 101.445 71.4579 101.997 71.278 102.499C71.1431 102.89 70.7705 103.141 70.3786 103.141ZM81.8716 102.486C81.4733 102.486 81.1007 102.235 80.9593 101.837C80.7859 101.336 81.0493 100.79 81.5504 100.61C82.8673 100.154 83.9787 99.6526 84.9488 99.0873C85.4049 98.8175 85.9959 98.9717 86.2658 99.4342C86.5356 99.8967 86.3814 100.488 85.9189 100.751C84.846 101.381 83.6254 101.933 82.1864 102.434C82.0836 102.466 81.9808 102.486 81.8716 102.486ZM63.8966 98.8689C63.6525 98.8689 63.4084 98.7725 63.2221 98.5926C62.3098 97.7061 61.4104 96.691 60.5367 95.5797C60.2091 95.1621 60.2798 94.5518 60.6973 94.2306C61.1149 93.9029 61.7252 93.9736 62.0528 94.3912C62.8751 95.4319 63.7231 96.3891 64.5711 97.2178C64.9502 97.5904 64.9566 98.2007 64.584 98.5798C64.3977 98.7725 64.1536 98.8689 63.8966 98.8689ZM88.4564 98.4256C88.2316 98.4256 88.0067 98.3485 87.8269 98.1879C87.4286 97.841 87.3772 97.2307 87.7241 96.8324L87.7947 96.7553C88.5142 95.8944 89.041 94.8666 89.3044 93.7873C89.4329 93.2669 89.9533 92.9586 90.4736 93.0806C90.9876 93.2091 91.3024 93.7295 91.1739 94.2498C90.8334 95.6118 90.1781 96.903 89.2659 97.9887L89.1759 98.0915C88.9961 98.3164 88.7262 98.4256 88.4564 98.4256ZM75.6208 94.4875C75.5245 94.4875 75.4345 94.4747 75.3381 94.4426C74.8306 94.282 74.5415 93.7423 74.7021 93.2348C75.1326 91.8536 75.7557 90.5816 76.5588 89.4574C76.8671 89.0205 77.471 88.9242 77.9078 89.2325C78.3447 89.5409 78.4411 90.1448 78.1327 90.5816C77.4517 91.5324 76.9185 92.6181 76.5523 93.8066C76.411 94.2241 76.032 94.4875 75.6208 94.4875ZM59.0335 92.7594C58.7187 92.7594 58.4103 92.6052 58.224 92.3162C57.5366 91.2497 56.8556 90.0998 56.2004 88.892C55.9498 88.4231 56.1169 87.8385 56.5858 87.5815C57.0548 87.3245 57.6394 87.498 57.8964 87.9669C58.5324 89.1362 59.1876 90.2411 59.8493 91.269C60.1384 91.7187 60.0099 92.3097 59.5602 92.6052C59.3996 92.708 59.2198 92.7594 59.0335 92.7594ZM90.1139 91.1341C89.7156 91.1341 89.3494 90.89 89.2081 90.4981C89.131 90.2925 89.041 90.0869 88.9382 89.8942C88.5399 89.1554 87.9361 88.5451 87.1459 88.0826C86.6898 87.8128 86.5292 87.2217 86.799 86.7656C87.0688 86.3095 87.6598 86.1489 88.1159 86.4187C89.2081 87.0547 90.0753 87.9412 90.6407 88.982C90.7884 89.2582 90.9169 89.5473 91.0261 89.8364C91.2124 90.3375 90.949 90.89 90.4479 91.0698C90.3323 91.1148 90.2231 91.1341 90.1139 91.1341ZM80.1692 88.3331C79.8415 88.3331 79.5203 88.1661 79.3404 87.8642C79.0642 87.408 79.2184 86.817 79.6681 86.5472C80.0086 86.3416 80.3619 86.1617 80.7281 86.0011C81.6853 85.5836 82.771 85.3587 83.8631 85.3394C84.3963 85.3394 84.8332 85.757 84.8396 86.2902C84.846 86.8234 84.422 87.2603 83.8888 87.2667C83.0472 87.2796 82.2185 87.453 81.4861 87.7678C81.2035 87.8899 80.9208 88.0312 80.651 88.1982C80.5032 88.2882 80.3298 88.3331 80.1692 88.3331ZM55.2753 85.9048C54.9155 85.9048 54.5686 85.7056 54.4016 85.3523C53.8555 84.1959 53.3159 82.9753 52.7955 81.729C52.59 81.2408 52.8212 80.669 53.3159 80.4699C53.8041 80.2643 54.3759 80.4956 54.575 80.9902C55.0826 82.2044 55.6093 83.3993 56.1426 84.5236C56.3738 85.0054 56.1682 85.5836 55.6864 85.8084C55.5515 85.8727 55.4102 85.9048 55.2753 85.9048ZM52.2623 78.6775C51.8704 78.6775 51.5043 78.4334 51.3565 78.0479C50.9132 76.8338 50.47 75.5746 50.0652 74.3155C49.9046 73.8079 50.1809 73.2619 50.682 73.1013C51.1895 72.9342 51.7355 73.2105 51.8961 73.718C52.3009 74.9579 52.7313 76.1913 53.1681 77.3862C53.3544 77.8873 53.0975 78.4398 52.5964 78.6261C52.4807 78.6647 52.3651 78.6839 52.2623 78.6775Z" fill="#8EA0FF"/>
<path d="M49.8196 71.219C49.402 71.219 49.0166 70.9428 48.8945 70.5188C48.7082 69.8699 48.5348 69.2403 48.3742 68.6493C48.2328 68.1354 48.5412 67.6086 49.0551 67.4672C49.5691 67.3323 50.0959 67.6343 50.2308 68.1482C50.3914 68.7328 50.5584 69.3495 50.7383 69.9855C50.886 70.4931 50.5905 71.0263 50.0766 71.174C49.9931 71.2061 49.9031 71.219 49.8196 71.219Z" fill="#8EA0FF"/>
<path d="M54.1752 48.3616C60.7665 46.338 65.3341 42.1494 64.3705 39.0144C63.4068 35.8729 57.2781 34.9735 50.6869 36.9972C44.0956 39.0208 39.528 43.2094 40.4916 46.3444C41.4552 49.4794 47.5775 50.3853 54.1752 48.3616Z" fill="#8EA0FF"/>
<g opacity="0.5">
<path d="M49.6848 62.4628C53.7513 60.7797 54.9141 54.2462 52.2802 47.8734C49.6463 41.5006 44.2114 37.6974 40.1384 39.3806C36.0719 41.0637 34.9091 47.5971 37.543 53.97C40.1769 60.3428 45.6118 64.146 49.6848 62.4628Z" fill="#8EA0FF"/>
</g>
<path d="M47.6312 63.8311C45.9802 63.8311 44.2328 63.2208 42.5239 62.0259C40.0827 60.3171 37.9949 57.5868 36.6522 54.3361C35.3095 51.0855 34.8534 47.6806 35.3738 44.7448C35.9198 41.6547 37.4809 39.4319 39.7679 38.4876C44.3227 36.6053 50.3294 40.6461 53.1689 47.5072C54.518 50.7578 54.9677 54.1627 54.4473 57.0986C53.8948 60.1886 52.3337 62.4114 50.0596 63.3557C49.2822 63.6705 48.4663 63.8311 47.6312 63.8311ZM42.2156 39.9394C41.6245 39.9394 41.0528 40.0486 40.5067 40.2735C38.8493 40.9545 37.7058 42.6633 37.2753 45.0852C36.8128 47.6614 37.2239 50.6872 38.4381 53.6038C39.6459 56.5139 41.4896 58.9487 43.6353 60.452C45.6461 61.8653 47.6697 62.2636 49.3208 61.5762C50.9718 60.8953 52.1217 59.1864 52.5522 56.7645C53.0147 54.1884 52.6035 51.1626 51.3894 48.246C49.3336 43.2672 45.5112 39.9394 42.2156 39.9394Z" fill="#8EA0FF"/>
<path d="M63.5941 52.4602C64.5513 49.3188 59.9837 45.143 53.386 43.1258C46.7883 41.1086 40.666 42.0273 39.7024 45.1687C38.7388 48.3102 43.3128 52.4859 49.9105 54.5031C56.5082 56.5203 62.6369 55.6017 63.5941 52.4602Z" fill="#8EA0FF"/>
<path d="M56.6236 56.5332C54.4458 56.5332 52.0367 56.1542 49.6341 55.4218C46.3127 54.4068 43.3576 52.8264 41.3275 50.9698C39.1112 48.9398 38.2054 46.7877 38.7835 44.8861C39.3617 42.991 41.3147 41.7061 44.2891 41.2628C47.013 40.8581 50.3471 41.1922 53.6685 42.2072C60.8829 44.4043 65.6497 49.0362 64.519 52.7429C63.9408 54.6381 61.9879 55.9229 59.0134 56.3726C58.2554 56.4818 57.4523 56.5396 56.6236 56.5332ZM46.6918 43.0231C45.9466 43.0231 45.2399 43.068 44.5718 43.1708C42.4068 43.492 40.9678 44.3208 40.6273 45.4514C40.2868 46.5821 41.0127 48.0725 42.6252 49.5501C44.4497 51.2204 47.1415 52.653 50.1994 53.5845C53.2573 54.516 56.2831 54.8308 58.7308 54.4646C60.8957 54.1434 62.3348 53.3147 62.6752 52.184C63.3626 49.9291 59.6045 46.036 53.1096 44.0574C50.8868 43.37 48.6704 43.0231 46.6918 43.0231Z" fill="#8EA0FF"/>
<path d="M47.6797 63.8119C43.5811 63.8119 39.0134 60.0537 36.6493 54.3297C35.3002 51.0791 34.8505 47.6742 35.3709 44.7383C35.917 41.6483 37.478 39.4255 39.7586 38.4811C41.3005 37.8387 43.0478 37.8516 44.8402 38.5133C46.4784 37.5303 48.3864 36.6824 50.3843 36.0721C57.5987 33.8621 64.1386 35.0249 65.2757 38.7253C65.9888 41.0508 64.4855 43.7233 61.222 46.0296C63.9202 48.1946 65.1408 50.6422 64.4983 52.7301C63.6375 55.5503 59.7765 56.9508 54.5279 56.4176C54.1039 59.7839 52.4658 62.3343 50.0374 63.3429C49.2986 63.6641 48.502 63.8119 47.6797 63.8119ZM42.1741 39.9459C41.5831 39.9459 41.0242 40.0551 40.5038 40.2671C38.8464 40.9545 37.7029 42.6569 37.2725 45.0852C36.8099 47.6614 37.2211 50.6872 38.4352 53.5973C40.8636 59.4691 45.746 63.0474 49.3179 61.5698C51.2837 60.7604 52.5557 58.4091 52.7163 55.2998L52.7677 54.2398L53.8148 54.394C58.3568 55.0492 62.0828 54.1177 62.6803 52.1776C63.1364 50.6872 61.7295 48.6186 59.0249 46.7941L57.7786 45.9525L59.0634 45.1688C62.237 43.2479 63.9587 40.9416 63.4576 39.3034C62.7702 37.0485 57.4702 35.9307 50.9818 37.9222C48.9646 38.539 47.063 39.3998 45.4762 40.4084L45.0458 40.6782L44.5704 40.4726C43.7481 40.1193 42.9451 39.9394 42.187 39.9394L42.1741 39.9459Z" fill="#8EA0FF"/>
</g>
</svg>
